<svg width="18" height="18" viewBox="0 0 18 18" fill="none" xmlns="http://www.w3.org/2000/svg">
<path d="M9.00001 0C13.8078 0 18 3.96901 18 8.55001C18 13.0536 13.9023 16.5978 9.00001 16.5978C7.95149 16.5984 6.90953 16.4325 5.91301 16.1064C5.49541 16.5114 5.35231 16.6491 4.46581 17.5041C3.82681 17.9865 3.2256 18.1503 2.6883 17.8461C2.1465 17.5401 1.9836 16.9443 2.0943 16.1595L2.4543 14.0724C0.891001 12.6018 0 10.6578 0 8.55001C0 3.96901 4.19131 0 9.00001 0ZM9.00001 1.26C4.87261 1.26 1.26 4.68001 1.26 8.55001C1.26 10.3905 2.0808 12.0852 3.52801 13.347L3.54601 13.3623L3.81331 13.5945L3.75301 13.9455L3.62881 14.6691L3.59551 14.8617L3.339 16.3539C3.32388 16.4544 3.31486 16.5557 3.31201 16.6572V16.7427C3.31201 16.7472 3.3102 16.7499 3.3102 16.7499C3.3165 16.7409 3.43891 16.7022 3.64861 16.5492L5.60161 14.6538L5.97421 14.7942C6.94209 15.1554 7.96695 15.3398 9.00001 15.3387C13.2444 15.3387 16.74 12.3147 16.74 8.55001C16.74 4.68091 13.1274 1.26 9.00001 1.26ZM4.70431 7.03171C4.88562 7.02509 5.06641 7.05508 5.23587 7.11989C5.40533 7.18471 5.55999 7.28302 5.6906 7.40895C5.82122 7.53488 5.92511 7.68584 5.99607 7.85282C6.06702 8.01981 6.1036 8.19938 6.1036 8.38081C6.1036 8.56225 6.06702 8.74182 5.99607 8.9088C5.92511 9.07578 5.82122 9.22675 5.6906 9.35268C5.55999 9.47861 5.40533 9.57692 5.23587 9.64173C5.06641 9.70655 4.88562 9.73654 4.70431 9.72991C4.35503 9.71715 4.02432 9.56943 3.78173 9.31782C3.53914 9.06621 3.40359 8.73032 3.40359 8.38081C3.40359 8.0313 3.53914 7.69542 3.78173 7.4438C4.02432 7.19219 4.35503 7.04447 4.70431 7.03171ZM9.20251 7.03171C9.38383 7.02509 9.56461 7.05508 9.73408 7.11989C9.90354 7.18471 10.0582 7.28302 10.1888 7.40895C10.3194 7.53488 10.4233 7.68584 10.4943 7.85282C10.5652 8.01981 10.6018 8.19938 10.6018 8.38081C10.6018 8.56225 10.5652 8.74182 10.4943 8.9088C10.4233 9.07578 10.3194 9.22675 10.1888 9.35268C10.0582 9.47861 9.90354 9.57692 9.73408 9.64173C9.56461 9.70655 9.38383 9.73654 9.20251 9.72991C8.85324 9.71715 8.52252 9.56943 8.27994 9.31782C8.03735 9.06621 7.9018 8.73032 7.9018 8.38081C7.9018 8.0313 8.03735 7.69542 8.27994 7.4438C8.52252 7.19219 8.85324 7.04447 9.20251 7.03171ZM13.6998 7.03171C13.8811 7.02509 14.0619 7.05508 14.2314 7.11989C14.4008 7.18471 14.5555 7.28302 14.6861 7.40895C14.8167 7.53488 14.9206 7.68584 14.9916 7.85282C15.0625 8.01981 15.0991 8.19938 15.0991 8.38081C15.0991 8.56225 15.0625 8.74182 14.9916 8.9088C14.9206 9.07578 14.8167 9.22675 14.6861 9.35268C14.5555 9.47861 14.4008 9.57692 14.2314 9.64173C14.0619 9.70655 13.8811 9.73654 13.6998 9.72991C13.3505 9.71715 13.0198 9.56943 12.7772 9.31782C12.5347 9.06621 12.3991 8.73032 12.3991 8.38081C12.3991 8.0313 12.5347 7.69542 12.7772 7.4438C13.0198 7.19219 13.3505 7.04447 13.6998 7.03171Z" fill="#888888"/>
</svg>
