<svg width="24" height="24" viewBox="0 0 24 24" fill="none" xmlns="http://www.w3.org/2000/svg">
<path d="M1.91674 10.1646C1.67361 10.1646 1.44043 10.068 1.26851 9.89611C1.09659 9.72419 1 9.49101 1 9.24788V1.91577C1 1.67263 1.09659 1.43945 1.26851 1.26753C1.44043 1.09561 1.67361 0.999023 1.91674 0.999023H9.25069C9.49382 0.999023 9.727 1.09561 9.89892 1.26753C10.0708 1.43945 10.1674 1.67263 10.1674 1.91577V9.24788C10.1674 9.49101 10.0708 9.72419 9.89892 9.89611C9.727 10.068 9.49382 10.1646 9.25069 10.1646H1.91674ZM14.7511 10.1646C14.508 10.1646 14.2748 10.068 14.1029 9.89611C13.931 9.72419 13.8344 9.49101 13.8344 9.24788V1.91577C13.8344 1.67263 13.931 1.43945 14.1029 1.26753C14.2748 1.09561 14.508 0.999023 14.7511 0.999023H22.0833C22.3264 0.999023 22.5596 1.09561 22.7315 1.26753C22.9034 1.43945 23 1.67263 23 1.91577V9.24788C23 9.49101 22.9034 9.72419 22.7315 9.89611C22.5596 10.068 22.3264 10.1646 22.0833 10.1646H14.7511ZM1.91674 22.999C1.67361 22.999 1.44043 22.9024 1.26851 22.7305C1.09659 22.5586 1 22.3254 1 22.0823V14.7483C1 14.5052 1.09659 14.272 1.26851 14.1001C1.44043 13.9282 1.67361 13.8316 1.91674 13.8316H9.25069C9.49382 13.8316 9.727 13.9282 9.89892 14.1001C10.0708 14.272 10.1674 14.5052 10.1674 14.7483V22.0823C10.1674 22.3254 10.0708 22.5586 9.89892 22.7305C9.727 22.9024 9.49382 22.999 9.25069 22.999H1.91674ZM14.7511 22.999C14.508 22.999 14.2748 22.9024 14.1029 22.7305C13.931 22.5586 13.8344 22.3254 13.8344 22.0823V14.7483C13.8344 14.5052 13.931 14.272 14.1029 14.1001C14.2748 13.9282 14.508 13.8316 14.7511 13.8316H22.0833C22.3264 13.8316 22.5596 13.9282 22.7315 14.1001C22.9034 14.272 23 14.5052 23 14.7483V22.0823C23 22.3254 22.9034 22.5586 22.7315 22.7305C22.5596 22.9024 22.3264 22.999 22.0833 22.999H14.7511Z" fill="#D9D9D9" stroke="white" stroke-width="1.4"/>
</svg>
