<svg width="23" height="24" viewBox="0 0 23 24" fill="none" xmlns="http://www.w3.org/2000/svg">
<mask id="path-1-inside-1_1725_1530" fill="white">
<path d="M13.8365 0.199219C14.0149 0.199224 14.1887 0.255866 14.3329 0.360988C14.4771 0.466109 14.5843 0.614284 14.6389 0.784174L15.566 3.66512C15.9554 3.85561 16.328 4.0697 16.6837 4.31077L19.6439 3.67355C19.8184 3.63629 20.0003 3.65539 20.1632 3.72809C20.3262 3.8008 20.4619 3.92337 20.5508 4.07813L22.8872 8.12225C22.9765 8.27693 23.0143 8.45594 22.9952 8.63349C22.9761 8.81103 22.9011 8.97792 22.781 9.1101L20.7497 11.3521C20.7793 11.7821 20.7793 12.2135 20.7497 12.6434L22.781 14.8889C22.9011 15.021 22.9761 15.1879 22.9952 15.3655C23.0143 15.543 22.9765 15.722 22.8872 15.8767L20.5508 19.9225C20.4617 20.077 20.3259 20.1992 20.1629 20.2716C19.9999 20.344 19.8182 20.3628 19.6439 20.3254L16.6837 19.6882C16.3297 19.9276 15.9554 20.1433 15.5677 20.3338L14.6389 23.2148C14.5843 23.3847 14.4771 23.5328 14.3329 23.638C14.1887 23.7431 14.0149 23.7997 13.8365 23.7997H9.16355C8.9851 23.7997 8.81126 23.7431 8.66705 23.638C8.52285 23.5328 8.41574 23.3847 8.36113 23.2148L7.43566 20.3355C7.04731 20.1456 6.67272 19.9287 6.31463 19.6865L3.35614 20.3254C3.1816 20.3627 2.99975 20.3436 2.83676 20.2709C2.67377 20.1982 2.53807 20.0756 2.4492 19.9208L0.112753 15.8767C0.0235333 15.722 -0.0142572 15.543 0.00483009 15.3655C0.0239173 15.1879 0.098896 15.021 0.218955 14.8889L2.25028 12.6434C2.22085 12.2146 2.22085 11.7843 2.25028 11.3555L0.218955 9.1101C0.098896 8.97792 0.0239173 8.81103 0.00483009 8.63349C-0.0142572 8.45594 0.0235333 8.27693 0.112753 8.12225L2.4492 4.07645C2.53832 3.92199 2.67412 3.79977 2.83709 3.72738C3.00006 3.65498 3.18178 3.63614 3.35614 3.67355L6.31463 4.31245C6.67201 4.07139 7.04625 3.85393 7.43566 3.66344L8.36282 0.784174C8.41725 0.614832 8.52385 0.467048 8.66738 0.361978C8.8109 0.256908 8.98399 0.199936 9.16186 0.199219H13.8348H13.8365ZM13.2195 1.88497H9.78053L8.82303 4.86369L8.17739 5.17893C7.85998 5.33424 7.55358 5.5111 7.26034 5.70825L6.66358 6.11283L3.60226 5.45202L1.88279 8.43243L3.98155 10.7554L3.93098 11.4702C3.90675 11.8226 3.90675 12.1763 3.93098 12.5288L3.98155 13.2436L1.87942 15.5665L3.60057 18.5469L6.66189 17.8878L7.25865 18.2907C7.5519 18.4879 7.8583 18.6647 8.1757 18.82L8.82134 19.1353L9.78053 22.114H13.2228L14.1837 19.1336L14.8277 18.82C15.1447 18.6651 15.4506 18.4882 15.743 18.2907L16.3381 17.8878L19.4011 18.5469L21.1206 15.5665L19.0201 13.2436L19.0707 12.5288C19.095 12.1758 19.095 11.8215 19.0707 11.4685L19.0201 10.7537L21.1223 8.43243L19.4011 5.45202L16.3381 6.10946L15.743 5.70825C15.4506 5.51074 15.1447 5.33386 14.8277 5.17893L14.1837 4.86538L13.2212 1.88497H13.2195ZM11.5 6.94222C12.8413 6.94222 14.1276 7.47504 15.076 8.42346C16.0244 9.37188 16.5573 10.6582 16.5573 11.9995C16.5573 13.3407 16.0244 14.6271 15.076 15.5755C14.1276 16.5239 12.8413 17.0567 11.5 17.0567C10.1587 17.0567 8.8724 16.5239 7.92398 15.5755C6.97556 14.6271 6.44275 13.3407 6.44275 11.9995C6.44275 10.6582 6.97556 9.37188 7.92398 8.42346C8.8724 7.47504 10.1587 6.94222 11.5 6.94222ZM11.5 8.62797C10.6058 8.62797 9.74827 8.98318 9.11599 9.61546C8.48371 10.2477 8.1285 11.1053 8.1285 11.9995C8.1285 12.8937 8.48371 13.7512 9.11599 14.3835C9.74827 15.0158 10.6058 15.371 11.5 15.371C12.3942 15.371 13.2517 15.0158 13.884 14.3835C14.5163 13.7512 14.8715 12.8937 14.8715 11.9995C14.8715 11.1053 14.5163 10.2477 13.884 9.61546C13.2517 8.98318 12.3942 8.62797 11.5 8.62797Z"/>
</mask>
<path d="M13.8365 0.199219C14.0149 0.199224 14.1887 0.255866 14.3329 0.360988C14.4771 0.466109 14.5843 0.614284 14.6389 0.784174L15.566 3.66512C15.9554 3.85561 16.328 4.0697 16.6837 4.31077L19.6439 3.67355C19.8184 3.63629 20.0003 3.65539 20.1632 3.72809C20.3262 3.8008 20.4619 3.92337 20.5508 4.07813L22.8872 8.12225C22.9765 8.27693 23.0143 8.45594 22.9952 8.63349C22.9761 8.81103 22.9011 8.97792 22.781 9.1101L20.7497 11.3521C20.7793 11.7821 20.7793 12.2135 20.7497 12.6434L22.781 14.8889C22.9011 15.021 22.9761 15.1879 22.9952 15.3655C23.0143 15.543 22.9765 15.722 22.8872 15.8767L20.5508 19.9225C20.4617 20.077 20.3259 20.1992 20.1629 20.2716C19.9999 20.344 19.8182 20.3628 19.6439 20.3254L16.6837 19.6882C16.3297 19.9276 15.9554 20.1433 15.5677 20.3338L14.6389 23.2148C14.5843 23.3847 14.4771 23.5328 14.3329 23.638C14.1887 23.7431 14.0149 23.7997 13.8365 23.7997H9.16355C8.9851 23.7997 8.81126 23.7431 8.66705 23.638C8.52285 23.5328 8.41574 23.3847 8.36113 23.2148L7.43566 20.3355C7.04731 20.1456 6.67272 19.9287 6.31463 19.6865L3.35614 20.3254C3.1816 20.3627 2.99975 20.3436 2.83676 20.2709C2.67377 20.1982 2.53807 20.0756 2.4492 19.9208L0.112753 15.8767C0.0235333 15.722 -0.0142572 15.543 0.00483009 15.3655C0.0239173 15.1879 0.098896 15.021 0.218955 14.8889L2.25028 12.6434C2.22085 12.2146 2.22085 11.7843 2.25028 11.3555L0.218955 9.1101C0.098896 8.97792 0.0239173 8.81103 0.00483009 8.63349C-0.0142572 8.45594 0.0235333 8.27693 0.112753 8.12225L2.4492 4.07645C2.53832 3.92199 2.67412 3.79977 2.83709 3.72738C3.00006 3.65498 3.18178 3.63614 3.35614 3.67355L6.31463 4.31245C6.67201 4.07139 7.04625 3.85393 7.43566 3.66344L8.36282 0.784174C8.41725 0.614832 8.52385 0.467048 8.66738 0.361978C8.8109 0.256908 8.98399 0.199936 9.16186 0.199219H13.8348H13.8365ZM13.2195 1.88497H9.78053L8.82303 4.86369L8.17739 5.17893C7.85998 5.33424 7.55358 5.5111 7.26034 5.70825L6.66358 6.11283L3.60226 5.45202L1.88279 8.43243L3.98155 10.7554L3.93098 11.4702C3.90675 11.8226 3.90675 12.1763 3.93098 12.5288L3.98155 13.2436L1.87942 15.5665L3.60057 18.5469L6.66189 17.8878L7.25865 18.2907C7.5519 18.4879 7.8583 18.6647 8.1757 18.82L8.82134 19.1353L9.78053 22.114H13.2228L14.1837 19.1336L14.8277 18.82C15.1447 18.6651 15.4506 18.4882 15.743 18.2907L16.3381 17.8878L19.4011 18.5469L21.1206 15.5665L19.0201 13.2436L19.0707 12.5288C19.095 12.1758 19.095 11.8215 19.0707 11.4685L19.0201 10.7537L21.1223 8.43243L19.4011 5.45202L16.3381 6.10946L15.743 5.70825C15.4506 5.51074 15.1447 5.33386 14.8277 5.17893L14.1837 4.86538L13.2212 1.88497H13.2195ZM11.5 6.94222C12.8413 6.94222 14.1276 7.47504 15.076 8.42346C16.0244 9.37188 16.5573 10.6582 16.5573 11.9995C16.5573 13.3407 16.0244 14.6271 15.076 15.5755C14.1276 16.5239 12.8413 17.0567 11.5 17.0567C10.1587 17.0567 8.8724 16.5239 7.92398 15.5755C6.97556 14.6271 6.44275 13.3407 6.44275 11.9995C6.44275 10.6582 6.97556 9.37188 7.92398 8.42346C8.8724 7.47504 10.1587 6.94222 11.5 6.94222ZM11.5 8.62797C10.6058 8.62797 9.74827 8.98318 9.11599 9.61546C8.48371 10.2477 8.1285 11.1053 8.1285 11.9995C8.1285 12.8937 8.48371 13.7512 9.11599 14.3835C9.74827 15.0158 10.6058 15.371 11.5 15.371C12.3942 15.371 13.2517 15.0158 13.884 14.3835C14.5163 13.7512 14.8715 12.8937 14.8715 11.9995C14.8715 11.1053 14.5163 10.2477 13.884 9.61546C13.2517 8.98318 12.3942 8.62797 11.5 8.62797Z" fill="#888888" stroke="white" stroke-width="2" mask="url(#path-1-inside-1_1725_1530)"/>
</svg>
