<svg width="23" height="24" viewBox="0 0 23 24" fill="none" xmlns="http://www.w3.org/2000/svg">
<mask id="path-1-inside-1_1829_1150" fill="white">
<path d="M13.8365 0C14.0149 5.62336e-06 14.1887 0.0566477 14.3329 0.161769C14.4771 0.26689 14.5843 0.415066 14.6389 0.584956L15.566 3.4659C15.9554 3.65639 16.328 3.87048 16.6837 4.11155L19.6439 3.47433C19.8184 3.43707 20.0003 3.45617 20.1632 3.52887C20.3262 3.60158 20.4619 3.72415 20.5508 3.87891L22.8872 7.92303C22.9765 8.07771 23.0143 8.25673 22.9952 8.43427C22.9761 8.61181 22.9011 8.7787 22.781 8.91088L20.7497 11.1529C20.7793 11.5829 20.7793 12.0143 20.7497 12.4442L22.781 14.6896C22.9011 14.8218 22.9761 14.9887 22.9952 15.1662C23.0143 15.3438 22.9765 15.5228 22.8872 15.6775L20.5508 19.7233C20.4617 19.8777 20.3259 20 20.1629 20.0724C19.9999 20.1448 19.8182 20.1636 19.6439 20.1262L16.6837 19.489C16.3297 19.7283 15.9554 19.9441 15.5677 20.1346L14.6389 23.0156C14.5843 23.1855 14.4771 23.3336 14.3329 23.4387C14.1887 23.5439 14.0149 23.6005 13.8365 23.6005H9.16355C8.9851 23.6005 8.81126 23.5439 8.66705 23.4387C8.52285 23.3336 8.41574 23.1855 8.36113 23.0156L7.43565 20.1363C7.04731 19.9464 6.67272 19.7295 6.31463 19.4873L3.35614 20.1262C3.1816 20.1634 2.99975 20.1443 2.83676 20.0716C2.67377 19.9989 2.53807 19.8764 2.4492 19.7216L0.112753 15.6775C0.0235333 15.5228 -0.0142572 15.3438 0.00483009 15.1662C0.0239173 14.9887 0.098896 14.8218 0.218955 14.6896L2.25028 12.4442C2.22085 12.0154 2.22085 11.5851 2.25028 11.1563L0.218955 8.91088C0.098896 8.7787 0.0239173 8.61181 0.00483009 8.43427C-0.0142572 8.25673 0.0235333 8.07771 0.112753 7.92303L2.4492 3.87723C2.53832 3.72277 2.67412 3.60055 2.83709 3.52816C3.00006 3.45576 3.18178 3.43692 3.35614 3.47433L6.31463 4.11323C6.67201 3.87217 7.04625 3.65471 7.43565 3.46422L8.36282 0.584956C8.41725 0.415613 8.52385 0.26783 8.66738 0.162759C8.8109 0.0576888 8.98399 0.000717569 9.16186 0H13.8348H13.8365ZM13.2195 1.68575H9.78053L8.82303 4.66447L8.17738 4.97971C7.85998 5.13502 7.55358 5.31188 7.26034 5.50903L6.66358 5.91361L3.60226 5.2528L1.88279 8.23321L3.98155 10.5562L3.93098 11.2709C3.90675 11.6234 3.90675 11.9771 3.93098 12.3296L3.98155 13.0443L1.87942 15.3673L3.60057 18.3477L6.66189 17.6886L7.25865 18.0915C7.5519 18.2886 7.8583 18.4655 8.1757 18.6208L8.82134 18.936L9.78053 21.9148H13.2228L14.1837 18.9344L14.8277 18.6208C15.1447 18.4659 15.4506 18.289 15.743 18.0915L16.3381 17.6886L19.4011 18.3477L21.1206 15.3673L19.0201 13.0443L19.0707 12.3296C19.095 11.9766 19.095 11.6223 19.0707 11.2692L19.0201 10.5545L21.1223 8.23321L19.4011 5.2528L16.3381 5.91024L15.743 5.50903C15.4506 5.31152 15.1447 5.13464 14.8277 4.97971L14.1837 4.66616L13.2212 1.68575H13.2195ZM11.5 6.743C12.8413 6.743 14.1276 7.27582 15.076 8.22424C16.0244 9.17266 16.5573 10.459 16.5573 11.8003C16.5573 13.1415 16.0244 14.4279 15.076 15.3763C14.1276 16.3247 12.8413 16.8575 11.5 16.8575C10.1587 16.8575 8.8724 16.3247 7.92398 15.3763C6.97556 14.4279 6.44275 13.1415 6.44275 11.8003C6.44275 10.459 6.97556 9.17266 7.92398 8.22424C8.8724 7.27582 10.1587 6.743 11.5 6.743ZM11.5 8.42876C10.6058 8.42876 9.74827 8.78397 9.11599 9.41625C8.48371 10.0485 8.1285 10.9061 8.1285 11.8003C8.1285 12.6944 8.48371 13.552 9.11599 14.1843C9.74827 14.8165 10.6058 15.1718 11.5 15.1718C12.3942 15.1718 13.2517 14.8165 13.884 14.1843C14.5163 13.552 14.8715 12.6944 14.8715 11.8003C14.8715 10.9061 14.5163 10.0485 13.884 9.41625C13.2517 8.78397 12.3942 8.42876 11.5 8.42876Z"/>
</mask>
<path d="M13.8365 0C14.0149 5.62336e-06 14.1887 0.0566477 14.3329 0.161769C14.4771 0.26689 14.5843 0.415066 14.6389 0.584956L15.566 3.4659C15.9554 3.65639 16.328 3.87048 16.6837 4.11155L19.6439 3.47433C19.8184 3.43707 20.0003 3.45617 20.1632 3.52887C20.3262 3.60158 20.4619 3.72415 20.5508 3.87891L22.8872 7.92303C22.9765 8.07771 23.0143 8.25673 22.9952 8.43427C22.9761 8.61181 22.9011 8.7787 22.781 8.91088L20.7497 11.1529C20.7793 11.5829 20.7793 12.0143 20.7497 12.4442L22.781 14.6896C22.9011 14.8218 22.9761 14.9887 22.9952 15.1662C23.0143 15.3438 22.9765 15.5228 22.8872 15.6775L20.5508 19.7233C20.4617 19.8777 20.3259 20 20.1629 20.0724C19.9999 20.1448 19.8182 20.1636 19.6439 20.1262L16.6837 19.489C16.3297 19.7283 15.9554 19.9441 15.5677 20.1346L14.6389 23.0156C14.5843 23.1855 14.4771 23.3336 14.3329 23.4387C14.1887 23.5439 14.0149 23.6005 13.8365 23.6005H9.16355C8.9851 23.6005 8.81126 23.5439 8.66705 23.4387C8.52285 23.3336 8.41574 23.1855 8.36113 23.0156L7.43565 20.1363C7.04731 19.9464 6.67272 19.7295 6.31463 19.4873L3.35614 20.1262C3.1816 20.1634 2.99975 20.1443 2.83676 20.0716C2.67377 19.9989 2.53807 19.8764 2.4492 19.7216L0.112753 15.6775C0.0235333 15.5228 -0.0142572 15.3438 0.00483009 15.1662C0.0239173 14.9887 0.098896 14.8218 0.218955 14.6896L2.25028 12.4442C2.22085 12.0154 2.22085 11.5851 2.25028 11.1563L0.218955 8.91088C0.098896 8.7787 0.0239173 8.61181 0.00483009 8.43427C-0.0142572 8.25673 0.0235333 8.07771 0.112753 7.92303L2.4492 3.87723C2.53832 3.72277 2.67412 3.60055 2.83709 3.52816C3.00006 3.45576 3.18178 3.43692 3.35614 3.47433L6.31463 4.11323C6.67201 3.87217 7.04625 3.65471 7.43565 3.46422L8.36282 0.584956C8.41725 0.415613 8.52385 0.26783 8.66738 0.162759C8.8109 0.0576888 8.98399 0.000717569 9.16186 0H13.8348H13.8365ZM13.2195 1.68575H9.78053L8.82303 4.66447L8.17738 4.97971C7.85998 5.13502 7.55358 5.31188 7.26034 5.50903L6.66358 5.91361L3.60226 5.2528L1.88279 8.23321L3.98155 10.5562L3.93098 11.2709C3.90675 11.6234 3.90675 11.9771 3.93098 12.3296L3.98155 13.0443L1.87942 15.3673L3.60057 18.3477L6.66189 17.6886L7.25865 18.0915C7.5519 18.2886 7.8583 18.4655 8.1757 18.6208L8.82134 18.936L9.78053 21.9148H13.2228L14.1837 18.9344L14.8277 18.6208C15.1447 18.4659 15.4506 18.289 15.743 18.0915L16.3381 17.6886L19.4011 18.3477L21.1206 15.3673L19.0201 13.0443L19.0707 12.3296C19.095 11.9766 19.095 11.6223 19.0707 11.2692L19.0201 10.5545L21.1223 8.23321L19.4011 5.2528L16.3381 5.91024L15.743 5.50903C15.4506 5.31152 15.1447 5.13464 14.8277 4.97971L14.1837 4.66616L13.2212 1.68575H13.2195ZM11.5 6.743C12.8413 6.743 14.1276 7.27582 15.076 8.22424C16.0244 9.17266 16.5573 10.459 16.5573 11.8003C16.5573 13.1415 16.0244 14.4279 15.076 15.3763C14.1276 16.3247 12.8413 16.8575 11.5 16.8575C10.1587 16.8575 8.8724 16.3247 7.92398 15.3763C6.97556 14.4279 6.44275 13.1415 6.44275 11.8003C6.44275 10.459 6.97556 9.17266 7.92398 8.22424C8.8724 7.27582 10.1587 6.743 11.5 6.743ZM11.5 8.42876C10.6058 8.42876 9.74827 8.78397 9.11599 9.41625C8.48371 10.0485 8.1285 10.9061 8.1285 11.8003C8.1285 12.6944 8.48371 13.552 9.11599 14.1843C9.74827 14.8165 10.6058 15.1718 11.5 15.1718C12.3942 15.1718 13.2517 14.8165 13.884 14.1843C14.5163 13.552 14.8715 12.6944 14.8715 11.8003C14.8715 10.9061 14.5163 10.0485 13.884 9.41625C13.2517 8.78397 12.3942 8.42876 11.5 8.42876Z" fill="#D9D9D9" stroke="white" stroke-width="2" mask="url(#path-1-inside-1_1829_1150)"/>
<path d="M6 5.5L8 4.5L9.5 8L8 9L7.5 10L7 12V13.5L8 15L10 16H13.5L14.5 15.5L15 14.5L15.5 13L16 10.5L15.5 9.5L14 8.5L12.5 7.5L10.5 8L8.5 3.5L9 1.5H13.5L14.5 4.5L16 5.5L19.5 4.5L22 8L19.5 11V13.5L21.5 15.5L19.5 19L17 18.5L15 19.5L13.5 22.5H9.5L8.5 19.5L6.5 18.5H3L1 15.5L3 13V11L1 8L3.5 4.5L6 5.5Z" fill="white" stroke="white"/>
</svg>
