<svg width="20" height="20" viewBox="0 0 20 20" fill="none" xmlns="http://www.w3.org/2000/svg">
<mask id="path-1-outside-1_713_1122" maskUnits="userSpaceOnUse" x="0" y="0" width="20" height="20" fill="black">
<rect fill="white" width="20" height="20"/>
<path d="M8.75 3.75C8.75 3.02065 8.46027 2.32118 7.94454 1.80546C7.42882 1.28973 6.72935 1 6 1C5.27065 1 4.57118 1.28973 4.05546 1.80546C3.53973 2.32118 3.25 3.02065 3.25 3.75C3.25 4.47935 3.53973 5.17882 4.05546 5.69454C4.57118 6.21027 5.27065 6.5 6 6.5C6.72935 6.5 7.42882 6.21027 7.94454 5.69454C8.46027 5.17882 8.75 4.47935 8.75 3.75ZM4.25 3.75C4.25 3.52019 4.29526 3.29262 4.38321 3.0803C4.47116 2.86798 4.60006 2.67507 4.76256 2.51256C4.92507 2.35006 5.11798 2.22116 5.3303 2.13321C5.54262 2.04527 5.77019 2 6 2C6.22981 2 6.45738 2.04527 6.6697 2.13321C6.88202 2.22116 7.07493 2.35006 7.23744 2.51256C7.39994 2.67507 7.52884 2.86798 7.61679 3.0803C7.70474 3.29262 7.75 3.52019 7.75 3.75C7.75 4.21413 7.56563 4.65925 7.23744 4.98744C6.90925 5.31563 6.46413 5.5 6 5.5C5.53587 5.5 5.09075 5.31563 4.76256 4.98744C4.43437 4.65925 4.25 4.21413 4.25 3.75ZM2.5 7.5H6.683C6.519 7.81 6.397 8.146 6.325 8.5H2.5C2.36739 8.5 2.24021 8.55268 2.14645 8.64645C2.05268 8.74021 2 8.86739 2 9V9.5C2 10.76 3.099 12.114 5.096 12.43C4.774 12.65 4.506 12.943 4.315 13.284C2.205 12.713 1 11.087 1 9.5V9C1 8.60218 1.15804 8.22064 1.43934 7.93934C1.72064 7.65804 2.10218 7.5 2.5 7.5ZM7.879 7.5C8.383 6.89 9.146 6.5 10 6.5C10.5989 6.49896 11.1816 6.69386 11.6594 7.05497C12.1371 7.41608 12.4836 7.92356 12.646 8.5C12.7907 9.0145 12.7826 9.56 12.6225 10.0699C12.4625 10.5799 12.1574 11.0322 11.7447 11.3717C11.3319 11.7112 10.8292 11.9232 10.298 11.9819C9.76673 12.0405 9.2299 11.9433 8.753 11.702C8.38581 11.5151 8.06531 11.2481 7.81518 10.9207C7.56504 10.5934 7.39166 10.2139 7.30785 9.81055C7.22405 9.40716 7.23195 8.99009 7.33098 8.59017C7.43001 8.19024 7.61664 7.81767 7.879 7.5ZM8.42 8.5C8.32151 8.70775 8.2649 8.93287 8.25341 9.1625C8.24192 9.39212 8.27577 9.62177 8.35303 9.83831C8.50906 10.2756 8.83243 10.6331 9.252 10.832C9.67157 11.0309 10.153 11.055 10.5903 10.899C11.0276 10.7429 11.3851 10.4196 11.584 10C11.7829 9.58029 11.807 9.09876 11.6508 8.66133C11.4947 8.22391 11.1712 7.86641 10.7515 7.6675C10.3318 7.46859 9.85026 7.44455 9.41283 7.60067C8.9754 7.7568 8.61791 8.0803 8.419 8.5M15.685 13.284C15.4949 12.9425 15.2274 12.6504 14.904 12.431C16.9 12.114 18 10.759 18 9.5V9C18 8.86739 17.9473 8.74021 17.8536 8.64645C17.7598 8.55268 17.6326 8.5 17.5 8.5H13.675C13.6047 8.15124 13.4845 7.81444 13.318 7.5H17.5C17.8978 7.5 18.2794 7.65804 18.5607 7.93934C18.842 8.22064 19 8.60218 19 9V9.5C19 11.087 17.794 12.712 15.685 13.284ZM14.487 13.371C14.2137 13.132 13.8631 13.0001 13.5 13H6.5C6.30287 12.9995 6.10758 13.0379 5.92535 13.1131C5.74312 13.1883 5.57756 13.2988 5.43816 13.4382C5.29877 13.5776 5.1883 13.7431 5.11311 13.9254C5.03791 14.1076 4.99947 14.3029 5 14.5V15C5 16.971 6.86 19 10 19C13.14 19 15 16.971 15 15V14.5C15 14.05 14.802 13.646 14.487 13.37M6 14.5C6 14.3674 6.05268 14.2402 6.14645 14.1464C6.24021 14.0527 6.36739 14 6.5 14H13.5C13.6326 14 13.7598 14.0527 13.8536 14.1464C13.9473 14.2402 14 14.3674 14 14.5V15C14 16.438 12.568 18 10 18C7.432 18 6 16.438 6 15V14.5ZM14 1C14.7293 1 15.4288 1.28973 15.9445 1.80546C16.4603 2.32118 16.75 3.02065 16.75 3.75C16.75 4.47935 16.4603 5.17882 15.9445 5.69454C15.4288 6.21027 14.7293 6.5 14 6.5C13.2707 6.5 12.5712 6.21027 12.0555 5.69454C11.5397 5.17882 11.25 4.47935 11.25 3.75C11.25 3.02065 11.5397 2.32118 12.0555 1.80546C12.5712 1.28973 13.2707 1 14 1ZM14 2C13.5359 2 13.0908 2.18437 12.7626 2.51256C12.4344 2.84075 12.25 3.28587 12.25 3.75C12.25 4.21413 12.4344 4.65925 12.7626 4.98744C13.0908 5.31563 13.5359 5.5 14 5.5C14.4641 5.5 14.9092 5.31563 15.2374 4.98744C15.5656 4.65925 15.75 4.21413 15.75 3.75C15.75 3.28587 15.5656 2.84075 15.2374 2.51256C14.9092 2.18437 14.4641 2 14 2Z"/>
</mask>
<path d="M8.75 3.75C8.75 3.02065 8.46027 2.32118 7.94454 1.80546C7.42882 1.28973 6.72935 1 6 1C5.27065 1 4.57118 1.28973 4.05546 1.80546C3.53973 2.32118 3.25 3.02065 3.25 3.75C3.25 4.47935 3.53973 5.17882 4.05546 5.69454C4.57118 6.21027 5.27065 6.5 6 6.5C6.72935 6.5 7.42882 6.21027 7.94454 5.69454C8.46027 5.17882 8.75 4.47935 8.75 3.75ZM4.25 3.75C4.25 3.52019 4.29526 3.29262 4.38321 3.0803C4.47116 2.86798 4.60006 2.67507 4.76256 2.51256C4.92507 2.35006 5.11798 2.22116 5.3303 2.13321C5.54262 2.04527 5.77019 2 6 2C6.22981 2 6.45738 2.04527 6.6697 2.13321C6.88202 2.22116 7.07493 2.35006 7.23744 2.51256C7.39994 2.67507 7.52884 2.86798 7.61679 3.0803C7.70474 3.29262 7.75 3.52019 7.75 3.75C7.75 4.21413 7.56563 4.65925 7.23744 4.98744C6.90925 5.31563 6.46413 5.5 6 5.5C5.53587 5.5 5.09075 5.31563 4.76256 4.98744C4.43437 4.65925 4.25 4.21413 4.25 3.75ZM2.5 7.5H6.683C6.519 7.81 6.397 8.146 6.325 8.5H2.5C2.36739 8.5 2.24021 8.55268 2.14645 8.64645C2.05268 8.74021 2 8.86739 2 9V9.5C2 10.76 3.099 12.114 5.096 12.43C4.774 12.65 4.506 12.943 4.315 13.284C2.205 12.713 1 11.087 1 9.5V9C1 8.60218 1.15804 8.22064 1.43934 7.93934C1.72064 7.65804 2.10218 7.5 2.5 7.5ZM7.879 7.5C8.383 6.89 9.146 6.5 10 6.5C10.5989 6.49896 11.1816 6.69386 11.6594 7.05497C12.1371 7.41608 12.4836 7.92356 12.646 8.5C12.7907 9.0145 12.7826 9.56 12.6225 10.0699C12.4625 10.5799 12.1574 11.0322 11.7447 11.3717C11.3319 11.7112 10.8292 11.9232 10.298 11.9819C9.76673 12.0405 9.2299 11.9433 8.753 11.702C8.38581 11.5151 8.06531 11.2481 7.81518 10.9207C7.56504 10.5934 7.39166 10.2139 7.30785 9.81055C7.22405 9.40716 7.23195 8.99009 7.33098 8.59017C7.43001 8.19024 7.61664 7.81767 7.879 7.5ZM8.42 8.5C8.32151 8.70775 8.2649 8.93287 8.25341 9.1625C8.24192 9.39212 8.27577 9.62177 8.35303 9.83831C8.50906 10.2756 8.83243 10.6331 9.252 10.832C9.67157 11.0309 10.153 11.055 10.5903 10.899C11.0276 10.7429 11.3851 10.4196 11.584 10C11.7829 9.58029 11.807 9.09876 11.6508 8.66133C11.4947 8.22391 11.1712 7.86641 10.7515 7.6675C10.3318 7.46859 9.85026 7.44455 9.41283 7.60067C8.9754 7.7568 8.61791 8.0803 8.419 8.5M15.685 13.284C15.4949 12.9425 15.2274 12.6504 14.904 12.431C16.9 12.114 18 10.759 18 9.5V9C18 8.86739 17.9473 8.74021 17.8536 8.64645C17.7598 8.55268 17.6326 8.5 17.5 8.5H13.675C13.6047 8.15124 13.4845 7.81444 13.318 7.5H17.5C17.8978 7.5 18.2794 7.65804 18.5607 7.93934C18.842 8.22064 19 8.60218 19 9V9.5C19 11.087 17.794 12.712 15.685 13.284ZM14.487 13.371C14.2137 13.132 13.8631 13.0001 13.5 13H6.5C6.30287 12.9995 6.10758 13.0379 5.92535 13.1131C5.74312 13.1883 5.57756 13.2988 5.43816 13.4382C5.29877 13.5776 5.1883 13.7431 5.11311 13.9254C5.03791 14.1076 4.99947 14.3029 5 14.5V15C5 16.971 6.86 19 10 19C13.14 19 15 16.971 15 15V14.5C15 14.05 14.802 13.646 14.487 13.37M6 14.5C6 14.3674 6.05268 14.2402 6.14645 14.1464C6.24021 14.0527 6.36739 14 6.5 14H13.5C13.6326 14 13.7598 14.0527 13.8536 14.1464C13.9473 14.2402 14 14.3674 14 14.5V15C14 16.438 12.568 18 10 18C7.432 18 6 16.438 6 15V14.5ZM14 1C14.7293 1 15.4288 1.28973 15.9445 1.80546C16.4603 2.32118 16.75 3.02065 16.75 3.75C16.75 4.47935 16.4603 5.17882 15.9445 5.69454C15.4288 6.21027 14.7293 6.5 14 6.5C13.2707 6.5 12.5712 6.21027 12.0555 5.69454C11.5397 5.17882 11.25 4.47935 11.25 3.75C11.25 3.02065 11.5397 2.32118 12.0555 1.80546C12.5712 1.28973 13.2707 1 14 1ZM14 2C13.5359 2 13.0908 2.18437 12.7626 2.51256C12.4344 2.84075 12.25 3.28587 12.25 3.75C12.25 4.21413 12.4344 4.65925 12.7626 4.98744C13.0908 5.31563 13.5359 5.5 14 5.5C14.4641 5.5 14.9092 5.31563 15.2374 4.98744C15.5656 4.65925 15.75 4.21413 15.75 3.75C15.75 3.28587 15.5656 2.84075 15.2374 2.51256C14.9092 2.18437 14.4641 2 14 2Z" fill="#888888"/>
<path d="M6 1V0.8V1ZM3.25 3.75H3.05H3.25ZM6 6.5V6.7V6.5ZM6 2V1.8V2ZM7.75 3.75H7.95H7.75ZM6 5.5V5.7V5.5ZM2.5 7.5V7.3V7.5ZM6.683 7.5L6.85979 7.59352L7.01507 7.3H6.683V7.5ZM6.325 8.5V8.7H6.48842L6.52099 8.53986L6.325 8.5ZM2 9H1.8H2ZM5.096 12.43L5.20883 12.5951L5.6245 12.3111L5.12726 12.2325L5.096 12.43ZM4.315 13.284L4.26276 13.4771L4.41329 13.5178L4.48949 13.3817L4.315 13.284ZM1 9H0.8H1ZM7.879 7.5L7.72482 7.37261L7.72479 7.37264L7.879 7.5ZM10 6.5V6.7L10.0003 6.7L10 6.5ZM12.646 8.5L12.8385 8.44584L12.8385 8.44577L12.646 8.5ZM8.753 11.702L8.66228 11.8802L8.66271 11.8805L8.753 11.702ZM8.35303 9.83831L8.16466 9.90552L8.35303 9.83831ZM11.584 10L11.7647 10.0857L11.7647 10.0857L11.584 10ZM15.685 13.284L15.5103 13.3813L15.5863 13.518L15.7374 13.477L15.685 13.284ZM14.904 12.431L14.8726 12.2335L14.3734 12.3128L14.7917 12.5965L14.904 12.431ZM13.675 8.5L13.4789 8.53952L13.5113 8.7H13.675V8.5ZM13.318 7.5V7.3H12.9858L13.1412 7.59357L13.318 7.5ZM13.5 13L13.5001 12.8H13.5V13ZM6.5 13L6.49946 13.2H6.5V13ZM5 14.5H5.2L5.2 14.4995L5 14.5ZM14 1V0.8V1ZM14 6.5V6.7V6.5ZM14 2V1.8V2ZM12.25 3.75H12.45H12.25ZM14 5.5V5.3V5.5ZM15.75 3.75H15.55H15.75ZM8.95 3.75C8.95 2.96761 8.6392 2.21727 8.08597 1.66404L7.80312 1.94688C8.28134 2.4251 8.55 3.0737 8.55 3.75H8.95ZM8.08597 1.66404C7.53273 1.1108 6.78239 0.8 6 0.8V1.2C6.6763 1.2 7.3249 1.46866 7.80312 1.94688L8.08597 1.66404ZM6 0.8C5.21761 0.8 4.46727 1.1108 3.91403 1.66404L4.19688 1.94688C4.6751 1.46866 5.3237 1.2 6 1.2V0.8ZM3.91403 1.66404C3.3608 2.21727 3.05 2.96761 3.05 3.75H3.45C3.45 3.0737 3.71866 2.4251 4.19688 1.94688L3.91403 1.66404ZM3.05 3.75C3.05 4.53239 3.3608 5.28273 3.91403 5.83597L4.19688 5.55312C3.71866 5.0749 3.45 4.4263 3.45 3.75H3.05ZM3.91403 5.83597C4.46727 6.3892 5.21761 6.7 6 6.7V6.3C5.3237 6.3 4.6751 6.03134 4.19688 5.55312L3.91403 5.83597ZM6 6.7C6.78239 6.7 7.53273 6.3892 8.08597 5.83597L7.80312 5.55312C7.3249 6.03134 6.6763 6.3 6 6.3V6.7ZM8.08597 5.83597C8.6392 5.28273 8.95 4.53239 8.95 3.75H8.55C8.55 4.4263 8.28134 5.0749 7.80312 5.55312L8.08597 5.83597ZM4.45 3.75C4.45 3.54645 4.49009 3.3449 4.56799 3.15684L4.19843 3.00377C4.10044 3.24035 4.05 3.49392 4.05 3.75H4.45ZM4.56799 3.15684C4.64588 2.96879 4.76005 2.79792 4.90398 2.65398L4.62114 2.37114C4.44007 2.55222 4.29643 2.76718 4.19843 3.00377L4.56799 3.15684ZM4.90398 2.65398C5.04792 2.51005 5.21879 2.39588 5.40684 2.31799L5.25377 1.94844C5.01718 2.04643 4.80222 2.19007 4.62114 2.37114L4.90398 2.65398ZM5.40684 2.31799C5.5949 2.24009 5.79645 2.2 6 2.2V1.8C5.74392 1.8 5.49035 1.85044 5.25377 1.94844L5.40684 2.31799ZM6 2.2C6.20355 2.2 6.4051 2.24009 6.59316 2.31799L6.74623 1.94844C6.50965 1.85044 6.25608 1.8 6 1.8V2.2ZM6.59316 2.31799C6.78121 2.39588 6.95208 2.51005 7.09602 2.65398L7.37886 2.37114C7.19778 2.19007 6.98282 2.04643 6.74623 1.94844L6.59316 2.31799ZM7.09602 2.65398C7.23995 2.79792 7.35412 2.96879 7.43201 3.15684L7.80157 3.00377C7.70357 2.76718 7.55993 2.55222 7.37886 2.37114L7.09602 2.65398ZM7.43201 3.15684C7.50991 3.3449 7.55 3.54645 7.55 3.75H7.95C7.95 3.49392 7.89956 3.24035 7.80157 3.00377L7.43201 3.15684ZM7.55 3.75C7.55 4.16109 7.3867 4.55533 7.09602 4.84602L7.37886 5.12886C7.74455 4.76316 7.95 4.26717 7.95 3.75H7.55ZM7.09602 4.84602C6.80533 5.1367 6.41109 5.3 6 5.3V5.7C6.51717 5.7 7.01316 5.49455 7.37886 5.12886L7.09602 4.84602ZM6 5.3C5.58891 5.3 5.19467 5.1367 4.90398 4.84602L4.62114 5.12886C4.98684 5.49455 5.48283 5.7 6 5.7V5.3ZM4.90398 4.84602C4.6133 4.55533 4.45 4.16109 4.45 3.75H4.05C4.05 4.26717 4.25545 4.76316 4.62114 5.12886L4.90398 4.84602ZM2.5 7.7H6.683V7.3H2.5V7.7ZM6.50621 7.40648C6.33345 7.73305 6.20489 8.08709 6.12901 8.46014L6.52099 8.53986C6.58911 8.20491 6.70455 7.88695 6.85979 7.59352L6.50621 7.40648ZM6.325 8.3H2.5V8.7H6.325V8.3ZM2.5 8.3C2.31435 8.3 2.1363 8.37375 2.00503 8.50502L2.28787 8.78787C2.34413 8.73161 2.42043 8.7 2.5 8.7V8.3ZM2.00503 8.50502C1.87375 8.6363 1.8 8.81435 1.8 9H2.2C2.2 8.92043 2.23161 8.84413 2.28787 8.78787L2.00503 8.50502ZM1.8 9V9.5H2.2V9H1.8ZM1.8 9.5C1.8 10.8813 2.99503 12.3 5.06474 12.6275L5.12726 12.2325C3.20298 11.928 2.2 10.6387 2.2 9.5H1.8ZM4.98317 12.2649C4.63565 12.5023 4.34656 12.8184 4.14051 13.1863L4.48949 13.3817C4.66544 13.0676 4.91235 12.7977 5.20883 12.5951L4.98317 12.2649ZM4.36724 13.0909C2.3302 12.5397 1.2 10.9827 1.2 9.5H0.8C0.8 11.1913 2.0798 12.8863 4.26276 13.4771L4.36724 13.0909ZM1.2 9.5V9H0.8V9.5H1.2ZM1.2 9C1.2 8.65522 1.33696 8.32456 1.58076 8.08076L1.29792 7.79792C0.979107 8.11673 0.8 8.54913 0.8 9H1.2ZM1.58076 8.08076C1.82456 7.83696 2.15522 7.7 2.5 7.7V7.3C2.04913 7.3 1.61673 7.47911 1.29792 7.79792L1.58076 8.08076ZM8.03318 7.62739C8.50089 7.06131 9.20827 6.7 10 6.7V6.3C9.08373 6.3 8.26511 6.71869 7.72482 7.37261L8.03318 7.62739ZM10.0003 6.7C10.5556 6.69903 11.0959 6.87973 11.5388 7.21452L11.78 6.89542C11.2674 6.50799 10.6422 6.29888 9.99965 6.3L10.0003 6.7ZM11.5388 7.21452C11.9817 7.54931 12.303 8.01981 12.4535 8.55423L12.8385 8.44577C12.6643 7.82732 12.2925 7.28285 11.78 6.89542L11.5388 7.21452ZM12.4535 8.55416C12.5877 9.03128 12.5801 9.53715 12.4317 10.01L12.8133 10.1298C12.985 9.58285 12.9938 8.99771 12.8385 8.44584L12.4535 8.55416ZM12.4317 10.01C12.2833 10.4829 12.0004 10.9024 11.6176 11.2173L11.8717 11.5262C12.3145 11.162 12.6417 10.6768 12.8133 10.1298L12.4317 10.01ZM11.6176 11.2173C11.2348 11.5321 10.7687 11.7287 10.276 11.7831L10.3199 12.1807C10.8897 12.1178 11.4289 11.8904 11.8717 11.5262L11.6176 11.2173ZM10.276 11.7831C9.78337 11.8375 9.28555 11.7473 8.84329 11.5235L8.66271 11.8805C9.17426 12.1393 9.75008 12.2436 10.3199 12.1807L10.276 11.7831ZM8.84372 11.5238C8.50324 11.3505 8.20604 11.1029 7.9741 10.7993L7.65625 11.0422C7.92458 11.3934 8.26839 11.6798 8.66228 11.8802L8.84372 11.5238ZM7.9741 10.7993C7.74215 10.4957 7.58139 10.1439 7.50367 9.76987L7.11204 9.85124C7.20194 10.284 7.38793 10.691 7.65625 11.0422L7.9741 10.7993ZM7.50367 9.76987C7.42596 9.39582 7.43329 9.00908 7.52512 8.63824L7.13684 8.54209C7.03061 8.97111 7.02213 9.41851 7.11204 9.85124L7.50367 9.76987ZM7.52512 8.63824C7.61702 8.26711 7.79012 7.9217 8.03321 7.62736L7.72479 7.37264C7.44316 7.71365 7.24301 8.11337 7.13684 8.54209L7.52512 8.63824ZM8.23928 8.41432C8.12954 8.64581 8.06646 8.89664 8.05366 9.1525L8.45316 9.17249C8.46334 8.96909 8.51348 8.76969 8.60072 8.58568L8.23928 8.41432ZM8.05366 9.1525C8.04086 9.40836 8.07857 9.66424 8.16466 9.90552L8.5414 9.77111C8.47296 9.5793 8.44298 9.37589 8.45316 9.17249L8.05366 9.1525ZM8.16466 9.90552C8.33851 10.3928 8.69882 10.7911 9.16632 11.0127L9.33768 10.6513C8.96603 10.4751 8.6796 10.1585 8.5414 9.77111L8.16466 9.90552ZM9.16632 11.0127C9.63383 11.2344 10.1702 11.2612 10.6575 11.0873L10.5231 10.7106C10.1357 10.8488 9.70932 10.8275 9.33768 10.6513L9.16632 11.0127ZM10.6575 11.0873C11.1448 10.9135 11.5431 10.5532 11.7647 10.0857L11.4033 9.91432C11.2271 10.286 10.9105 10.5724 10.5231 10.7106L10.6575 11.0873ZM11.7647 10.0857C11.9864 9.61802 12.0131 9.08149 11.8392 8.59411L11.4625 8.72856C11.6008 9.11603 11.5795 9.54257 11.4033 9.91435L11.7647 10.0857ZM11.8392 8.59411C11.6652 8.10672 11.3048 7.7084 10.8372 7.48677L10.6658 7.84823C11.0376 8.02443 11.3242 8.34109 11.4625 8.72856L11.8392 8.59411ZM10.8372 7.48677C10.3695 7.26514 9.83299 7.23836 9.3456 7.41231L9.48006 7.78904C9.86753 7.65074 10.2941 7.67203 10.6658 7.84823L10.8372 7.48677ZM9.3456 7.41231C8.85822 7.58627 8.4599 7.94671 8.23827 8.41435L8.59973 8.58565C8.77593 8.21388 9.09259 7.92733 9.48006 7.78904L9.3456 7.41231ZM15.8597 13.1867C15.6545 12.8179 15.3656 12.5024 15.0163 12.2655L14.7917 12.5965C15.0893 12.7983 15.3354 13.0671 15.5103 13.3813L15.8597 13.1867ZM14.9354 12.6285C17.004 12.3 18.2 10.8803 18.2 9.5H17.8C17.8 10.6377 16.796 11.928 14.8726 12.2335L14.9354 12.6285ZM18.2 9.5V9H17.8V9.5H18.2ZM18.2 9C18.2 8.81435 18.1263 8.6363 17.995 8.50502L17.7121 8.78787C17.7684 8.84413 17.8 8.92043 17.8 9H18.2ZM17.995 8.50502C17.8637 8.37375 17.6857 8.3 17.5 8.3V8.7C17.5796 8.7 17.6559 8.73161 17.7121 8.78787L17.995 8.50502ZM17.5 8.3H13.675V8.7H17.5V8.3ZM13.8711 8.46048C13.797 8.09286 13.6702 7.73786 13.4948 7.40643L13.1412 7.59357C13.2987 7.89101 13.4124 8.20961 13.4789 8.53952L13.8711 8.46048ZM13.318 7.7H17.5V7.3H13.318V7.7ZM17.5 7.7C17.8448 7.7 18.1754 7.83696 18.4192 8.08076L18.7021 7.79792C18.3833 7.47911 17.9509 7.3 17.5 7.3V7.7ZM18.4192 8.08076C18.663 8.32456 18.8 8.65522 18.8 9H19.2C19.2 8.54913 19.0209 8.11673 18.7021 7.79792L18.4192 8.08076ZM18.8 9V9.5H19.2V9H18.8ZM18.8 9.5C18.8 10.9826 17.6689 12.5387 15.6326 13.091L15.7374 13.477C17.9191 12.8853 19.2 11.1914 19.2 9.5H18.8ZM14.6187 13.2205C14.309 12.9496 13.9115 12.8002 13.5001 12.8L13.4999 13.2C13.8146 13.2001 14.1185 13.3144 14.3553 13.5215L14.6187 13.2205ZM13.5 12.8H6.5V13.2H13.5V12.8ZM6.50054 12.8C6.27705 12.7994 6.05565 12.843 5.84906 12.9282L6.00164 13.298C6.15951 13.2328 6.32869 13.1995 6.49946 13.2L6.50054 12.8ZM5.84906 12.9282C5.64247 13.0135 5.45477 13.1387 5.29674 13.2967L5.57958 13.5796C5.70034 13.4588 5.84378 13.3631 6.00164 13.298L5.84906 12.9282ZM5.29674 13.2967C5.13871 13.4548 5.01348 13.6425 4.92823 13.8491L5.29798 14.0016C5.36313 13.8438 5.45883 13.7003 5.57958 13.5796L5.29674 13.2967ZM4.92823 13.8491C4.84298 14.0557 4.7994 14.2771 4.8 14.5005L5.2 14.4995C5.19954 14.3287 5.23284 14.1595 5.29798 14.0016L4.92823 13.8491ZM4.8 14.5V15H5.2V14.5H4.8ZM4.8 15C4.8 17.1049 6.77459 19.2 10 19.2V18.8C6.94541 18.8 5.2 16.8371 5.2 15H4.8ZM10 19.2C13.2254 19.2 15.2 17.1049 15.2 15H14.8C14.8 16.8371 13.0546 18.8 10 18.8V19.2ZM15.2 15V14.5H14.8V15H15.2ZM15.2 14.5C15.2 13.9899 14.9753 13.5319 14.6188 13.2196L14.3552 13.5204C14.6287 13.7601 14.8 14.1101 14.8 14.5H15.2ZM6.2 14.5C6.2 14.4204 6.23161 14.3441 6.28787 14.2879L6.00503 14.005C5.87375 14.1363 5.8 14.3143 5.8 14.5H6.2ZM6.28787 14.2879C6.34413 14.2316 6.42043 14.2 6.5 14.2V13.8C6.31435 13.8 6.1363 13.8737 6.00503 14.005L6.28787 14.2879ZM6.5 14.2H13.5V13.8H6.5V14.2ZM13.5 14.2C13.5796 14.2 13.6559 14.2316 13.7121 14.2879L13.995 14.005C13.8637 13.8737 13.6857 13.8 13.5 13.8V14.2ZM13.7121 14.2879C13.7684 14.3441 13.8 14.4204 13.8 14.5H14.2C14.2 14.3143 14.1263 14.1363 13.995 14.005L13.7121 14.2879ZM13.8 14.5V15H14.2V14.5H13.8ZM13.8 15C13.8 16.2963 12.4917 17.8 10 17.8V18.2C12.6443 18.2 14.2 16.5797 14.2 15H13.8ZM10 17.8C7.50833 17.8 6.2 16.2963 6.2 15H5.8C5.8 16.5797 7.35567 18.2 10 18.2V17.8ZM6.2 15V14.5H5.8V15H6.2ZM14 1.2C14.6763 1.2 15.3249 1.46866 15.8031 1.94688L16.086 1.66404C15.5327 1.1108 14.7824 0.8 14 0.8V1.2ZM15.8031 1.94688C16.2813 2.4251 16.55 3.0737 16.55 3.75H16.95C16.95 2.96761 16.6392 2.21727 16.086 1.66404L15.8031 1.94688ZM16.55 3.75C16.55 4.4263 16.2813 5.0749 15.8031 5.55312L16.086 5.83597C16.6392 5.28273 16.95 4.53239 16.95 3.75H16.55ZM15.8031 5.55312C15.3249 6.03134 14.6763 6.3 14 6.3V6.7C14.7824 6.7 15.5327 6.3892 16.086 5.83597L15.8031 5.55312ZM14 6.3C13.3237 6.3 12.6751 6.03134 12.1969 5.55312L11.914 5.83597C12.4673 6.3892 13.2176 6.7 14 6.7V6.3ZM12.1969 5.55312C11.7187 5.0749 11.45 4.4263 11.45 3.75H11.05C11.05 4.53239 11.3608 5.28273 11.914 5.83597L12.1969 5.55312ZM11.45 3.75C11.45 3.0737 11.7187 2.4251 12.1969 1.94688L11.914 1.66404C11.3608 2.21727 11.05 2.96761 11.05 3.75H11.45ZM12.1969 1.94688C12.6751 1.46866 13.3237 1.2 14 1.2V0.8C13.2176 0.8 12.4673 1.1108 11.914 1.66404L12.1969 1.94688ZM14 1.8C13.4828 1.8 12.9868 2.00545 12.6211 2.37114L12.904 2.65398C13.1947 2.3633 13.5889 2.2 14 2.2V1.8ZM12.6211 2.37114C12.2554 2.73684 12.05 3.23283 12.05 3.75H12.45C12.45 3.33891 12.6133 2.94467 12.904 2.65398L12.6211 2.37114ZM12.05 3.75C12.05 4.26717 12.2554 4.76316 12.6211 5.12886L12.904 4.84602C12.6133 4.55533 12.45 4.16109 12.45 3.75H12.05ZM12.6211 5.12886C12.9868 5.49455 13.4828 5.7 14 5.7V5.3C13.5889 5.3 13.1947 5.1367 12.904 4.84602L12.6211 5.12886ZM14 5.7C14.5172 5.7 15.0132 5.49455 15.3789 5.12886L15.096 4.84602C14.8053 5.1367 14.4111 5.3 14 5.3V5.7ZM15.3789 5.12886C15.7446 4.76316 15.95 4.26717 15.95 3.75H15.55C15.55 4.16109 15.3867 4.55533 15.096 4.84602L15.3789 5.12886ZM15.95 3.75C15.95 3.23283 15.7446 2.73684 15.3789 2.37114L15.096 2.65398C15.3867 2.94467 15.55 3.33891 15.55 3.75H15.95ZM15.3789 2.37114C15.0132 2.00545 14.5172 1.8 14 1.8V2.2C14.4111 2.2 14.8053 2.3633 15.096 2.65398L15.3789 2.37114Z" fill="#888888" mask="url(#path-1-outside-1_713_1122)"/>
</svg>
