<svg width="20" height="20" viewBox="0 0 20 20" fill="none" xmlns="http://www.w3.org/2000/svg">
<path d="M1.75006 8.525C1.55113 8.525 1.36035 8.44598 1.21969 8.30532C1.07902 8.16465 1 7.97387 1 7.77494V1.77594C1 1.57701 1.07902 1.38623 1.21969 1.24557C1.36035 1.1049 1.55113 1.02588 1.75006 1.02588H7.75056C7.94949 1.02588 8.14027 1.1049 8.28094 1.24557C8.4216 1.38623 8.50062 1.57701 8.50062 1.77594V7.77494C8.50062 7.97387 8.4216 8.16465 8.28094 8.30532C8.14027 8.44598 7.94949 8.525 7.75056 8.525H1.75006ZM12.2509 8.525C12.052 8.525 11.8612 8.44598 11.7206 8.30532C11.5799 8.16465 11.5009 7.97387 11.5009 7.77494V1.77594C11.5009 1.57701 11.5799 1.38623 11.7206 1.24557C11.8612 1.1049 12.052 1.02588 12.2509 1.02588H18.2499C18.4489 1.02588 18.6396 1.1049 18.7803 1.24557C18.921 1.38623 19 1.57701 19 1.77594V7.77494C19 7.97387 18.921 8.16465 18.7803 8.30532C18.6396 8.44598 18.4489 8.525 18.2499 8.525H12.2509ZM1.75006 19.0259C1.55113 19.0259 1.36035 18.9469 1.21969 18.8062C1.07902 18.6655 1 18.4747 1 18.2758V12.2753C1 12.0764 1.07902 11.8856 1.21969 11.7449C1.36035 11.6043 1.55113 11.5253 1.75006 11.5253H7.75056C7.94949 11.5253 8.14027 11.6043 8.28094 11.7449C8.4216 11.8856 8.50062 12.0764 8.50062 12.2753V18.2758C8.50062 18.4747 8.4216 18.6655 8.28094 18.8062C8.14027 18.9469 7.94949 19.0259 7.75056 19.0259H1.75006ZM12.2509 19.0259C12.052 19.0259 11.8612 18.9469 11.7206 18.8062C11.5799 18.6655 11.5009 18.4747 11.5009 18.2758V12.2753C11.5009 12.0764 11.5799 11.8856 11.7206 11.7449C11.8612 11.6043 12.052 11.5253 12.2509 11.5253H18.2499C18.4489 11.5253 18.6396 11.6043 18.7803 11.7449C18.921 11.8856 19 12.0764 19 12.2753V18.2758C19 18.4747 18.921 18.6655 18.7803 18.8062C18.6396 18.9469 18.4489 19.0259 18.2499 19.0259H12.2509Z" stroke="#888888" stroke-width="1.4"/>
</svg>
