<svg width="21" height="21" viewBox="0 0 21 21" fill="none" xmlns="http://www.w3.org/2000/svg">
<path d="M13.6667 19.999H7.33333M13.6667 19.999V11.1323C13.6667 10.9643 13.5999 10.8033 13.4812 10.6845C13.3624 10.5657 13.2013 10.499 13.0333 10.499H7.96667C7.7987 10.499 7.63761 10.5657 7.51883 10.6845C7.40006 10.8033 7.33333 10.9643 7.33333 11.1323V19.999M13.6667 19.999H19.3667C19.5346 19.999 19.6957 19.9323 19.8145 19.8135C19.9333 19.6947 20 19.5336 20 19.3657V16.9379C20 16.7699 19.9333 16.6088 19.8145 16.49C19.6957 16.3713 19.5346 16.3045 19.3667 16.3045H14.3C14.132 16.3045 13.9709 16.3713 13.8522 16.49C13.7334 16.6088 13.6667 16.7699 13.6667 16.9379V19.999ZM7.33333 19.999V14.8268C7.33333 14.6588 7.26661 14.4977 7.14783 14.3789C7.02906 14.2602 6.86797 14.1934 6.7 14.1934H1.63333C1.46536 14.1934 1.30427 14.2602 1.1855 14.3789C1.06673 14.4977 1 14.6588 1 14.8268V19.3657C1 19.5336 1.06673 19.6947 1.1855 19.8135C1.30427 19.9323 1.46536 19.999 1.63333 19.999H7.33333ZM9.23967 3.22937L10.1992 1.19532C10.2251 1.13717 10.2673 1.08778 10.3207 1.05311C10.3741 1.01845 10.4363 1 10.5 1C10.5637 1 10.6259 1.01845 10.6793 1.05311C10.7327 1.08778 10.7749 1.13717 10.8008 1.19532L11.7614 3.22937L13.9063 3.55765C14.1818 3.59987 14.2916 3.95454 14.0921 4.15721L12.5404 5.74054L12.9067 7.97621C12.9531 8.26332 12.666 8.48288 12.419 8.34671L10.5 7.29115L8.581 8.34671C8.33506 8.48182 8.04689 8.26332 8.09333 7.97621L8.45961 5.74054L6.90794 4.15721C6.70739 3.95454 6.81822 3.59987 7.09267 3.55765L9.23967 3.22937Z" stroke="#888888" stroke-linecap="round" stroke-linejoin="round"/>
</svg>
