<svg width="18" height="19" viewBox="0 0 18 19" fill="none" xmlns="http://www.w3.org/2000/svg">
<path d="M10.8285 0C10.9682 4.40089e-06 11.1042 0.044333 11.2171 0.126602C11.3299 0.208871 11.4138 0.324834 11.4565 0.457791L12.1821 2.71245C12.4869 2.86153 12.7784 3.02907 13.0568 3.21773L15.3735 2.71904C15.5101 2.68988 15.6524 2.70483 15.7799 2.76173C15.9075 2.81863 16.0137 2.91455 16.0832 3.03567L17.9118 6.20063C17.9816 6.32168 18.0112 6.46178 17.9962 6.60073C17.9813 6.73968 17.9226 6.87029 17.8286 6.97373L16.2389 8.72838C16.2621 9.06484 16.2621 9.40249 16.2389 9.73895L17.8286 11.4962C17.9226 11.5997 17.9813 11.7303 17.9962 11.8692C18.0112 12.0082 17.9816 12.1483 17.9118 12.2693L16.0832 15.4356C16.0135 15.5565 15.9072 15.6521 15.7797 15.7088C15.6521 15.7655 15.5099 15.7802 15.3735 15.7509L13.0568 15.2522C12.7797 15.4396 12.4869 15.6084 12.1834 15.7575L11.4565 18.0122C11.4138 18.1451 11.3299 18.2611 11.2171 18.3434C11.1042 18.4256 10.9682 18.47 10.8285 18.47H7.17147C7.03182 18.47 6.89577 18.4256 6.78291 18.3434C6.67006 18.2611 6.58623 18.1451 6.54349 18.0122L5.81921 15.7588C5.51528 15.6102 5.22213 15.4405 4.94188 15.2509L2.62654 15.7509C2.48995 15.7801 2.34763 15.7651 2.22007 15.7082C2.09252 15.6513 1.98632 15.5554 1.91677 15.4343L0.0882411 12.2693C0.0184174 12.1483 -0.0111578 12.0082 0.00378007 11.8692C0.0187179 11.7303 0.0773968 11.5997 0.171356 11.4962L1.76109 9.73895C1.73806 9.40337 1.73806 9.0666 1.76109 8.73102L0.171356 6.97373C0.0773968 6.87029 0.0187179 6.73968 0.00378007 6.60073C-0.0111578 6.46178 0.0184174 6.32168 0.0882411 6.20063L1.91677 3.03435C1.98651 2.91347 2.09279 2.81782 2.22033 2.76117C2.34787 2.70451 2.49009 2.68976 2.62654 2.71904L4.94188 3.21905C5.22157 3.03039 5.51445 2.86021 5.81921 2.71113L6.54481 0.457791C6.58741 0.325262 6.67084 0.209606 6.78317 0.127377C6.89549 0.0451477 7.03095 0.000561576 7.17015 0H10.8272H10.8285ZM10.3457 1.31928H7.65433L6.90498 3.65046L6.39969 3.89716C6.15129 4.01871 5.9115 4.15712 5.682 4.31142L5.21498 4.62805L2.81916 4.11089L1.47349 6.44338L3.116 8.26135L3.07642 8.82073C3.05745 9.09657 3.05745 9.37339 3.07642 9.64924L3.116 10.2086L1.47085 12.0266L2.81784 14.3591L5.21366 13.8432L5.68068 14.1585C5.91018 14.3128 6.14997 14.4513 6.39837 14.5728L6.90366 14.8195L7.65433 17.1507H10.3483L11.1003 14.8182L11.6043 14.5728C11.8524 14.4515 12.0918 14.3131 12.3206 14.1585L12.7863 13.8432L15.1835 14.3591L16.5292 12.0266L14.8853 10.2086L14.9249 9.64924C14.9439 9.37296 14.9439 9.09569 14.9249 8.81941L14.8853 8.26003L16.5305 6.44338L15.1835 4.11089L12.7863 4.62541L12.3206 4.31142C12.0918 4.15684 11.8524 4.01842 11.6043 3.89716L11.1003 3.65178L10.347 1.31928H10.3457ZM9 5.27713C10.0497 5.27713 11.0564 5.69412 11.7986 6.43636C12.5409 7.1786 12.9579 8.1853 12.9579 9.23498C12.9579 10.2847 12.5409 11.2914 11.7986 12.0336C11.0564 12.7758 10.0497 13.1928 9 13.1928C7.95031 13.1928 6.94362 12.7758 6.20138 12.0336C5.45914 11.2914 5.04215 10.2847 5.04215 9.23498C5.04215 8.1853 5.45914 7.1786 6.20138 6.43636C6.94362 5.69412 7.95031 5.27713 9 5.27713ZM9 6.59642C8.30021 6.59642 7.62908 6.87441 7.13425 7.36924C6.63942 7.86406 6.36143 8.53519 6.36143 9.23498C6.36143 9.93477 6.63942 10.6059 7.13425 11.1007C7.62908 11.5956 8.30021 11.8736 9 11.8736C9.69979 11.8736 10.3709 11.5956 10.8657 11.1007C11.3606 10.6059 11.6386 9.93477 11.6386 9.23498C11.6386 8.53519 11.3606 7.86406 10.8657 7.36924C10.3709 6.87441 9.69979 6.59642 9 6.59642Z" fill="#888888"/>
</svg>
