<svg width="48" height="48" viewBox="0 0 48 48" fill="none" xmlns="http://www.w3.org/2000/svg">
<rect x="0.5" y="0.5" width="47" height="47" rx="23.5" fill="url(#paint0_linear_1110_269)"/>
<rect x="0.5" y="0.5" width="47" height="47" rx="23.5" stroke="#1D1D1F"/>
<path d="M17.3891 16.2626C17.5436 16.4173 17.6303 16.627 17.6303 16.8456C17.6303 17.0643 17.5436 17.274 17.3891 17.4287C16.5207 18.297 15.8319 19.3278 15.362 20.4623C14.8921 21.5968 14.6502 22.8128 14.6502 24.0407C14.6502 25.2687 14.8921 26.4847 15.362 27.6192C15.8319 28.7537 16.5207 29.7845 17.3891 30.6528C17.5393 30.8085 17.6223 31.0169 17.6204 31.2332C17.6184 31.4496 17.5315 31.6565 17.3785 31.8094C17.2254 31.9623 17.0184 32.0489 16.8021 32.0507C16.5858 32.0525 16.3774 31.9692 16.2219 31.8189C11.926 27.523 11.926 20.5584 16.2219 16.2626C16.3766 16.1081 16.5863 16.0213 16.8049 16.0213C17.0236 16.0213 17.2344 16.1081 17.3891 16.2626ZM31.7781 16.2626C36.074 20.5584 36.074 27.5241 31.7781 31.82C31.6217 31.9657 31.4149 32.045 31.2011 32.0413C30.9874 32.0375 30.7834 31.9509 30.6323 31.7997C30.4811 31.6486 30.3945 31.4446 30.3907 31.2309C30.387 31.0171 30.4663 30.8103 30.612 30.6539C31.4805 29.7856 32.1695 28.7547 32.6395 27.6201C33.1095 26.4855 33.3515 25.2694 33.3515 24.0413C33.3515 22.8132 33.1095 21.5971 32.6395 20.4625C32.1695 19.3279 31.4805 18.297 30.612 17.4287C30.531 17.3532 30.466 17.2621 30.4209 17.1609C30.3758 17.0597 30.3515 16.9504 30.3496 16.8396C30.3476 16.7288 30.368 16.6188 30.4095 16.5161C30.451 16.4133 30.5128 16.32 30.5911 16.2417C30.6694 16.1633 30.7628 16.1015 30.8655 16.06C30.9682 16.0186 31.0783 15.9982 31.1891 16.0001C31.2998 16.0021 31.4091 16.0263 31.5103 16.0714C31.6115 16.1165 31.7026 16.1815 31.7781 16.2626ZM20.5001 19.3736C20.6546 19.5283 20.7414 19.738 20.7414 19.9567C20.7414 20.1753 20.6546 20.385 20.5001 20.5397C20.0402 20.9994 19.6754 21.5452 19.4266 22.1459C19.1777 22.7466 19.0496 23.3905 19.0496 24.0407C19.0496 24.691 19.1777 25.3348 19.4266 25.9355C19.6754 26.5362 20.0402 27.082 20.5001 27.5417C20.6458 27.6981 20.7252 27.905 20.7214 28.1188C20.7176 28.3325 20.631 28.5364 20.4799 28.6876C20.3287 28.8388 20.1248 28.9254 19.911 28.9291C19.6973 28.9329 19.4904 28.8536 19.334 28.7078C18.0963 27.47 17.4009 25.7912 17.4009 24.0407C17.4009 22.2902 18.0963 20.6115 19.334 19.3736C19.4887 19.2191 19.6984 19.1323 19.917 19.1323C20.1357 19.1323 20.3454 19.2191 20.5001 19.3736ZM28.6682 19.3736C29.9059 20.6115 30.6013 22.2902 30.6013 24.0407C30.6013 25.7912 29.9059 27.47 28.6682 28.7078C28.5921 28.7867 28.5011 28.8496 28.4005 28.8929C28.2998 28.9361 28.1916 28.959 28.082 28.96C27.9725 28.961 27.8638 28.9401 27.7624 28.8987C27.661 28.8573 27.5688 28.796 27.4913 28.7186C27.4138 28.6412 27.3525 28.5491 27.311 28.4477C27.2695 28.3463 27.2485 28.2377 27.2494 28.1282C27.2503 28.0186 27.2731 27.9103 27.3162 27.8096C27.3594 27.709 27.4222 27.6179 27.501 27.5417C27.9607 27.0821 28.3254 26.5363 28.5741 25.9357C28.8229 25.3351 28.951 24.6914 28.951 24.0413C28.951 23.3912 28.8229 22.7475 28.5741 22.1468C28.3254 21.5462 27.9607 21.0005 27.501 20.5408C27.3553 20.3844 27.2759 20.1775 27.2797 19.9638C27.2835 19.7501 27.3701 19.5461 27.5212 19.395C27.6724 19.2438 27.8763 19.1572 28.0901 19.1534C28.3038 19.1497 28.5107 19.229 28.6671 19.3747M24.0006 22.3912C24.4382 22.3912 24.8579 22.565 25.1674 22.8745C25.4768 23.1839 25.6507 23.6036 25.6507 24.0413C25.6507 24.4789 25.4768 24.8986 25.1674 25.2081C24.8579 25.5176 24.4382 25.6914 24.0006 25.6914C23.5629 25.6914 23.1432 25.5176 22.8337 25.2081C22.5243 24.8986 22.3504 24.4789 22.3504 24.0413C22.3504 23.6036 22.5243 23.1839 22.8337 22.8745C23.1432 22.565 23.5629 22.3912 24.0006 22.3912Z" fill="#4C4C4C"/>
<defs>
<linearGradient id="paint0_linear_1110_269" x1="-8.8413e-07" y1="0.827587" x2="48" y2="41.3793" gradientUnits="userSpaceOnUse">
<stop stop-color="#E0E0E0"/>
<stop offset="0.636102" stop-color="#B2B2B2" stop-opacity="0"/>
</linearGradient>
</defs>
</svg>
