<svg width="48" height="48" viewBox="0 0 48 48" fill="none" xmlns="http://www.w3.org/2000/svg">
<rect x="0.5" y="0.5" width="47" height="47" rx="23.5" fill="url(#paint0_linear_1110_285)"/>
<rect x="0.5" y="0.5" width="47" height="47" rx="23.5" stroke="#1D1D1F"/>
<path d="M25.2692 29.5C25.2692 29.751 25.1948 29.9964 25.0553 30.2051C24.9159 30.4139 24.7176 30.5765 24.4857 30.6726C24.2538 30.7687 23.9986 30.7938 23.7524 30.7448C23.5062 30.6959 23.28 30.575 23.1025 30.3975C22.925 30.22 22.8041 29.9938 22.7552 29.7476C22.7062 29.5014 22.7313 29.2462 22.8274 29.0143C22.9235 28.7824 23.0861 28.5841 23.2949 28.4447C23.5036 28.3052 23.749 28.2308 24 28.2308C24.3366 28.2308 24.6595 28.3645 24.8975 28.6025C25.1355 28.8405 25.2692 29.1634 25.2692 29.5ZM24 18.0769C21.6667 18.0769 19.7692 19.7851 19.7692 21.8846V22.3077C19.7692 22.5321 19.8584 22.7473 20.0171 22.906C20.1758 23.0647 20.391 23.1538 20.6154 23.1538C20.8398 23.1538 21.055 23.0647 21.2137 22.906C21.3724 22.7473 21.4615 22.5321 21.4615 22.3077V21.8846C21.4615 20.7212 22.6007 19.7692 24 19.7692C25.3993 19.7692 26.5385 20.7212 26.5385 21.8846C26.5385 23.0481 25.3993 24 24 24C23.7756 24 23.5604 24.0891 23.4017 24.2478C23.243 24.4065 23.1538 24.6217 23.1538 24.8462V25.6923C23.1538 25.9167 23.243 26.1319 23.4017 26.2906C23.5604 26.4493 23.7756 26.5385 24 26.5385C24.2244 26.5385 24.4396 26.4493 24.5983 26.2906C24.757 26.1319 24.8462 25.9167 24.8462 25.6923V25.6162C26.7754 25.2618 28.2308 23.7229 28.2308 21.8846C28.2308 19.7851 26.3333 18.0769 24 18.0769ZM35 24C35 26.1756 34.3549 28.3023 33.1462 30.1113C31.9375 31.9202 30.2195 33.3301 28.2095 34.1627C26.1995 34.9952 23.9878 35.2131 21.854 34.7886C19.7202 34.3642 17.7602 33.3165 16.2218 31.7782C14.6835 30.2398 13.6358 28.2798 13.2114 26.146C12.7869 24.0122 13.0048 21.8005 13.8373 19.7905C14.6699 17.7805 16.0798 16.0625 17.8887 14.8538C19.6977 13.6451 21.8244 13 24 13C26.9164 13.0031 29.7125 14.163 31.7748 16.2252C33.837 18.2875 34.9969 21.0836 35 24ZM33.3077 24C33.3077 22.1591 32.7618 20.3596 31.7391 18.8289C30.7163 17.2983 29.2627 16.1053 27.5619 15.4008C25.8611 14.6963 23.9897 14.512 22.1842 14.8712C20.3786 15.2303 18.7202 16.1168 17.4185 17.4185C16.1168 18.7202 15.2303 20.3786 14.8712 22.1842C14.512 23.9897 14.6963 25.8611 15.4008 27.5619C16.1053 29.2627 17.2983 30.7163 18.8289 31.7391C20.3596 32.7618 22.1591 33.3077 24 33.3077C26.4677 33.3049 28.8335 32.3234 30.5784 30.5784C32.3234 28.8335 33.3049 26.4677 33.3077 24Z" fill="#4C4C4C"/>
<defs>
<linearGradient id="paint0_linear_1110_285" x1="-8.8413e-07" y1="0.827587" x2="48" y2="41.3793" gradientUnits="userSpaceOnUse">
<stop stop-color="#E0E0E0"/>
<stop offset="0.636102" stop-color="#B2B2B2" stop-opacity="0"/>
</linearGradient>
</defs>
</svg>
