<svg width="48" height="48" viewBox="0 0 48 48" fill="none" xmlns="http://www.w3.org/2000/svg">
<rect x="0.5" y="0.5" width="47" height="47" rx="23.5" fill="url(#paint0_linear_1110_292)"/>
<rect x="0.5" y="0.5" width="47" height="47" rx="23.5" stroke="#1D1D1F"/>
<path d="M18.133 20.5996C18.5663 20.5996 18.9954 20.5142 19.3958 20.3484C19.7961 20.1826 20.1599 19.9395 20.4663 19.6331C20.7727 19.3267 21.0158 18.9629 21.1816 18.5626C21.3474 18.1622 21.4328 17.7331 21.4328 17.2998C21.4328 16.8664 21.3474 16.4374 21.1816 16.037C21.0158 15.6367 20.7727 15.2729 20.4663 14.9665C20.1599 14.6601 19.7961 14.417 19.3958 14.2512C18.9954 14.0854 18.5663 14 18.133 14C17.2578 14 16.4185 14.3477 15.7997 14.9665C15.1809 15.5853 14.8332 16.4246 14.8332 17.2998C14.8332 18.1749 15.1809 19.0142 15.7997 19.6331C16.4185 20.2519 17.2578 20.5996 18.133 20.5996ZM18.133 19.133C17.6468 19.133 17.1805 18.9399 16.8367 18.5961C16.4929 18.2523 16.2998 17.786 16.2998 17.2998C16.2998 16.8136 16.4929 16.3473 16.8367 16.0035C17.1805 15.6597 17.6468 15.4666 18.133 15.4666C18.6192 15.4666 19.0855 15.6597 19.4293 16.0035C19.7731 16.3473 19.9662 16.8136 19.9662 17.2998C19.9662 17.786 19.7731 18.2523 19.4293 18.5961C19.0855 18.9399 18.6192 19.133 18.133 19.133ZM13 22.7994C13 22.4105 13.1545 22.0374 13.4295 21.7624C13.7046 21.4874 14.0776 21.3328 14.4666 21.3328H21.7994C22.1884 21.3328 22.5614 21.4874 22.8364 21.7624C23.1115 22.0374 23.266 22.4105 23.266 22.7994V29.399C23.266 30.073 23.1332 30.7405 22.8753 31.3633C22.6173 31.986 22.2392 32.5519 21.7626 33.0285C21.2859 33.5052 20.7201 33.8833 20.0973 34.1412C19.4745 34.3992 18.8071 34.532 18.133 34.532C17.4589 34.532 16.7914 34.3992 16.1687 34.1412C15.5459 33.8833 14.9801 33.5052 14.5034 33.0285C14.0268 32.5519 13.6487 31.986 13.3907 31.3633C13.1328 30.7405 13 30.073 13 29.399V22.7994ZM14.4666 22.7994V29.399C14.4666 30.3714 14.8529 31.3039 15.5404 31.9915C16.228 32.6791 17.1606 33.0654 18.133 33.0654C19.1054 33.0654 20.038 32.6791 20.7255 31.9915C21.4131 31.3039 21.7994 30.3714 21.7994 29.399V22.7994H14.4666ZM22.7175 18.6094C22.5889 19.0614 22.3931 19.4915 22.1367 19.8853C22.7424 19.9557 23.2909 20.208 23.7265 20.5893C23.8155 20.5952 23.9064 20.5986 23.9993 20.5996C24.5192 20.5995 25.0317 20.4766 25.4951 20.2409C25.9585 20.0052 26.3597 19.6633 26.6659 19.2431C26.9721 18.8229 27.1746 18.3363 27.2571 17.823C27.3395 17.3097 27.2995 16.7841 27.1402 16.2892C26.981 15.7942 26.7071 15.3439 26.3408 14.975C25.9745 14.606 25.5262 14.3288 25.0324 14.166C24.5387 14.0032 24.0134 13.9593 23.4995 14.038C22.9856 14.1167 22.4975 14.3158 22.0751 14.6189C22.3567 15.0339 22.5752 15.4959 22.7175 15.9901C22.9754 15.7378 23.3021 15.5671 23.6566 15.4997C24.0111 15.4322 24.3777 15.4708 24.7103 15.6107C25.0429 15.7506 25.3269 15.9856 25.5265 16.2862C25.7262 16.5868 25.8327 16.9396 25.8327 17.3005C25.8327 17.6614 25.7262 18.0142 25.5265 18.3148C25.3269 18.6154 25.0429 18.8504 24.7103 18.9903C24.3777 19.1302 24.0111 19.1689 23.6566 19.1014C23.3021 19.0339 22.9754 18.8618 22.7175 18.6094ZM22.5312 34.3208C23.2977 34.5495 24.107 34.596 24.8946 34.4565C25.6822 34.317 26.4263 33.9954 27.0675 33.5172C27.7087 33.0391 28.2294 32.4178 28.5878 31.7028C28.9463 30.9877 29.1328 30.1988 29.1323 29.399V22.7994C29.1323 22.4105 28.9777 22.0374 28.7027 21.7624C28.4277 21.4874 28.0546 21.3328 27.6657 21.3328H24.341C24.5903 21.764 24.734 22.2656 24.734 22.7994H27.6672V29.399C27.6673 29.9114 27.5599 30.4182 27.3521 30.8867C27.1443 31.3551 26.8406 31.7748 26.4605 32.1186C26.0805 32.4624 25.6326 32.7227 25.1458 32.8828C24.659 33.0428 24.144 33.099 23.6341 33.0478C23.3202 33.5191 22.9536 33.9429 22.5342 34.3193M28.5867 18.6094C28.4581 19.0614 28.2623 19.4915 28.0059 19.8853C28.6116 19.9557 29.1601 20.208 29.5957 20.5893C29.6847 20.5952 29.7756 20.5986 29.8685 20.5996C30.3884 20.5995 30.9009 20.4766 31.3643 20.2409C31.8277 20.0052 32.2289 19.6633 32.5351 19.2431C32.8413 18.8229 33.0438 18.3363 33.1263 17.823C33.2087 17.3097 33.1687 16.7841 33.0094 16.2892C32.8502 15.7942 32.5763 15.3439 32.21 14.975C31.8437 14.606 31.3954 14.3288 30.9016 14.166C30.4079 14.0032 29.8826 13.9593 29.3687 14.038C28.8548 14.1167 28.3667 14.3158 27.9443 14.6189C28.2259 15.0339 28.4444 15.4959 28.5867 15.9901C28.8446 15.7378 29.1713 15.5671 29.5258 15.4997C29.8803 15.4322 30.2469 15.4708 30.5795 15.6107C30.9121 15.7506 31.1961 15.9856 31.3958 16.2862C31.5954 16.5868 31.7019 16.9396 31.7019 17.3005C31.7019 17.6614 31.5954 18.0142 31.3958 18.3148C31.1961 18.6154 30.9121 18.8504 30.5795 18.9903C30.2469 19.1302 29.8803 19.1689 29.5258 19.1014C29.1713 19.0339 28.8446 18.8618 28.5867 18.6094ZM28.4004 34.3208C28.8678 34.4606 29.3566 34.5315 29.867 34.5334C31.2284 34.5334 32.534 33.9926 33.4966 33.03C34.4592 32.0674 35 30.7618 35 29.4004V22.7994C35 22.4105 34.8455 22.0374 34.5705 21.7624C34.2954 21.4874 33.9224 21.3328 33.5334 21.3328H30.2087C30.458 21.764 30.6018 22.2656 30.6018 22.7994H33.5349V29.399C33.535 29.9114 33.4277 30.4182 33.2199 30.8867C33.012 31.3551 32.7083 31.7748 32.3283 32.1186C31.9483 32.4624 31.5004 32.7227 31.0135 32.8828C30.5267 33.0428 30.0117 33.099 29.5018 33.0478C29.188 33.5191 28.8213 33.9429 28.4019 34.3193" fill="#4C4C4C"/>
<defs>
<linearGradient id="paint0_linear_1110_292" x1="-8.8413e-07" y1="0.827587" x2="48" y2="41.3793" gradientUnits="userSpaceOnUse">
<stop stop-color="#E0E0E0"/>
<stop offset="0.636102" stop-color="#B2B2B2" stop-opacity="0"/>
</linearGradient>
</defs>
</svg>
