<svg width="48" height="48" viewBox="0 0 48 48" fill="none" xmlns="http://www.w3.org/2000/svg">
<rect x="0.5" y="0.5" width="47" height="47" rx="23.5" fill="url(#paint0_linear_1110_299)"/>
<rect x="0.5" y="0.5" width="47" height="47" rx="23.5" stroke="#1D1D1F"/>
<path d="M33.4902 19.2867H29.0406C29.2689 19.1375 29.4853 18.9694 29.6876 18.7839C29.9928 18.501 30.2385 18.1556 30.4096 17.7694C30.5807 17.3832 30.6734 16.9644 30.682 16.5392C30.6952 16.0714 30.6165 15.6058 30.4508 15.1708C30.2851 14.7358 30.0358 14.3406 29.7181 14.0094C29.4005 13.6782 29.0212 13.4179 28.6036 13.2446C28.1859 13.0713 27.7387 12.9885 27.2892 13.0014C26.8807 13.0103 26.4783 13.1068 26.1072 13.2849C25.736 13.4629 25.4042 13.7187 25.1324 14.0363C24.6328 14.6498 24.2487 15.3557 24 16.1171C23.7519 15.3563 23.3685 14.6508 22.8698 14.0374C22.5978 13.7194 22.2657 13.4632 21.8942 13.2849C21.5226 13.1067 21.1198 13.0102 20.7108 13.0014C20.2611 12.9879 19.8134 13.0702 19.3953 13.2432C18.9773 13.4161 18.5975 13.6762 18.2794 14.0073C17.9614 14.3385 17.7116 14.7337 17.5456 15.1689C17.3795 15.6041 17.3006 16.07 17.3137 16.538C17.3223 16.9632 17.415 17.382 17.5861 17.7683C17.7572 18.1545 18.0029 18.4999 18.308 18.7828C18.5102 18.9684 18.7266 19.1366 18.9551 19.2856H14.5098C14.3114 19.2856 14.115 19.3263 13.9318 19.4053C13.7485 19.4844 13.582 19.6002 13.4418 19.7462C13.3016 19.8923 13.1904 20.0656 13.1146 20.2564C13.0388 20.4472 12.9999 20.6516 13 20.8581V24.4497C13 24.8664 13.1591 25.2661 13.4422 25.5608C13.7254 25.8554 14.1094 26.021 14.5098 26.021H14.7255V33.4287C14.7255 33.8454 14.8846 34.2451 15.1677 34.5398C15.4508 34.8344 15.8349 35 16.2353 35H31.7647C32.1651 35 32.5492 34.8344 32.8323 34.5398C33.1154 34.2451 33.2745 33.8454 33.2745 33.4287V26.021H33.4902C33.8906 26.021 34.2746 25.8554 34.5578 25.5608C34.8409 25.2661 35 24.8664 35 24.4497V20.8581C35 20.4413 34.8409 20.0416 34.5578 19.747C34.2746 19.4523 33.8906 19.2867 33.4902 19.2867ZM24.8379 18.0521C25.0806 16.6918 25.5163 15.611 26.0986 14.9263C26.2545 14.7473 26.444 14.6036 26.6556 14.5042C26.8671 14.4047 27.096 14.3517 27.328 14.3483H27.3874C27.6557 14.3483 27.9212 14.4044 28.1683 14.5131C28.4154 14.6219 28.6391 14.7811 28.826 14.9814C29.0129 15.1817 29.1594 15.419 29.2566 15.6792C29.3539 15.9395 29.3999 16.2174 29.3922 16.4965C29.3885 16.7383 29.337 16.9767 29.2409 17.1968C29.1448 17.417 29.0061 17.6141 28.8335 17.776C27.6775 18.8378 25.7169 19.1554 24.6837 19.2475C24.7107 18.9231 24.7549 18.5101 24.8379 18.0521ZM19.1956 14.96C19.5721 14.5698 20.0813 14.3499 20.6126 14.3483H20.672C20.9043 14.3521 21.1333 14.4057 21.3448 14.5057C21.5564 14.6057 21.7458 14.7501 21.9014 14.9297C22.9216 16.1329 23.2268 18.1733 23.3152 19.2486C23.0035 19.2205 22.6067 19.1723 22.171 19.0881C20.8639 18.8378 19.8254 18.3821 19.1675 17.7749C18.9947 17.6134 18.8558 17.4165 18.7595 17.1965C18.6631 16.9765 18.6115 16.7382 18.6078 16.4965C18.6004 16.2123 18.6487 15.9294 18.7497 15.6653C18.8508 15.4011 19.0025 15.1611 19.1956 14.96ZM14.2941 24.4497V20.8581C14.2941 20.7985 14.3168 20.7414 14.3573 20.6993C14.3977 20.6572 14.4526 20.6336 14.5098 20.6336H23.3529V24.6741H14.5098C14.4526 24.6741 14.3977 24.6505 14.3573 24.6084C14.3168 24.5663 14.2941 24.5092 14.2941 24.4497ZM16.0196 33.4287V26.021H23.3529V33.6531H16.2353C16.1781 33.6531 16.1232 33.6295 16.0828 33.5874C16.0423 33.5453 16.0196 33.4882 16.0196 33.4287ZM31.9804 33.4287C31.9804 33.4882 31.9577 33.5453 31.9172 33.5874C31.8768 33.6295 31.8219 33.6531 31.7647 33.6531H24.6471V26.021H31.9804V33.4287ZM33.7059 24.4497C33.7059 24.5092 33.6832 24.5663 33.6427 24.6084C33.6023 24.6505 33.5474 24.6741 33.4902 24.6741H24.6471V20.6336H33.4902C33.5474 20.6336 33.6023 20.6572 33.6427 20.6993C33.6832 20.7414 33.7059 20.7985 33.7059 20.8581V24.4497Z" fill="#4C4C4C"/>
<defs>
<linearGradient id="paint0_linear_1110_299" x1="-8.8413e-07" y1="0.827587" x2="48" y2="41.3793" gradientUnits="userSpaceOnUse">
<stop stop-color="#E0E0E0"/>
<stop offset="0.636102" stop-color="#B2B2B2" stop-opacity="0"/>
</linearGradient>
</defs>
</svg>
