<svg version="1.1" id="Layer_1" xmlns="http://www.w3.org/2000/svg" xmlns:xlink="http://www.w3.org/1999/xlink" x="0px" y="0px"
	 width="100%" viewBox="0 0 846 362" enable-background="new 0 0 846 362" xml:space="preserve">
<path fill="#FDFDFD" opacity="1.000000" stroke="none" 
	d="
M525.000000,363.000000 
	C350.000000,363.000000 175.500000,363.000000 1.000000,363.000000 
	C1.000000,242.333328 1.000000,121.666664 1.000000,1.000000 
	C283.000000,1.000000 565.000000,1.000000 847.000000,1.000000 
	C847.000000,121.666664 847.000000,242.333328 847.000000,363.000000 
	C739.833313,363.000000 632.666687,363.000000 525.000000,363.000000 
M263.601044,295.116394 
	C263.062714,297.089844 262.524414,299.063324 262.294250,301.639771 
	C264.882385,304.817200 268.317657,303.561157 271.094513,302.600525 
	C272.514130,302.109436 274.384827,298.656738 273.873901,297.668823 
	C272.470520,294.955139 269.915680,292.836945 267.064362,289.639648 
	C266.282410,292.447754 265.941101,293.673523 265.127106,294.956940 
	C264.593842,295.304932 264.060608,295.652924 263.601044,295.116394 
M251.107697,243.079697 
	C247.178787,243.079697 243.249893,243.079697 239.320984,243.079697 
	C239.169373,243.559189 239.017776,244.038696 238.866165,244.518188 
	C240.431656,245.219040 241.997147,245.919876 243.878952,246.762344 
	C243.878952,250.067520 243.761002,253.705536 243.960419,257.326080 
	C244.011383,258.251434 245.066727,259.121429 245.660599,260.016876 
	C246.132553,259.169617 246.977722,258.337158 247.012039,257.472565 
	C247.161942,253.695343 247.076492,249.908783 247.076492,247.447113 
	C249.273727,245.739609 250.599579,244.709274 252.560516,244.061157 
	C254.499756,249.153091 256.438995,254.245026 258.566467,259.831207 
	C258.430817,259.883270 260.007050,259.717529 260.170258,259.147369 
	C261.695557,253.818695 262.978516,248.420685 264.331604,243.042740 
	C264.120636,242.786911 263.909668,242.531097 263.698700,242.275284 
	C262.002563,244.397842 260.306458,246.520416 258.605530,248.648972 
	C256.335266,247.094727 257.540436,240.963272 251.107697,243.079697 
M207.112350,42.743019 
	C204.370178,38.327938 200.392822,36.870235 195.571304,38.484619 
	C191.130951,39.971378 189.055908,43.496277 189.047913,48.080795 
	C189.003891,73.335457 188.985687,98.590347 189.057144,123.844879 
	C189.072327,129.202988 192.309113,133.089249 196.946503,133.946152 
	C201.890518,134.859695 205.805466,132.375259 208.098358,126.498070 
	C208.077606,126.328407 208.056854,126.158752 208.264252,125.075531 
	C208.292068,102.011658 208.338715,78.947777 208.328262,55.883919 
	C208.326599,52.247925 208.066498,48.612045 207.900131,44.333118 
	C207.618454,44.027119 207.336761,43.721119 207.112350,42.743019 
M110.806976,237.644196 
	C91.868034,200.884232 93.624329,165.105270 116.927704,130.978775 
	C122.377190,122.998306 130.240967,116.649399 137.104813,109.658676 
	C140.741226,105.955032 141.617950,101.728592 139.246170,97.445602 
	C137.080933,93.535583 132.547211,91.514900 128.110703,93.057823 
	C125.834801,93.849327 123.704620,95.411507 121.854149,97.022362 
	C89.328239,125.336555 74.785172,160.984238 79.846725,203.861816 
	C87.948547,272.494232 153.712921,320.056671 221.436417,306.820557 
	C287.715759,293.866699 330.019318,230.083557 316.149780,163.683853 
	C310.422729,136.265900 296.219818,113.838531 274.635925,96.075539 
	C268.570312,91.083702 261.133148,92.544876 258.476105,99.048203 
	C256.647888,103.522881 257.924255,107.297607 262.539093,111.270943 
	C291.810852,136.473663 303.663940,168.275085 297.889221,206.385513 
	C291.470612,248.745575 253.533737,284.881104 210.842789,288.704132 
	C167.409561,292.593597 134.075424,275.479034 110.806976,237.644196 
M629.321716,240.499847 
	C629.321716,248.743713 629.321716,256.987579 629.321716,265.267761 
	C633.259277,265.267761 636.511475,265.267761 640.167358,265.267761 
	C640.167358,256.056458 640.167358,247.135574 640.167358,238.468887 
	C644.689636,237.120163 646.344482,238.950729 647.416565,242.903091 
	C649.478943,250.507019 652.169128,257.940704 654.493225,265.118530 
	C658.389771,265.118530 661.734985,265.118530 665.427002,265.118530 
	C663.179077,258.343079 661.192444,252.044891 658.992981,245.821930 
	C657.171021,240.667297 655.435242,236.632797 660.355164,231.068726 
	C665.520203,225.227554 663.915405,216.603424 662.249329,209.015762 
	C660.897095,202.857361 656.653625,199.499649 650.678467,199.087631 
	C643.757812,198.610413 636.778931,198.976501 629.321716,198.976501 
	C629.321716,212.639633 629.321716,226.069733 629.321716,240.499847 
M569.561340,148.499664 
	C569.561340,157.466049 569.561340,166.432449 569.561340,175.499695 
	C573.265991,175.499695 576.495605,175.499695 580.130493,175.499695 
	C580.130493,166.297333 580.130493,157.358521 580.130493,148.586716 
	C584.595520,147.112839 586.524658,148.698471 587.498840,152.777863 
	C588.652405,157.608490 590.470459,162.278534 591.955078,167.032379 
	C594.771790,176.051926 594.758423,176.059692 604.383118,175.682800 
	C604.614563,175.673737 604.833618,175.348312 605.409058,174.893036 
	C602.280884,165.496246 599.102844,155.949707 596.367310,147.732193 
	C598.864258,143.421036 601.916870,140.257660 602.475647,136.702316 
	C603.360535,131.072876 603.067322,125.120056 602.359253,119.417458 
	C601.654297,113.739349 597.655212,109.945976 592.002625,109.502823 
	C584.651428,108.926521 577.220947,109.361961 569.561340,109.361961 
	C569.561340,122.206314 569.561340,134.852982 569.561340,148.499664 
M550.078552,199.164001 
	C549.946655,200.303421 549.700989,201.442703 549.699646,202.582275 
	C549.675964,222.364426 549.677185,242.146622 549.695740,261.928802 
	C549.696777,263.043854 549.894714,264.158691 550.015808,265.428223 
	C556.399536,265.428223 562.543945,265.712128 568.651123,265.356567 
	C576.328735,264.909546 582.378418,260.248199 582.923950,252.598785 
	C583.852966,239.572800 584.246460,226.390518 583.303467,213.387146 
	C582.572571,203.307999 576.078003,198.892349 565.913025,198.833633 
	C560.926331,198.804825 555.939148,198.846725 550.078552,199.164001 
M792.552429,116.119400 
	C784.124023,104.513550 771.977966,110.452469 761.473267,108.664238 
	C761.473267,131.529892 761.473267,153.562302 761.473267,175.711548 
	C767.679321,175.711548 773.510132,175.961090 779.311340,175.653351 
	C788.112915,175.186462 794.424866,169.858322 794.944397,161.194717 
	C795.659058,149.274780 795.411560,137.285538 795.223572,125.331520 
	C795.178528,122.465851 793.741760,119.622078 792.552429,116.119400 
M407.560059,198.823059 
	C406.117981,198.823059 404.675873,198.823059 403.249756,198.823059 
	C403.249756,221.317444 403.249756,243.324066 403.249756,265.284119 
	C406.721588,265.284119 409.817902,265.284119 413.379395,265.284119 
	C413.379395,256.118225 413.379395,247.203659 413.379395,238.562073 
	C417.996674,236.928177 419.772278,238.844727 420.873138,242.732132 
	C423.033905,250.362518 425.591339,257.880585 427.932373,265.279938 
	C431.757294,265.279938 435.154266,265.279938 438.910522,265.279938 
	C435.611267,255.408218 432.428192,245.884186 429.888031,238.283768 
	C432.501648,232.634003 435.235870,228.614578 436.149872,224.216873 
	C437.066498,219.806442 436.622437,214.952286 435.960022,210.411469 
	C434.909027,203.207077 430.355652,199.355255 423.030670,198.952530 
	C418.216553,198.687851 413.378906,198.851303 407.560059,198.823059 
M450.171204,261.297485 
	C455.225464,266.629150 461.571716,267.363892 468.087952,265.450928 
	C474.730103,263.501038 478.954926,258.495056 479.178986,251.600739 
	C479.603607,238.533859 479.925476,225.394485 479.003479,212.376343 
	C478.343079,203.051910 471.369263,197.952194 462.401215,197.965454 
	C453.689850,197.978333 446.709595,202.995941 446.059814,212.079224 
	C445.117279,225.254639 445.549103,238.552185 445.942291,251.781357 
	C446.032410,254.812866 448.352692,257.778107 450.171204,261.297485 
M432.073914,148.366196 
	C432.068512,146.202789 431.976776,144.035477 432.074249,141.876709 
	C432.343811,135.904724 432.511871,129.919159 433.076843,123.972862 
	C433.420624,120.354607 435.379456,117.638504 439.459991,117.635864 
	C443.562714,117.633217 445.173767,120.425102 445.871735,123.994827 
	C446.024017,124.773956 446.127502,125.562622 446.231018,126.207222 
	C449.709412,126.207222 452.926819,126.207222 456.139954,126.207222 
	C455.862030,115.278282 450.544006,108.971458 441.177704,108.109428 
	C431.544556,107.222824 424.615662,112.533104 422.659760,122.839195 
	C421.861237,127.046700 421.680664,131.438507 421.774017,135.734421 
	C421.975800,145.022583 421.928467,154.382462 423.129974,163.562897 
	C424.210541,171.819504 431.074371,176.486572 439.598236,176.380264 
	C448.279449,176.272018 454.896820,171.799026 455.754974,163.849487 
	C456.618134,155.853531 455.944885,147.691727 455.944885,139.684113 
	C450.422363,139.684113 445.029907,139.684113 439.670471,139.684113 
	C439.670471,142.651779 439.670471,145.235901 439.670471,147.873734 
	C441.887207,147.997452 443.807373,148.104630 445.926239,148.222885 
	C445.926239,152.394684 446.164795,156.219177 445.856232,159.999008 
	C445.572418,163.475769 444.242676,166.578476 440.054779,166.927994 
	C435.638336,167.296616 433.667877,164.555603 433.091553,160.733307 
	C432.523407,156.965210 432.397491,153.130463 432.073914,148.366196 
M369.627441,128.574844 
	C370.056213,126.302315 369.874939,123.606285 371.078888,121.871857 
	C372.381653,119.995117 375.049286,117.848503 376.988892,117.968330 
	C378.989105,118.091888 381.027222,120.627617 382.649597,122.461166 
	C383.371277,123.276756 383.113953,124.958595 383.295288,126.207947 
	C386.861237,126.207947 390.237732,126.207947 393.842163,126.207947 
	C393.669495,125.173798 393.566925,124.536926 393.456482,123.901428 
	C391.619690,113.335068 386.205078,108.150955 376.898956,108.047432 
	C367.420410,107.941994 360.903534,113.316788 359.834869,123.855713 
	C358.815399,133.909332 358.994629,144.106018 359.059235,154.237167 
	C359.084259,158.161682 359.788818,162.222824 360.979492,165.968811 
	C363.273773,173.186981 369.869965,176.875793 378.339600,176.327377 
	C386.078430,175.826294 391.997589,171.346695 392.942932,163.846970 
	C393.948151,155.872345 393.796722,147.751923 394.155853,139.568985 
	C387.870117,139.568985 382.482971,139.568985 376.923706,139.568985 
	C376.923706,142.446945 376.923706,145.064743 376.923706,147.868484 
	C378.998444,147.977707 380.911804,148.078445 382.961456,148.186340 
	C382.961456,152.610413 383.537964,156.856415 382.738129,160.825027 
	C382.282166,163.087433 379.896820,165.951035 377.791351,166.583496 
	C376.048615,167.106979 373.091827,165.139999 371.345673,163.541534 
	C370.229187,162.519531 369.994934,160.168671 369.952301,158.399399 
	C369.720032,148.762589 369.670105,139.121384 369.627441,128.574844 
M515.478149,235.120148 
	C518.123779,223.186462 520.769409,211.252777 523.468323,199.078568 
	C519.274109,199.078568 515.691650,199.078568 511.976471,199.078568 
	C509.217560,215.085190 506.497955,230.863831 503.778351,246.642487 
	C503.490265,246.655090 503.202148,246.667709 502.914062,246.680328 
	C500.191498,230.750671 497.468933,214.821014 494.782440,199.102295 
	C490.672821,199.102295 487.076080,199.102295 483.278778,199.102295 
	C488.191254,221.445999 493.034607,243.475128 497.835236,265.310120 
	C501.825043,265.310120 505.266754,265.310120 508.879517,265.310120 
	C511.029877,255.389816 513.138611,245.661469 515.478149,235.120148 
M387.997681,201.270645 
	C379.166473,196.819489 369.890289,199.592834 361.044800,198.878555 
	C361.044800,221.475006 361.044800,243.354584 361.044800,265.294922 
	C364.506592,265.294922 367.605164,265.294922 371.274292,265.294922 
	C371.274292,256.525085 371.274292,247.989517 371.274292,239.174606 
	C374.493225,239.174606 377.319336,239.766525 379.750000,239.038376 
	C383.566498,237.895096 388.061523,236.744659 390.594879,234.033005 
	C397.163025,227.002609 395.568481,208.682541 387.997681,201.270645 
M533.061707,140.499985 
	C533.061707,152.110458 533.061707,163.720917 533.061707,175.557693 
	C542.560242,175.557693 551.630127,175.557693 560.821594,175.557693 
	C560.821594,172.358017 560.821594,169.340271 560.821594,166.011810 
	C555.027466,166.011810 549.595337,166.011810 544.114258,166.011810 
	C544.114258,159.483109 544.114258,153.281784 544.114258,146.684479 
	C549.187683,146.684479 553.939697,146.684479 558.661621,146.684479 
	C558.661621,143.362122 558.661621,140.448624 558.661621,137.134064 
	C553.648865,137.134064 548.897278,137.134064 544.083679,137.134064 
	C544.083679,130.661041 544.083679,124.606422 544.083679,118.039047 
	C549.922241,118.039047 555.479736,118.039047 560.955444,118.039047 
	C560.955444,114.756645 560.955444,111.994598 560.955444,109.057343 
	C551.641785,109.057343 542.561707,109.057343 533.061707,109.057343 
	C533.061707,119.288033 533.061707,129.393997 533.061707,140.499985 
M610.487854,198.809143 
	C604.731934,198.809143 598.976013,198.809143 593.191040,198.809143 
	C593.191040,221.306396 593.191040,243.217804 593.191040,265.346680 
	C602.499084,265.346680 611.587830,265.346680 620.889465,265.346680 
	C620.889465,262.241760 620.889465,259.330261 620.889465,256.025208 
	C615.155945,256.025208 609.561951,256.025208 603.897522,256.025208 
	C603.897522,249.424088 603.897522,243.219604 603.897522,236.580963 
	C608.960693,236.580963 613.721741,236.580963 618.575623,236.580963 
	C618.575623,233.240448 618.575623,230.345566 618.575623,226.901566 
	C613.426392,226.901566 608.550232,226.901566 603.825134,226.901566 
	C603.825134,220.399261 603.825134,214.455856 603.825134,208.064697 
	C609.629822,208.064697 615.213318,208.064697 620.769653,208.064697 
	C620.769653,204.720367 620.769653,201.840607 620.769653,198.809128 
	C617.452454,198.809128 614.466675,198.809128 610.487854,198.809143 
M491.070557,161.160156 
	C491.246307,161.801224 491.426453,162.441116 491.597168,163.083527 
	C494.285858,173.199738 501.149567,177.635620 511.781006,176.126648 
	C519.771240,174.992538 525.037598,167.821350 524.838623,158.183319 
	C521.593872,158.183319 518.348267,158.183319 515.076843,158.183319 
	C514.662659,159.831024 514.716370,161.641724 513.842468,162.641953 
	C512.351196,164.348846 510.322876,166.587128 508.436462,166.668808 
	C506.521729,166.751678 504.263336,164.745850 502.628540,163.165405 
	C501.704285,162.271927 501.396301,160.396423 501.384399,158.958511 
	C501.292145,147.817062 501.115692,136.667358 501.468048,125.536133 
	C501.588348,121.735695 502.966553,117.736916 508.064728,117.642799 
	C512.877197,117.553955 514.004272,121.063194 514.725037,124.868370 
	C514.813599,125.335884 515.080383,125.769630 515.291199,126.284134 
	C518.457153,126.284134 521.577148,126.284134 524.682861,126.284134 
	C525.488831,116.470757 519.625122,109.152557 510.289490,108.140732 
	C499.768402,107.000420 491.587006,113.668259 491.056793,124.921326 
	C490.502045,136.693542 490.955475,148.513275 491.070557,161.160156 
M750.199829,175.775696 
	C756.282959,174.111664 751.327087,169.537109 753.527161,166.041916 
	C746.916687,166.041916 741.197632,166.041916 735.478760,166.041916 
	C735.478760,159.387436 735.478760,153.303757 735.478760,146.837738 
	C740.502502,146.837738 745.265930,146.837738 750.065674,146.837738 
	C750.065674,143.410324 750.065674,140.383148 750.065674,136.908401 
	C744.913696,136.908401 740.175293,136.908401 735.471069,136.908401 
	C735.471069,130.522018 735.471069,124.596382 735.471069,118.109009 
	C741.427551,118.109009 747.140930,118.109009 752.806458,118.109009 
	C752.806458,114.771782 752.806458,112.007362 752.806458,109.237007 
	C743.384216,109.237007 734.185974,109.237007 725.130493,109.237007 
	C725.130493,131.525284 725.130493,153.456131 725.130493,175.776199 
	C733.332336,175.776199 741.290039,175.776199 750.199829,175.775696 
M678.761169,165.455902 
	C678.761169,159.364014 678.761169,153.272125 678.761169,146.836639 
	C684.052856,146.836639 688.812439,146.836639 693.648926,146.836639 
	C693.648926,143.449921 693.648926,140.432190 693.648926,137.030548 
	C688.538574,137.030548 683.787720,137.030548 679.109985,137.030548 
	C679.109985,130.586746 679.109985,124.542389 679.109985,117.993530 
	C684.998474,117.993530 690.554077,117.993530 695.936035,117.993530 
	C695.936035,114.714409 695.936035,111.951347 695.936035,109.078995 
	C686.613525,109.078995 677.547974,109.078995 668.349365,109.078995 
	C668.349365,131.316315 668.349365,153.341537 668.349365,175.538361 
	C671.838989,175.538361 675.072205,175.538361 678.761169,175.538361 
	C678.761169,172.340576 678.761169,169.388229 678.761169,165.455902 
M629.171570,139.500336 
	C629.171570,132.550049 629.171570,125.599754 629.171570,118.067688 
	C633.189697,118.067688 636.740479,118.067688 640.266907,118.067688 
	C640.266907,114.703598 640.266907,111.941002 640.266907,109.231720 
	C629.255066,109.231720 618.518311,109.231720 607.964783,109.231720 
	C607.964783,112.347374 607.964783,115.114822 607.964783,118.312790 
	C611.650330,118.312790 615.069702,118.312790 618.947937,118.312790 
	C618.947937,137.655670 618.947937,156.554138 618.947937,175.559631 
	C622.522278,175.559631 625.609802,175.559631 629.171570,175.559631 
	C629.171570,163.737793 629.171570,152.119019 629.171570,139.500336 
M177.386124,152.824051 
	C176.046997,156.420258 174.707870,160.016464 172.990189,164.629288 
	C169.860657,156.268448 167.167587,149.073685 164.577774,142.154755 
	C162.176849,142.154755 160.274353,142.154755 158.493683,142.154755 
	C158.493683,156.855408 158.493683,171.231842 158.493683,185.619690 
	C160.788712,185.619690 162.723251,185.619690 165.236298,185.619690 
	C165.236298,177.523483 165.236298,169.615799 165.236298,161.708115 
	C167.406021,165.532654 168.578690,169.478867 170.060455,173.305359 
	C170.507782,174.460510 172.049759,176.219055 172.674713,176.060715 
	C173.911667,175.747345 175.351151,174.486908 175.836060,173.270767 
	C177.456467,169.206711 178.692383,164.989365 180.075592,160.830734 
	C180.405151,160.893753 180.734726,160.956772 181.064301,161.019791 
	C181.064301,169.203751 181.064301,177.387711 181.064301,185.450684 
	C183.567123,185.450684 185.611053,185.450684 187.517822,185.450684 
	C187.517822,170.717056 187.517822,156.357986 187.517822,142.024124 
	C181.574112,141.718552 181.570892,141.717346 179.607056,146.987732 
	C178.971054,148.694534 178.356705,150.409424 177.386124,152.824051 
M213.007248,221.362747 
	C211.997360,219.039917 211.638657,217.332596 213.760834,214.821472 
	C218.255569,209.502991 217.555984,202.994232 215.337555,196.876450 
	C213.361115,191.426025 208.278214,191.538437 203.587524,191.407135 
	C200.310333,191.315369 197.028503,191.389420 193.554840,191.389420 
	C193.554840,206.827209 193.554840,221.724869 193.554840,236.858459 
	C195.942245,236.858459 198.164368,236.858459 200.759781,236.858459 
	C200.759781,230.675537 200.759781,224.739899 200.759781,218.804276 
	C201.148529,218.491333 201.537277,218.178391 201.926025,217.865448 
	C203.119568,218.883759 204.851227,219.672836 205.401703,220.965073 
	C206.825241,224.306808 208.123596,227.801132 208.747284,231.361465 
	C209.734253,236.995468 212.811462,238.268845 218.056488,236.651337 
	C216.420990,231.812332 214.786270,226.975616 213.007248,221.362747 
M138.479065,237.105133 
	C139.737167,237.007523 140.995270,236.909927 142.643448,236.782043 
	C142.643448,230.545227 142.643448,224.609741 142.643448,218.521103 
	C144.028137,218.521103 145.714706,218.233246 145.846146,218.563782 
	C148.256485,224.625412 150.480530,230.761124 152.768936,236.948425 
	C155.129181,236.948425 157.427216,236.948425 160.014069,236.948425 
	C158.092316,231.263687 156.142868,225.837143 154.478104,220.324615 
	C154.080261,219.007248 154.052994,216.869263 154.839508,216.017349 
	C160.149475,210.265594 159.090851,203.615860 157.151627,197.290710 
	C156.459854,195.034378 153.164932,192.480881 150.729080,192.084167 
	C145.768860,191.276321 140.584839,191.842453 135.206696,191.842453 
	C135.206696,206.133972 135.162903,220.255249 135.307663,234.374588 
	C135.317078,235.291779 136.775787,236.194107 138.479065,237.105133 
M402.405273,132.499878 
	C402.405273,146.879532 402.405273,161.259201 402.405273,175.592621 
	C406.320099,175.592621 409.433014,175.592621 412.687927,175.592621 
	C412.687927,153.239746 412.687927,131.092941 412.687927,109.234238 
	C409.090973,109.234238 405.856720,109.234238 402.405273,109.234238 
	C402.405273,116.901718 402.405273,124.200798 402.405273,132.499878 
M647.174438,170.307510 
	C647.174438,172.059723 647.174438,173.811935 647.174438,175.493286 
	C651.130432,175.493286 654.377930,175.493286 657.719604,175.493286 
	C657.719604,153.172958 657.719604,131.154282 657.719604,109.228622 
	C654.114014,109.228622 650.742981,109.228622 647.174500,109.228622 
	C647.174500,129.511017 647.174500,149.431000 647.174438,170.307510 
M230.367538,141.843842 
	C227.286255,141.843842 224.204987,141.843842 221.295685,141.843842 
	C221.295685,156.871628 221.295685,171.241562 221.295685,185.475067 
	C223.694199,185.475067 225.751419,185.475067 228.195358,185.475067 
	C228.195358,179.413330 228.195358,173.682709 228.195358,167.952087 
	C228.617065,167.682281 229.038757,167.412491 229.460464,167.142700 
	C230.591873,168.313782 232.165375,169.295776 232.763809,170.694855 
	C234.059067,173.723038 235.227905,176.902191 235.770569,180.133453 
	C236.659668,185.427444 239.357193,187.030807 244.579208,185.263031 
	C242.934601,180.246811 241.376984,175.195023 239.603561,170.220169 
	C238.778534,167.905777 238.755768,166.433640 240.600449,164.186707 
	C244.776581,159.099991 243.946884,152.904739 242.016861,147.145782 
	C240.349380,142.170288 235.795563,141.776962 230.367538,141.843842 
M171.075287,224.148590 
	C171.075287,213.367783 171.075287,202.586960 171.075287,191.658264 
	C168.495590,191.658264 166.415924,191.658264 163.973907,191.658264 
	C163.973907,203.839142 163.763962,215.803787 164.064331,227.755585 
	C164.209900,233.547195 169.121704,237.514694 175.207825,237.737122 
	C180.947815,237.946930 186.615738,234.285233 186.814651,228.946533 
	C187.276962,216.538071 186.961914,204.100647 186.961914,191.723022 
	C184.405396,191.723022 182.325607,191.723022 179.978180,191.723022 
	C179.978180,202.990875 179.944107,213.970535 180.000076,224.949753 
	C180.015747,228.025253 179.710434,230.894974 175.862686,231.054626 
	C171.817368,231.222473 170.894958,228.483963 171.075287,224.148590 
M539.113464,202.583313 
	C539.002563,201.339981 538.891663,200.096649 538.804321,199.117447 
	C535.243652,199.117447 532.145325,199.117447 529.015747,199.117447 
	C529.015747,221.297546 529.015747,243.187851 529.015747,265.225220 
	C532.452820,265.225220 535.669312,265.225220 539.113464,265.225220 
	C539.113464,244.463821 539.113464,224.014633 539.113464,202.583313 
M714.369995,124.501755 
	C714.369995,119.406662 714.369995,114.311562 714.369995,109.190140 
	C710.622864,109.190140 707.405579,109.190140 704.302246,109.190140 
	C704.302246,131.522385 704.302246,153.551559 704.302246,175.532593 
	C707.737549,175.532593 710.835449,175.532593 714.369995,175.532593 
	C714.369995,158.702164 714.369995,142.101532 714.369995,124.501755 
M232.671539,228.081650 
	C234.952377,228.081650 237.233215,228.081650 239.456635,228.081650 
	C240.185532,231.342255 240.790710,234.049438 241.399841,236.774307 
	C243.978302,236.774307 246.338959,236.774307 248.850098,236.774307 
	C245.120834,221.483948 241.475113,206.536087 237.523727,190.334930 
	C234.762405,191.548828 230.853241,192.109711 230.433929,193.631912 
	C226.520889,207.837418 223.206833,222.207932 219.643341,236.842636 
	C222.225372,236.842636 224.495529,236.842636 227.063156,236.842636 
	C227.450928,234.942612 227.512299,232.852036 228.347702,231.138916 
	C228.968338,229.866180 230.592941,229.083038 232.671539,228.081650 
M203.555984,177.013245 
	C205.507126,177.013245 207.458267,177.013245 209.388031,177.013245 
	C210.123596,180.212936 210.742096,182.903381 211.357742,185.581421 
	C213.776947,185.581421 215.879898,185.581421 218.452225,185.581421 
	C214.852051,170.809952 211.332397,156.368927 207.821411,141.963409 
	C205.403015,141.963409 203.431351,141.963409 201.039429,141.963409 
	C197.474930,156.421967 193.915161,170.861282 190.302155,185.516586 
	C192.973282,185.516586 195.220459,185.516586 197.033859,185.516586 
	C199.654739,182.772995 196.064453,176.672607 203.555984,177.013245 
M142.774414,166.688019 
	C146.680542,169.068832 148.270096,173.349243 146.252899,177.159607 
	C145.603363,178.386536 143.862091,179.680008 142.563782,179.740997 
	C141.216537,179.804291 139.533096,178.663223 138.504730,177.570663 
	C137.759430,176.778839 137.842712,175.207138 137.602905,174.181610 
	C135.173843,174.181610 133.091553,174.181610 130.981949,174.181610 
	C130.913315,178.699921 131.758896,182.490829 135.798508,184.729691 
	C141.517227,187.899185 150.262787,185.878464 152.627884,180.894928 
	C155.965271,173.862671 153.339828,164.052750 147.332718,161.312805 
	C145.221786,160.349976 142.931320,159.750931 140.892563,158.666641 
	C137.724869,156.981979 137.125519,150.994232 139.741959,148.681732 
	C142.455978,146.282990 145.212296,148.035812 147.143494,153.514587 
	C149.010864,153.514587 150.934235,153.514587 152.840469,153.514587 
	C153.447830,146.425919 150.939728,142.662064 145.134857,141.737473 
	C137.913071,140.587219 133.030502,143.664932 131.673309,150.222900 
	C129.853683,159.015411 132.009964,162.336288 142.774414,166.688019 
M252.367188,183.910675 
	C254.436081,184.746323 256.504974,185.581970 259.202332,186.671448 
	C259.202332,173.046555 259.202332,160.748245 259.202332,148.314072 
	C261.872589,148.115646 264.295868,147.935562 266.610077,147.763580 
	C266.610077,145.656876 266.610077,143.913681 266.610077,142.129333 
	C259.287933,142.129333 252.226532,142.129333 245.222839,142.129333 
	C245.222839,144.201309 245.222839,145.963013 245.222839,147.886810 
	C247.674896,148.008896 249.924011,148.120880 252.356186,148.241974 
	C252.356186,160.062164 252.356186,171.536453 252.367188,183.910675 
M259.123322,198.603638 
	C259.123322,196.332474 259.123322,194.061310 259.123322,191.680725 
	C256.526123,191.680725 254.449127,191.680725 252.327087,191.680725 
	C252.327087,206.938538 252.327087,221.950027 252.327087,236.827667 
	C258.732117,236.827667 264.818817,236.827667 270.819977,236.827667 
	C270.819977,234.666992 270.819977,232.793961 270.819977,230.453781 
	C266.738953,230.453781 263.009888,230.453781 259.123322,230.453781 
	C259.123322,219.844147 259.123322,209.710052 259.123322,198.603638 
M169.567261,253.791275 
	C171.063507,254.673813 172.559738,255.556351 174.348755,256.611603 
	C174.841690,256.056702 175.503937,255.395020 176.065231,254.656601 
	C176.668976,253.862335 177.178040,252.996078 178.042877,251.684235 
	C178.509247,259.639954 178.509247,259.639954 181.678833,259.576813 
	C181.678833,254.126022 181.678833,248.672241 181.678833,242.920425 
	C175.647736,242.434250 177.057877,249.271576 174.205780,250.844208 
	C170.514038,248.982269 172.372528,242.241455 166.164383,243.019836 
	C166.164383,248.967010 166.164383,254.422791 166.164383,259.967346 
	C171.328598,260.522461 168.905685,256.670563 169.567261,253.791275 
M195.736755,244.862701 
	C194.663300,246.974365 193.589844,249.086029 192.504791,251.220535 
	C189.110306,249.012909 190.548157,242.548950 184.649048,242.980057 
	C183.599609,258.099182 183.859283,259.547607 187.714691,259.682068 
	C187.847824,257.224060 187.981705,254.752579 188.036682,253.737778 
	C189.124496,254.458145 190.746780,256.359161 192.263611,256.278412 
	C193.503998,256.212402 194.618591,253.782730 196.524551,251.532486 
	C196.702438,255.129654 196.815140,257.408905 196.927689,259.684784 
	C200.575897,259.569336 200.977264,257.181915 199.747299,242.625397 
	C198.387589,243.160721 197.200928,243.627930 195.736755,244.862701 
M227.201767,244.739197 
	C227.201767,247.051300 227.201767,249.363419 227.201767,251.899414 
	C223.142624,249.208481 223.421829,243.134857 217.704773,242.877411 
	C217.019150,259.608856 217.019150,259.608856 221.244812,259.612457 
	C221.244812,256.811829 221.244812,253.994675 221.244812,251.038605 
	C225.005432,253.742798 224.888840,259.726593 230.578720,260.121582 
	C230.578720,254.192932 230.578720,248.635864 230.578720,242.456955 
	C229.156433,243.048157 228.195862,243.447433 227.201767,244.739197 
M472.516083,143.932465 
	C469.757019,143.932465 466.997955,143.932465 464.276398,143.932465 
	C464.276398,147.338058 464.276398,150.218384 464.276398,152.971375 
	C470.632172,152.971375 476.678802,152.971375 482.711304,152.971375 
	C482.711304,149.829468 482.711304,146.961823 482.711304,143.932465 
	C479.429352,143.932465 476.464691,143.932465 472.516083,143.932465 
M163.477905,256.565674 
	C163.664200,253.941299 164.124374,251.301178 163.974457,248.696152 
	C163.732147,244.485184 161.219772,242.513275 157.002579,242.807114 
	C152.592270,243.114426 150.602264,245.943573 151.381073,252.495529 
	C151.686676,255.066635 153.356812,258.677002 155.359039,259.503113 
	C157.315598,260.310364 160.487396,258.172333 163.477905,256.565674 
M205.892578,245.761536 
	C205.166107,244.768127 204.439621,243.774719 203.713150,242.781326 
	C203.271164,243.068680 202.829193,243.356049 202.387207,243.643402 
	C202.387207,247.115952 202.261017,250.594315 202.420532,254.059509 
	C202.602295,258.007568 204.809326,260.160370 208.805420,260.126190 
	C212.766876,260.092316 214.980896,258.026337 215.095215,254.005600 
	C215.180099,251.019516 215.232330,248.020599 215.025665,245.046417 
	C214.973602,244.297256 213.873306,243.620926 213.254730,242.911118 
	C212.783829,243.600998 211.955994,244.266449 211.906815,244.985199 
	C211.737213,247.464111 212.232605,250.049042 211.705002,252.422485 
	C211.329437,254.111954 209.715927,255.526215 208.654892,257.063293 
	C207.734512,255.598557 206.396301,254.237030 206.002380,252.642242 
	C205.538544,250.764389 205.893021,248.684387 205.892578,245.761536 
M141.399628,242.965042 
	C136.107788,245.206863 137.144852,249.894974 137.303436,254.072784 
	C137.428253,257.361328 139.129288,259.732391 142.715134,260.089966 
	C146.423401,260.459778 148.952271,259.076508 150.033997,254.501892 
	C146.588745,254.323730 141.170105,261.565399 140.637863,252.113464 
	C140.082047,242.243439 145.975418,247.559998 150.072235,248.481476 
	C148.896164,243.533203 146.043381,242.367737 141.399628,242.965042 
M237.168762,245.664978 
	C236.592377,244.758835 236.015991,243.852707 235.439606,242.946548 
	C234.950119,243.769897 234.069733,244.578415 234.037857,245.419128 
	C233.887863,249.373901 233.864609,253.342453 234.048859,257.294312 
	C234.092163,258.223053 235.116669,259.106018 235.689743,260.010071 
	C236.182739,259.016205 237.048599,258.041504 237.100845,257.024994 
	C237.278503,253.568695 237.168961,250.097672 237.168762,245.664978 
z"/>
<path fill="#D7E924" opacity="1.000000" stroke="none" 
	d="
M110.976936,237.970886 
	C134.075424,275.479034 167.409561,292.593597 210.842789,288.704132 
	C253.533737,284.881104 291.470612,248.745575 297.889221,206.385513 
	C303.663940,168.275085 291.810852,136.473663 262.539093,111.270943 
	C257.924255,107.297607 256.647888,103.522881 258.476105,99.048203 
	C261.133148,92.544876 268.570312,91.083702 274.635925,96.075539 
	C296.219818,113.838531 310.422729,136.265900 316.149780,163.683853 
	C330.019318,230.083557 287.715759,293.866699 221.436417,306.820557 
	C153.712921,320.056671 87.948547,272.494232 79.846725,203.861816 
	C74.785172,160.984238 89.328239,125.336555 121.854149,97.022362 
	C123.704620,95.411507 125.834801,93.849327 128.110703,93.057823 
	C132.547211,91.514900 137.080933,93.535583 139.246170,97.445602 
	C141.617950,101.728592 140.741226,105.955032 137.104813,109.658676 
	C130.240967,116.649399 122.377190,122.998306 116.927704,130.978775 
	C93.624329,165.105270 91.868034,200.884232 110.976936,237.970886 
z"/>
<path fill="#D7E924" opacity="1.000000" stroke="none" 
	d="
M207.923508,126.980087 
	C205.805466,132.375259 201.890518,134.859695 196.946503,133.946152 
	C192.309113,133.089249 189.072327,129.202988 189.057144,123.844879 
	C188.985687,98.590347 189.003891,73.335457 189.047913,48.080795 
	C189.055908,43.496277 191.130951,39.971378 195.571304,38.484619 
	C200.392822,36.870235 204.370178,38.327938 207.143707,43.385109 
	C207.425339,44.343506 207.675613,44.659809 207.925888,44.976112 
	C208.066498,48.612045 208.326599,52.247925 208.328262,55.883919 
	C208.338715,78.947777 208.292068,102.011658 207.978760,125.611389 
	C207.615692,126.244400 207.452850,126.395401 207.474579,126.429825 
	C207.600067,126.628494 207.769180,126.799629 207.923508,126.980087 
z"/>
<path fill="#080808" opacity="1.000000" stroke="none" 
	d="
M629.321716,239.999847 
	C629.321716,226.069733 629.321716,212.639633 629.321716,198.976501 
	C636.778931,198.976501 643.757812,198.610413 650.678467,199.087631 
	C656.653625,199.499649 660.897095,202.857361 662.249329,209.015762 
	C663.915405,216.603424 665.520203,225.227554 660.355164,231.068726 
	C655.435242,236.632797 657.171021,240.667297 658.992981,245.821930 
	C661.192444,252.044891 663.179077,258.343079 665.427002,265.118530 
	C661.734985,265.118530 658.389771,265.118530 654.493225,265.118530 
	C652.169128,257.940704 649.478943,250.507019 647.416565,242.903091 
	C646.344482,238.950729 644.689636,237.120163 640.167358,238.468887 
	C640.167358,247.135574 640.167358,256.056458 640.167358,265.267761 
	C636.511475,265.267761 633.259277,265.267761 629.321716,265.267761 
	C629.321716,256.987579 629.321716,248.743713 629.321716,239.999847 
M650.682129,209.747345 
	C647.283508,209.000977 643.884949,208.254608 640.347229,207.477676 
	C640.347229,215.285309 640.347229,221.990112 640.347229,228.664505 
	C651.477112,229.078506 653.749817,226.768066 652.827026,216.037689 
	C652.662354,214.122452 651.756287,212.270950 650.682129,209.747345 
z"/>
<path fill="#030303" opacity="1.000000" stroke="none" 
	d="
M569.561340,147.999664 
	C569.561340,134.852982 569.561340,122.206314 569.561340,109.361961 
	C577.220947,109.361961 584.651428,108.926521 592.002625,109.502823 
	C597.655212,109.945976 601.654297,113.739349 602.359253,119.417458 
	C603.067322,125.120056 603.360535,131.072876 602.475647,136.702316 
	C601.916870,140.257660 598.864258,143.421036 596.367310,147.732193 
	C599.102844,155.949707 602.280884,165.496246 605.409058,174.893036 
	C604.833618,175.348312 604.614563,175.673737 604.383118,175.682800 
	C594.758423,176.059692 594.771790,176.051926 591.955078,167.032379 
	C590.470459,162.278534 588.652405,157.608490 587.498840,152.777863 
	C586.524658,148.698471 584.595520,147.112839 580.130493,148.586716 
	C580.130493,157.358521 580.130493,166.297333 580.130493,175.499695 
	C576.495605,175.499695 573.265991,175.499695 569.561340,175.499695 
	C569.561340,166.432449 569.561340,157.466049 569.561340,147.999664 
M586.066589,118.162125 
	C584.151978,118.162125 582.237305,118.162125 580.402344,118.162125 
	C580.402344,125.460602 580.402344,132.133377 580.402344,138.777893 
	C589.903198,139.097412 591.933044,138.102692 592.846375,132.878906 
	C594.325439,124.420387 592.607971,120.164337 586.066589,118.162125 
z"/>
<path fill="#030303" opacity="1.000000" stroke="none" 
	d="
M550.515381,199.010315 
	C555.939148,198.846725 560.926331,198.804825 565.913025,198.833633 
	C576.078003,198.892349 582.572571,203.307999 583.303467,213.387146 
	C584.246460,226.390518 583.852966,239.572800 582.923950,252.598785 
	C582.378418,260.248199 576.328735,264.909546 568.651123,265.356567 
	C562.543945,265.712128 556.399536,265.428223 550.015808,265.428223 
	C549.894714,264.158691 549.696777,263.043854 549.695740,261.928802 
	C549.677185,242.146622 549.675964,222.364426 549.699646,202.582275 
	C549.700989,201.442703 549.946655,200.303421 550.515381,199.010315 
M573.959839,234.487305 
	C573.909119,229.337280 574.064697,224.175156 573.763184,219.039856 
	C573.194092,209.348724 569.937134,206.919998 560.301331,208.671143 
	C560.301331,224.366241 560.301331,240.076157 560.301331,255.762283 
	C570.655640,256.712341 573.025085,254.909241 573.746277,245.443512 
	C573.998230,242.136063 573.898743,238.801849 573.959839,234.487305 
z"/>
<path fill="#070707" opacity="1.000000" stroke="none" 
	d="
M792.748779,116.443817 
	C793.741760,119.622078 795.178528,122.465851 795.223572,125.331520 
	C795.411560,137.285538 795.659058,149.274780 794.944397,161.194717 
	C794.424866,169.858322 788.112915,175.186462 779.311340,175.653351 
	C773.510132,175.961090 767.679321,175.711548 761.473267,175.711548 
	C761.473267,153.562302 761.473267,131.529892 761.473267,108.664238 
	C771.977966,110.452469 784.124023,104.513550 792.748779,116.443817 
M782.940674,120.658386 
	C779.526489,119.547569 776.112366,118.436745 772.191162,117.160965 
	C772.191162,134.401810 772.191162,150.243622 772.191162,166.072678 
	C783.235168,166.324875 784.689026,165.111572 785.213440,154.463760 
	C785.540771,147.818176 785.705566,141.139145 785.419250,134.497726 
	C785.228882,130.083252 784.113098,125.708664 782.940674,120.658386 
z"/>
<path fill="#040404" opacity="1.000000" stroke="none" 
	d="
M408.055939,198.823059 
	C413.378906,198.851303 418.216553,198.687851 423.030670,198.952530 
	C430.355652,199.355255 434.909027,203.207077 435.960022,210.411469 
	C436.622437,214.952286 437.066498,219.806442 436.149872,224.216873 
	C435.235870,228.614578 432.501648,232.634003 429.888031,238.283768 
	C432.428192,245.884186 435.611267,255.408218 438.910522,265.279938 
	C435.154266,265.279938 431.757294,265.279938 427.932373,265.279938 
	C425.591339,257.880585 423.033905,250.362518 420.873138,242.732132 
	C419.772278,238.844727 417.996674,236.928177 413.379395,238.562073 
	C413.379395,247.203659 413.379395,256.118225 413.379395,265.284119 
	C409.817902,265.284119 406.721588,265.284119 403.249756,265.284119 
	C403.249756,243.324066 403.249756,221.317444 403.249756,198.823059 
	C404.675873,198.823059 406.117981,198.823059 408.055939,198.823059 
M426.058594,214.939346 
	C424.844818,208.259827 422.398010,207.029617 413.415344,208.671356 
	C413.415344,215.207581 413.415344,221.765869 413.415344,228.284409 
	C423.854584,229.919235 426.358521,227.845963 426.337036,217.802155 
	C426.335632,217.141678 426.219360,216.481415 426.058594,214.939346 
z"/>
<path fill="#040404" opacity="1.000000" stroke="none" 
	d="
M449.908905,261.035645 
	C448.352692,257.778107 446.032410,254.812866 445.942291,251.781357 
	C445.549103,238.552185 445.117279,225.254639 446.059814,212.079224 
	C446.709595,202.995941 453.689850,197.978333 462.401215,197.965454 
	C471.369263,197.952194 478.343079,203.051910 479.003479,212.376343 
	C479.925476,225.394485 479.603607,238.533859 479.178986,251.600739 
	C478.954926,258.495056 474.730103,263.501038 468.087952,265.450928 
	C461.571716,267.363892 455.225464,266.629150 449.908905,261.035645 
M464.054871,256.799469 
	C465.707947,254.528091 468.696442,252.310059 468.789642,249.976379 
	C469.266296,238.044373 469.136597,226.079803 468.906097,214.132660 
	C468.831665,210.275757 466.598236,207.358185 462.355927,207.400757 
	C458.333160,207.441147 456.213226,210.393188 456.138855,213.950516 
	C455.885681,226.060272 455.850433,238.183258 456.148102,250.290955 
	C456.246582,254.296585 458.630096,257.147766 464.054871,256.799469 
z"/>
<path fill="#060606" opacity="1.000000" stroke="none" 
	d="
M432.075714,148.845581 
	C432.397491,153.130463 432.523407,156.965210 433.091553,160.733307 
	C433.667877,164.555603 435.638336,167.296616 440.054779,166.927994 
	C444.242676,166.578476 445.572418,163.475769 445.856232,159.999008 
	C446.164795,156.219177 445.926239,152.394684 445.926239,148.222885 
	C443.807373,148.104630 441.887207,147.997452 439.670471,147.873734 
	C439.670471,145.235901 439.670471,142.651779 439.670471,139.684113 
	C445.029907,139.684113 450.422363,139.684113 455.944885,139.684113 
	C455.944885,147.691727 456.618134,155.853531 455.754974,163.849487 
	C454.896820,171.799026 448.279449,176.272018 439.598236,176.380264 
	C431.074371,176.486572 424.210541,171.819504 423.129974,163.562897 
	C421.928467,154.382462 421.975800,145.022583 421.774017,135.734421 
	C421.680664,131.438507 421.861237,127.046700 422.659760,122.839195 
	C424.615662,112.533104 431.544556,107.222824 441.177704,108.109428 
	C450.544006,108.971458 455.862030,115.278282 456.139954,126.207222 
	C452.926819,126.207222 449.709412,126.207222 446.231018,126.207222 
	C446.127502,125.562622 446.024017,124.773956 445.871735,123.994827 
	C445.173767,120.425102 443.562714,117.633217 439.459991,117.635864 
	C435.379456,117.638504 433.420624,120.354607 433.076843,123.972862 
	C432.511871,129.919159 432.343811,135.904724 432.074249,141.876709 
	C431.976776,144.035477 432.068512,146.202789 432.075714,148.845581 
z"/>
<path fill="#070707" opacity="1.000000" stroke="none" 
	d="
M369.592438,129.028259 
	C369.670105,139.121384 369.720032,148.762589 369.952301,158.399399 
	C369.994934,160.168671 370.229187,162.519531 371.345673,163.541534 
	C373.091827,165.139999 376.048615,167.106979 377.791351,166.583496 
	C379.896820,165.951035 382.282166,163.087433 382.738129,160.825027 
	C383.537964,156.856415 382.961456,152.610413 382.961456,148.186340 
	C380.911804,148.078445 378.998444,147.977707 376.923706,147.868484 
	C376.923706,145.064743 376.923706,142.446945 376.923706,139.568985 
	C382.482971,139.568985 387.870117,139.568985 394.155853,139.568985 
	C393.796722,147.751923 393.948151,155.872345 392.942932,163.846970 
	C391.997589,171.346695 386.078430,175.826294 378.339600,176.327377 
	C369.869965,176.875793 363.273773,173.186981 360.979492,165.968811 
	C359.788818,162.222824 359.084259,158.161682 359.059235,154.237167 
	C358.994629,144.106018 358.815399,133.909332 359.834869,123.855713 
	C360.903534,113.316788 367.420410,107.941994 376.898956,108.047432 
	C386.205078,108.150955 391.619690,113.335068 393.456482,123.901428 
	C393.566925,124.536926 393.669495,125.173798 393.842163,126.207947 
	C390.237732,126.207947 386.861237,126.207947 383.295288,126.207947 
	C383.113953,124.958595 383.371277,123.276756 382.649597,122.461166 
	C381.027222,120.627617 378.989105,118.091888 376.988892,117.968330 
	C375.049286,117.848503 372.381653,119.995117 371.078888,121.871857 
	C369.874939,123.606285 370.056213,126.302315 369.592438,129.028259 
z"/>
<path fill="#060606" opacity="1.000000" stroke="none" 
	d="
M515.362793,235.526642 
	C513.138611,245.661469 511.029877,255.389816 508.879517,265.310120 
	C505.266754,265.310120 501.825043,265.310120 497.835236,265.310120 
	C493.034607,243.475128 488.191254,221.445999 483.278778,199.102295 
	C487.076080,199.102295 490.672821,199.102295 494.782440,199.102295 
	C497.468933,214.821014 500.191498,230.750671 502.914062,246.680328 
	C503.202148,246.667709 503.490265,246.655090 503.778351,246.642487 
	C506.497955,230.863831 509.217560,215.085190 511.976471,199.078568 
	C515.691650,199.078568 519.274109,199.078568 523.468323,199.078568 
	C520.769409,211.252777 518.123779,223.186462 515.362793,235.526642 
z"/>
<path fill="#020202" opacity="1.000000" stroke="none" 
	d="
M388.279358,201.527008 
	C395.568481,208.682541 397.163025,227.002609 390.594879,234.033005 
	C388.061523,236.744659 383.566498,237.895096 379.750000,239.038376 
	C377.319336,239.766525 374.493225,239.174606 371.274292,239.174606 
	C371.274292,247.989517 371.274292,256.525085 371.274292,265.294922 
	C367.605164,265.294922 364.506592,265.294922 361.044800,265.294922 
	C361.044800,243.354584 361.044800,221.475006 361.044800,198.878555 
	C369.890289,199.592834 379.166473,196.819489 388.279358,201.527008 
M376.219788,229.962509 
	C382.884979,229.314270 384.886658,225.662750 383.944855,215.870361 
	C383.285767,209.017731 380.522980,207.377777 371.274231,208.508087 
	C371.274231,215.508438 371.274231,222.535950 371.274231,229.962677 
	C372.768951,229.962677 374.049072,229.962677 376.219788,229.962509 
z"/>
<path fill="#090909" opacity="1.000000" stroke="none" 
	d="
M533.061707,139.999969 
	C533.061707,129.393997 533.061707,119.288033 533.061707,109.057343 
	C542.561707,109.057343 551.641785,109.057343 560.955444,109.057343 
	C560.955444,111.994598 560.955444,114.756645 560.955444,118.039047 
	C555.479736,118.039047 549.922241,118.039047 544.083679,118.039047 
	C544.083679,124.606422 544.083679,130.661041 544.083679,137.134064 
	C548.897278,137.134064 553.648865,137.134064 558.661621,137.134064 
	C558.661621,140.448624 558.661621,143.362122 558.661621,146.684479 
	C553.939697,146.684479 549.187683,146.684479 544.114258,146.684479 
	C544.114258,153.281784 544.114258,159.483109 544.114258,166.011810 
	C549.595337,166.011810 555.027466,166.011810 560.821594,166.011810 
	C560.821594,169.340271 560.821594,172.358017 560.821594,175.557693 
	C551.630127,175.557693 542.560242,175.557693 533.061707,175.557693 
	C533.061707,163.720917 533.061707,152.110458 533.061707,139.999969 
z"/>
<path fill="#090909" opacity="1.000000" stroke="none" 
	d="
M610.984375,198.809143 
	C614.466675,198.809128 617.452454,198.809128 620.769653,198.809128 
	C620.769653,201.840607 620.769653,204.720367 620.769653,208.064697 
	C615.213318,208.064697 609.629822,208.064697 603.825134,208.064697 
	C603.825134,214.455856 603.825134,220.399261 603.825134,226.901566 
	C608.550232,226.901566 613.426392,226.901566 618.575623,226.901566 
	C618.575623,230.345566 618.575623,233.240448 618.575623,236.580963 
	C613.721741,236.580963 608.960693,236.580963 603.897522,236.580963 
	C603.897522,243.219604 603.897522,249.424088 603.897522,256.025208 
	C609.561951,256.025208 615.155945,256.025208 620.889465,256.025208 
	C620.889465,259.330261 620.889465,262.241760 620.889465,265.346680 
	C611.587830,265.346680 602.499084,265.346680 593.191040,265.346680 
	C593.191040,243.217804 593.191040,221.306396 593.191040,198.809143 
	C598.976013,198.809143 604.731934,198.809143 610.984375,198.809143 
z"/>
<path fill="#050505" opacity="1.000000" stroke="none" 
	d="
M491.019409,160.736191 
	C490.955475,148.513275 490.502045,136.693542 491.056793,124.921326 
	C491.587006,113.668259 499.768402,107.000420 510.289490,108.140732 
	C519.625122,109.152557 525.488831,116.470757 524.682861,126.284134 
	C521.577148,126.284134 518.457153,126.284134 515.291199,126.284134 
	C515.080383,125.769630 514.813599,125.335884 514.725037,124.868370 
	C514.004272,121.063194 512.877197,117.553955 508.064728,117.642799 
	C502.966553,117.736916 501.588348,121.735695 501.468048,125.536133 
	C501.115692,136.667358 501.292145,147.817062 501.384399,158.958511 
	C501.396301,160.396423 501.704285,162.271927 502.628540,163.165405 
	C504.263336,164.745850 506.521729,166.751678 508.436462,166.668808 
	C510.322876,166.587128 512.351196,164.348846 513.842468,162.641953 
	C514.716370,161.641724 514.662659,159.831024 515.076843,158.183319 
	C518.348267,158.183319 521.593872,158.183319 524.838623,158.183319 
	C525.037598,167.821350 519.771240,174.992538 511.781006,176.126648 
	C501.149567,177.635620 494.285858,173.199738 491.597168,163.083527 
	C491.426453,162.441116 491.246307,161.801224 491.019409,160.736191 
z"/>
<path fill="#050505" opacity="1.000000" stroke="none" 
	d="
M749.723755,175.775940 
	C741.290039,175.776199 733.332336,175.776199 725.130493,175.776199 
	C725.130493,153.456131 725.130493,131.525284 725.130493,109.237007 
	C734.185974,109.237007 743.384216,109.237007 752.806458,109.237007 
	C752.806458,112.007362 752.806458,114.771782 752.806458,118.109009 
	C747.140930,118.109009 741.427551,118.109009 735.471069,118.109009 
	C735.471069,124.596382 735.471069,130.522018 735.471069,136.908401 
	C740.175293,136.908401 744.913696,136.908401 750.065674,136.908401 
	C750.065674,140.383148 750.065674,143.410324 750.065674,146.837738 
	C745.265930,146.837738 740.502502,146.837738 735.478760,146.837738 
	C735.478760,153.303757 735.478760,159.387436 735.478760,166.041916 
	C741.197632,166.041916 746.916687,166.041916 753.527161,166.041916 
	C751.327087,169.537109 756.282959,174.111664 749.723755,175.775940 
z"/>
<path fill="#0A0A0A" opacity="1.000000" stroke="none" 
	d="
M678.761169,165.945892 
	C678.761169,169.388229 678.761169,172.340576 678.761169,175.538361 
	C675.072205,175.538361 671.838989,175.538361 668.349365,175.538361 
	C668.349365,153.341537 668.349365,131.316315 668.349365,109.078995 
	C677.547974,109.078995 686.613525,109.078995 695.936035,109.078995 
	C695.936035,111.951347 695.936035,114.714409 695.936035,117.993530 
	C690.554077,117.993530 684.998474,117.993530 679.109985,117.993530 
	C679.109985,124.542389 679.109985,130.586746 679.109985,137.030548 
	C683.787720,137.030548 688.538574,137.030548 693.648926,137.030548 
	C693.648926,140.432190 693.648926,143.449921 693.648926,146.836639 
	C688.812439,146.836639 684.052856,146.836639 678.761169,146.836639 
	C678.761169,153.272125 678.761169,159.364014 678.761169,165.945892 
z"/>
<path fill="#020202" opacity="1.000000" stroke="none" 
	d="
M629.171570,140.000290 
	C629.171570,152.119019 629.171570,163.737793 629.171570,175.559631 
	C625.609802,175.559631 622.522278,175.559631 618.947937,175.559631 
	C618.947937,156.554138 618.947937,137.655670 618.947937,118.312790 
	C615.069702,118.312790 611.650330,118.312790 607.964783,118.312790 
	C607.964783,115.114822 607.964783,112.347374 607.964783,109.231720 
	C618.518311,109.231720 629.255066,109.231720 640.266907,109.231720 
	C640.266907,111.941002 640.266907,114.703598 640.266907,118.067688 
	C636.740479,118.067688 633.189697,118.067688 629.171570,118.067688 
	C629.171570,125.599754 629.171570,132.550049 629.171570,140.000290 
z"/>
<path fill="#0A0A0A" opacity="1.000000" stroke="none" 
	d="
M177.559280,152.472321 
	C178.356705,150.409424 178.971054,148.694534 179.607056,146.987732 
	C181.570892,141.717346 181.574112,141.718552 187.517822,142.024124 
	C187.517822,156.357986 187.517822,170.717056 187.517822,185.450684 
	C185.611053,185.450684 183.567123,185.450684 181.064301,185.450684 
	C181.064301,177.387711 181.064301,169.203751 181.064301,161.019791 
	C180.734726,160.956772 180.405151,160.893753 180.075592,160.830734 
	C178.692383,164.989365 177.456467,169.206711 175.836060,173.270767 
	C175.351151,174.486908 173.911667,175.747345 172.674713,176.060715 
	C172.049759,176.219055 170.507782,174.460510 170.060455,173.305359 
	C168.578690,169.478867 167.406021,165.532654 165.236298,161.708115 
	C165.236298,169.615799 165.236298,177.523483 165.236298,185.619690 
	C162.723251,185.619690 160.788712,185.619690 158.493683,185.619690 
	C158.493683,171.231842 158.493683,156.855408 158.493683,142.154755 
	C160.274353,142.154755 162.176849,142.154755 164.577774,142.154755 
	C167.167587,149.073685 169.860657,156.268448 172.990189,164.629288 
	C174.707870,160.016464 176.046997,156.420258 177.559280,152.472321 
z"/>
<path fill="#101010" opacity="1.000000" stroke="none" 
	d="
M213.079407,221.750824 
	C214.786270,226.975616 216.420990,231.812332 218.056488,236.651337 
	C212.811462,238.268845 209.734253,236.995468 208.747284,231.361465 
	C208.123596,227.801132 206.825241,224.306808 205.401703,220.965073 
	C204.851227,219.672836 203.119568,218.883759 201.926025,217.865448 
	C201.537277,218.178391 201.148529,218.491333 200.759781,218.804276 
	C200.759781,224.739899 200.759781,230.675537 200.759781,236.858459 
	C198.164368,236.858459 195.942245,236.858459 193.554840,236.858459 
	C193.554840,221.724869 193.554840,206.827209 193.554840,191.389420 
	C197.028503,191.389420 200.310333,191.315369 203.587524,191.407135 
	C208.278214,191.538437 213.361115,191.426025 215.337555,196.876450 
	C217.555984,202.994232 218.255569,209.502991 213.760834,214.821472 
	C211.638657,217.332596 211.997360,219.039917 213.079407,221.750824 
M207.677048,198.730118 
	C205.506912,198.416336 203.336761,198.102554 200.954193,197.758057 
	C200.954193,202.817764 200.954193,207.185638 200.954193,211.527908 
	C208.244843,212.318771 210.227844,210.467300 209.484879,203.598267 
	C209.329834,202.164856 208.700851,200.782700 207.677048,198.730118 
z"/>
<path fill="#0B0B0B" opacity="1.000000" stroke="none" 
	d="
M138.019699,237.104248 
	C136.775787,236.194107 135.317078,235.291779 135.307663,234.374588 
	C135.162903,220.255249 135.206696,206.133972 135.206696,191.842453 
	C140.584839,191.842453 145.768860,191.276321 150.729080,192.084167 
	C153.164932,192.480881 156.459854,195.034378 157.151627,197.290710 
	C159.090851,203.615860 160.149475,210.265594 154.839508,216.017349 
	C154.052994,216.869263 154.080261,219.007248 154.478104,220.324615 
	C156.142868,225.837143 158.092316,231.263687 160.014069,236.948425 
	C157.427216,236.948425 155.129181,236.948425 152.768936,236.948425 
	C150.480530,230.761124 148.256485,224.625412 145.846146,218.563782 
	C145.714706,218.233246 144.028137,218.521103 142.643448,218.521103 
	C142.643448,224.609741 142.643448,230.545227 142.643448,236.782043 
	C140.995270,236.909927 139.737167,237.007523 138.019699,237.104248 
M151.373413,203.814941 
	C150.290359,197.761841 149.935959,197.530624 142.635818,198.286133 
	C142.635818,202.699768 142.635818,207.137329 142.635818,211.550568 
	C150.093796,212.455750 150.616653,212.032303 151.373413,203.814941 
z"/>
<path fill="#0C0C0C" opacity="1.000000" stroke="none" 
	d="
M402.405273,131.999878 
	C402.405273,124.200798 402.405273,116.901718 402.405273,109.234238 
	C405.856720,109.234238 409.090973,109.234238 412.687927,109.234238 
	C412.687927,131.092941 412.687927,153.239746 412.687927,175.592621 
	C409.433014,175.592621 406.320099,175.592621 402.405273,175.592621 
	C402.405273,161.259201 402.405273,146.879532 402.405273,131.999878 
z"/>
<path fill="#0B0B0B" opacity="1.000000" stroke="none" 
	d="
M647.174438,169.829254 
	C647.174500,149.431000 647.174500,129.511017 647.174500,109.228622 
	C650.742981,109.228622 654.114014,109.228622 657.719604,109.228622 
	C657.719604,131.154282 657.719604,153.172958 657.719604,175.493286 
	C654.377930,175.493286 651.130432,175.493286 647.174438,175.493286 
	C647.174438,173.811935 647.174438,172.059723 647.174438,169.829254 
z"/>
<path fill="#050505" opacity="1.000000" stroke="none" 
	d="
M230.836029,141.843903 
	C235.795563,141.776962 240.349380,142.170288 242.016861,147.145782 
	C243.946884,152.904739 244.776581,159.099991 240.600449,164.186707 
	C238.755768,166.433640 238.778534,167.905777 239.603561,170.220169 
	C241.376984,175.195023 242.934601,180.246811 244.579208,185.263031 
	C239.357193,187.030807 236.659668,185.427444 235.770569,180.133453 
	C235.227905,176.902191 234.059067,173.723038 232.763809,170.694855 
	C232.165375,169.295776 230.591873,168.313782 229.460464,167.142700 
	C229.038757,167.412491 228.617065,167.682281 228.195358,167.952087 
	C228.195358,173.682709 228.195358,179.413330 228.195358,185.475067 
	C225.751419,185.475067 223.694199,185.475067 221.295685,185.475067 
	C221.295685,171.241562 221.295685,156.871628 221.295685,141.843842 
	C224.204987,141.843842 227.286255,141.843842 230.836029,141.843903 
M236.190872,157.630310 
	C237.058624,149.131149 235.855026,147.681580 228.346008,148.306702 
	C228.346008,152.655991 228.346008,157.005905 228.346008,163.308167 
	C231.641373,161.196106 233.828613,159.794266 236.190872,157.630310 
z"/>
<path fill="#050505" opacity="1.000000" stroke="none" 
	d="
M171.075378,224.604767 
	C170.894958,228.483963 171.817368,231.222473 175.862686,231.054626 
	C179.710434,230.894974 180.015747,228.025253 180.000076,224.949753 
	C179.944107,213.970535 179.978180,202.990875 179.978180,191.723022 
	C182.325607,191.723022 184.405396,191.723022 186.961914,191.723022 
	C186.961914,204.100647 187.276962,216.538071 186.814651,228.946533 
	C186.615738,234.285233 180.947815,237.946930 175.207825,237.737122 
	C169.121704,237.514694 164.209900,233.547195 164.064331,227.755585 
	C163.763962,215.803787 163.973907,203.839142 163.973907,191.658264 
	C166.415924,191.658264 168.495590,191.658264 171.075287,191.658264 
	C171.075287,202.586960 171.075287,213.367783 171.075378,224.604767 
z"/>
<path fill="#020202" opacity="1.000000" stroke="none" 
	d="
M539.113464,203.074371 
	C539.113464,224.014633 539.113464,244.463821 539.113464,265.225220 
	C535.669312,265.225220 532.452820,265.225220 529.015747,265.225220 
	C529.015747,243.187851 529.015747,221.297546 529.015747,199.117447 
	C532.145325,199.117447 535.243652,199.117447 538.804321,199.117447 
	C538.891663,200.096649 539.002563,201.339981 539.113464,203.074371 
z"/>
<path fill="#010101" opacity="1.000000" stroke="none" 
	d="
M714.369995,125.001320 
	C714.369995,142.101532 714.369995,158.702164 714.369995,175.532593 
	C710.835449,175.532593 707.737549,175.532593 704.302246,175.532593 
	C704.302246,153.551559 704.302246,131.522385 704.302246,109.190140 
	C707.405579,109.190140 710.622864,109.190140 714.369995,109.190140 
	C714.369995,114.311562 714.369995,119.406662 714.369995,125.001320 
z"/>
<path fill="#070707" opacity="1.000000" stroke="none" 
	d="
M232.220947,228.081726 
	C230.592941,229.083038 228.968338,229.866180 228.347702,231.138916 
	C227.512299,232.852036 227.450928,234.942612 227.063156,236.842636 
	C224.495529,236.842636 222.225372,236.842636 219.643341,236.842636 
	C223.206833,222.207932 226.520889,207.837418 230.433929,193.631912 
	C230.853241,192.109711 234.762405,191.548828 237.523727,190.334930 
	C241.475113,206.536087 245.120834,221.483948 248.850098,236.774307 
	C246.338959,236.774307 243.978302,236.774307 241.399841,236.774307 
	C240.790710,234.049438 240.185532,231.342255 239.456635,228.081650 
	C237.233215,228.081650 234.952377,228.081650 232.220947,228.081726 
M231.353836,221.718918 
	C233.459610,221.718918 235.565384,221.718918 238.216614,221.718918 
	C236.978226,215.554977 235.832443,209.851929 234.686646,204.148865 
	C234.392960,204.107269 234.099258,204.065674 233.805573,204.024063 
	C232.772369,209.771194 231.739182,215.518326 231.353836,221.718918 
z"/>
<path fill="#070707" opacity="1.000000" stroke="none" 
	d="
M203.105164,177.013107 
	C196.064453,176.672607 199.654739,182.772995 197.033859,185.516586 
	C195.220459,185.516586 192.973282,185.516586 190.302155,185.516586 
	C193.915161,170.861282 197.474930,156.421967 201.039429,141.963409 
	C203.431351,141.963409 205.403015,141.963409 207.821411,141.963409 
	C211.332397,156.368927 214.852051,170.809952 218.452225,185.581421 
	C215.879898,185.581421 213.776947,185.581421 211.357742,185.581421 
	C210.742096,182.903381 210.123596,180.212936 209.388031,177.013245 
	C207.458267,177.013245 205.507126,177.013245 203.105164,177.013107 
M202.663116,170.920242 
	C204.396652,170.920242 206.130203,170.920242 208.263504,170.920242 
	C206.993301,164.789520 205.871048,159.372894 204.748779,153.956253 
	C204.343719,153.930542 203.938660,153.904846 203.533600,153.879135 
	C202.949417,159.544189 202.365234,165.209244 202.663116,170.920242 
z"/>
<path fill="#090909" opacity="1.000000" stroke="none" 
	d="
M142.444641,166.495911 
	C132.009964,162.336288 129.853683,159.015411 131.673309,150.222900 
	C133.030502,143.664932 137.913071,140.587219 145.134857,141.737473 
	C150.939728,142.662064 153.447830,146.425919 152.840469,153.514587 
	C150.934235,153.514587 149.010864,153.514587 147.143494,153.514587 
	C145.212296,148.035812 142.455978,146.282990 139.741959,148.681732 
	C137.125519,150.994232 137.724869,156.981979 140.892563,158.666641 
	C142.931320,159.750931 145.221786,160.349976 147.332718,161.312805 
	C153.339828,164.052750 155.965271,173.862671 152.627884,180.894928 
	C150.262787,185.878464 141.517227,187.899185 135.798508,184.729691 
	C131.758896,182.490829 130.913315,178.699921 130.981949,174.181610 
	C133.091553,174.181610 135.173843,174.181610 137.602905,174.181610 
	C137.842712,175.207138 137.759430,176.778839 138.504730,177.570663 
	C139.533096,178.663223 141.216537,179.804291 142.563782,179.740997 
	C143.862091,179.680008 145.603363,178.386536 146.252899,177.159607 
	C148.270096,173.349243 146.680542,169.068832 142.444641,166.495911 
z"/>
<path fill="#0C0C0C" opacity="1.000000" stroke="none" 
	d="
M252.361694,183.460709 
	C252.356186,171.536453 252.356186,160.062164 252.356186,148.241974 
	C249.924011,148.120880 247.674896,148.008896 245.222839,147.886810 
	C245.222839,145.963013 245.222839,144.201309 245.222839,142.129333 
	C252.226532,142.129333 259.287933,142.129333 266.610077,142.129333 
	C266.610077,143.913681 266.610077,145.656876 266.610077,147.763580 
	C264.295868,147.935562 261.872589,148.115646 259.202332,148.314072 
	C259.202332,160.748245 259.202332,173.046555 259.202332,186.671448 
	C256.504974,185.581970 254.436081,184.746323 252.361694,183.460709 
z"/>
<path fill="#040404" opacity="1.000000" stroke="none" 
	d="
M259.123322,199.089813 
	C259.123322,209.710052 259.123322,219.844147 259.123322,230.453781 
	C263.009888,230.453781 266.738953,230.453781 270.819977,230.453781 
	C270.819977,232.793961 270.819977,234.666992 270.819977,236.827667 
	C264.818817,236.827667 258.732117,236.827667 252.327087,236.827667 
	C252.327087,221.950027 252.327087,206.938538 252.327087,191.680725 
	C254.449127,191.680725 256.526123,191.680725 259.123322,191.680725 
	C259.123322,194.061310 259.123322,196.332474 259.123322,199.089813 
z"/>
<path fill="#161616" opacity="1.000000" stroke="none" 
	d="
M169.543320,254.227951 
	C168.905685,256.670563 171.328598,260.522461 166.164383,259.967346 
	C166.164383,254.422791 166.164383,248.967010 166.164383,243.019836 
	C172.372528,242.241455 170.514038,248.982269 174.205780,250.844208 
	C177.057877,249.271576 175.647736,242.434250 181.678833,242.920425 
	C181.678833,248.672241 181.678833,254.126022 181.678833,259.576813 
	C178.509247,259.639954 178.509247,259.639954 178.042877,251.684235 
	C177.178040,252.996078 176.668976,253.862335 176.065231,254.656601 
	C175.503937,255.395020 174.841690,256.056702 174.348755,256.611603 
	C172.559738,255.556351 171.063507,254.673813 169.543320,254.227951 
z"/>
<path fill="#131313" opacity="1.000000" stroke="none" 
	d="
M195.875519,244.478912 
	C197.200928,243.627930 198.387589,243.160721 199.747299,242.625397 
	C200.977264,257.181915 200.575897,259.569336 196.927689,259.684784 
	C196.815140,257.408905 196.702438,255.129654 196.524551,251.532486 
	C194.618591,253.782730 193.503998,256.212402 192.263611,256.278412 
	C190.746780,256.359161 189.124496,254.458145 188.036682,253.737778 
	C187.981705,254.752579 187.847824,257.224060 187.714691,259.682068 
	C183.859283,259.547607 183.599609,258.099182 184.649048,242.980057 
	C190.548157,242.548950 189.110306,249.012909 192.504791,251.220535 
	C193.589844,249.086029 194.663300,246.974365 195.875519,244.478912 
z"/>
<path fill="#131313" opacity="1.000000" stroke="none" 
	d="
M227.218521,244.292953 
	C228.195862,243.447433 229.156433,243.048157 230.578720,242.456955 
	C230.578720,248.635864 230.578720,254.192932 230.578720,260.121582 
	C224.888840,259.726593 225.005432,253.742798 221.244812,251.038605 
	C221.244812,253.994675 221.244812,256.811829 221.244812,259.612457 
	C217.019150,259.608856 217.019150,259.608856 217.704773,242.877411 
	C223.421829,243.134857 223.142624,249.208481 227.201767,251.899414 
	C227.201767,249.363419 227.201767,247.051300 227.218521,244.292953 
z"/>
<path fill="#010101" opacity="1.000000" stroke="none" 
	d="
M473.008057,143.932465 
	C476.464691,143.932465 479.429352,143.932465 482.711304,143.932465 
	C482.711304,146.961823 482.711304,149.829468 482.711304,152.971375 
	C476.678802,152.971375 470.632172,152.971375 464.276398,152.971375 
	C464.276398,150.218384 464.276398,147.338058 464.276398,143.932465 
	C466.997955,143.932465 469.757019,143.932465 473.008057,143.932465 
z"/>
<path fill="#131313" opacity="1.000000" stroke="none" 
	d="
M163.301819,256.946442 
	C160.487396,258.172333 157.315598,260.310364 155.359039,259.503113 
	C153.356812,258.677002 151.686676,255.066635 151.381073,252.495529 
	C150.602264,245.943573 152.592270,243.114426 157.002579,242.807114 
	C161.219772,242.513275 163.732147,244.485184 163.974457,248.696152 
	C164.124374,251.301178 163.664200,253.941299 163.301819,256.946442 
M156.566956,256.917786 
	C157.937943,255.912308 160.343277,255.018646 160.466553,253.878281 
	C160.730667,251.435318 159.815765,248.864899 159.383682,246.346680 
	C157.901031,247.000000 155.231567,247.534943 155.152435,248.328247 
	C154.887543,250.984039 155.548386,253.732147 156.566956,256.917786 
z"/>
<path fill="#161616" opacity="1.000000" stroke="none" 
	d="
M205.892609,246.226791 
	C205.893021,248.684387 205.538544,250.764389 206.002380,252.642242 
	C206.396301,254.237030 207.734512,255.598557 208.654892,257.063293 
	C209.715927,255.526215 211.329437,254.111954 211.705002,252.422485 
	C212.232605,250.049042 211.737213,247.464111 211.906815,244.985199 
	C211.955994,244.266449 212.783829,243.600998 213.254730,242.911118 
	C213.873306,243.620926 214.973602,244.297256 215.025665,245.046417 
	C215.232330,248.020599 215.180099,251.019516 215.095215,254.005600 
	C214.980896,258.026337 212.766876,260.092316 208.805420,260.126190 
	C204.809326,260.160370 202.602295,258.007568 202.420532,254.059509 
	C202.261017,250.594315 202.387207,247.115952 202.387207,243.643402 
	C202.829193,243.356049 203.271164,243.068680 203.713150,242.781326 
	C204.439621,243.774719 205.166107,244.768127 205.892609,246.226791 
z"/>
<path fill="#161616" opacity="1.000000" stroke="none" 
	d="
M141.760864,242.919540 
	C146.043381,242.367737 148.896164,243.533203 150.072235,248.481476 
	C145.975418,247.559998 140.082047,242.243439 140.637863,252.113464 
	C141.170105,261.565399 146.588745,254.323730 150.033997,254.501892 
	C148.952271,259.076508 146.423401,260.459778 142.715134,260.089966 
	C139.129288,259.732391 137.428253,257.361328 137.303436,254.072784 
	C137.144852,249.894974 136.107788,245.206863 141.760864,242.919540 
z"/>
<path fill="#131313" opacity="1.000000" stroke="none" 
	d="
M251.980804,243.410355 
	C257.540436,240.963272 256.335266,247.094727 258.605530,248.648972 
	C260.306458,246.520416 262.002563,244.397842 263.698700,242.275284 
	C263.909668,242.531097 264.120636,242.786911 264.331604,243.042740 
	C262.978516,248.420685 261.695557,253.818695 260.170258,259.147369 
	C260.007050,259.717529 258.430817,259.883270 258.566467,259.831207 
	C256.438995,254.245026 254.499756,249.153091 252.226349,243.796616 
	C251.892166,243.532074 251.980804,243.410355 251.980804,243.410355 
z"/>
<path fill="#050505" opacity="1.000000" stroke="none" 
	d="
M251.544250,243.245026 
	C251.980804,243.410355 251.892166,243.532074 251.908798,243.605499 
	C250.599579,244.709274 249.273727,245.739609 247.076492,247.447113 
	C247.076492,249.908783 247.161942,253.695343 247.012039,257.472565 
	C246.977722,258.337158 246.132553,259.169617 245.660614,260.016876 
	C245.066727,259.121429 244.011383,258.251434 243.960419,257.326080 
	C243.761002,253.705536 243.878952,250.067520 243.878952,246.762344 
	C241.997147,245.919876 240.431656,245.219040 238.866165,244.518188 
	C239.017776,244.038696 239.169373,243.559189 239.320984,243.079697 
	C243.249893,243.079697 247.178787,243.079697 251.544250,243.245026 
z"/>
<path fill="#E6E6E6" opacity="1.000000" stroke="none" 
	d="
M265.599762,294.899292 
	C265.941101,293.673523 266.282410,292.447754 267.064362,289.639648 
	C269.915680,292.836945 272.470520,294.955139 273.873901,297.668823 
	C274.384827,298.656738 272.514130,302.109436 271.094513,302.600525 
	C268.317657,303.561157 264.882385,304.817200 262.535919,301.416016 
	C263.041077,301.138794 263.304565,301.085327 263.811707,300.963684 
	C264.390961,300.923981 264.726562,300.952484 265.400269,300.958252 
	C266.189728,300.302460 266.641144,299.669434 267.403625,299.173767 
	C268.537018,299.880341 269.359344,300.449524 270.384888,300.789307 
	C270.399323,299.023834 270.210541,297.487823 269.897705,295.944336 
	C269.773651,295.936920 269.526031,295.914581 269.283630,295.604370 
	C268.015839,295.183533 266.990448,295.072906 265.864380,295.000732 
	C265.763702,295.039154 265.599762,294.899292 265.599762,294.899292 
z"/>
<path fill="#010101" opacity="1.000000" stroke="none" 
	d="
M237.168915,246.148621 
	C237.168961,250.097672 237.278503,253.568695 237.100845,257.024994 
	C237.048599,258.041504 236.182739,259.016205 235.689758,260.010071 
	C235.116669,259.106018 234.092163,258.223053 234.048859,257.294312 
	C233.864609,253.342453 233.887863,249.373901 234.037857,245.419128 
	C234.069733,244.578415 234.950119,243.769897 235.439606,242.946564 
	C236.015991,243.852707 236.592377,244.758835 237.168915,246.148621 
z"/>
<path fill="#F8F8F8" opacity="1.000000" stroke="none" 
	d="
M265.062195,300.980957 
	C264.726562,300.952484 264.390961,300.923981 263.736511,300.535828 
	C263.454254,298.784424 263.490814,297.392700 263.527374,296.000916 
	C264.060608,295.652924 264.593842,295.304932 265.363434,294.928101 
	C265.599762,294.899292 265.763702,295.039154 265.577911,295.194214 
	C265.398254,295.579620 265.404358,295.810028 265.306946,296.385010 
	C265.260345,297.441956 265.317352,298.154266 265.274292,299.116394 
	C265.136902,299.904419 265.099548,300.442688 265.062195,300.980957 
z"/>
<path fill="#161616" opacity="1.000000" stroke="none" 
	d="
M263.564209,295.558655 
	C263.490814,297.392700 263.454254,298.784424 263.492859,300.604004 
	C263.304565,301.085327 263.041077,301.138794 262.381836,301.114502 
	C262.524414,299.063324 263.062714,297.089844 263.564209,295.558655 
z"/>
<path fill="#D5E70F" opacity="1.000000" stroke="none" 
	d="
M208.010925,126.739075 
	C207.769180,126.799629 207.600067,126.628494 207.474579,126.429825 
	C207.452850,126.395401 207.615692,126.244400 207.864700,126.068176 
	C208.056854,126.158752 208.077606,126.328407 208.010925,126.739075 
z"/>
<path fill="#D5E70F" opacity="1.000000" stroke="none" 
	d="
M207.913010,44.654617 
	C207.675613,44.659809 207.425339,44.343506 207.115082,43.721161 
	C207.336761,43.721119 207.618454,44.027119 207.913010,44.654617 
z"/>
<path fill="#F7F7F7" opacity="1.000000" stroke="none" 
	d="
M650.937378,210.068680 
	C651.756287,212.270950 652.662354,214.122452 652.827026,216.037689 
	C653.749817,226.768066 651.477112,229.078506 640.347229,228.664505 
	C640.347229,221.990112 640.347229,215.285309 640.347229,207.477676 
	C643.884949,208.254608 647.283508,209.000977 650.937378,210.068680 
z"/>
<path fill="#F7F7F7" opacity="1.000000" stroke="none" 
	d="
M586.493652,118.178192 
	C592.607971,120.164337 594.325439,124.420387 592.846375,132.878906 
	C591.933044,138.102692 589.903198,139.097412 580.402344,138.777893 
	C580.402344,132.133377 580.402344,125.460602 580.402344,118.162125 
	C582.237305,118.162125 584.151978,118.162125 586.493652,118.178192 
z"/>
<path fill="#F8F8F8" opacity="1.000000" stroke="none" 
	d="
M573.959839,234.983582 
	C573.898743,238.801849 573.998230,242.136063 573.746277,245.443512 
	C573.025085,254.909241 570.655640,256.712341 560.301331,255.762283 
	C560.301331,240.076157 560.301331,224.366241 560.301331,208.671143 
	C569.937134,206.919998 573.194092,209.348724 573.763184,219.039856 
	C574.064697,224.175156 573.909119,229.337280 573.959839,234.983582 
z"/>
<path fill="#F9F9F9" opacity="1.000000" stroke="none" 
	d="
M783.176086,120.987305 
	C784.113098,125.708664 785.228882,130.083252 785.419250,134.497726 
	C785.705566,141.139145 785.540771,147.818176 785.213440,154.463760 
	C784.689026,165.111572 783.235168,166.324875 772.191162,166.072678 
	C772.191162,150.243622 772.191162,134.401810 772.191162,117.160965 
	C776.112366,118.436745 779.526489,119.547569 783.176086,120.987305 
z"/>
<path fill="#F3F3F3" opacity="1.000000" stroke="none" 
	d="
M426.107544,215.380203 
	C426.219360,216.481415 426.335632,217.141678 426.337036,217.802155 
	C426.358521,227.845963 423.854584,229.919235 413.415344,228.284409 
	C413.415344,221.765869 413.415344,215.207581 413.415344,208.671356 
	C422.398010,207.029617 424.844818,208.259827 426.107544,215.380203 
z"/>
<path fill="#F7F7F7" opacity="1.000000" stroke="none" 
	d="
M463.666901,256.849640 
	C458.630096,257.147766 456.246582,254.296585 456.148102,250.290955 
	C455.850433,238.183258 455.885681,226.060272 456.138855,213.950516 
	C456.213226,210.393188 458.333160,207.441147 462.355927,207.400757 
	C466.598236,207.358185 468.831665,210.275757 468.906097,214.132660 
	C469.136597,226.079803 469.266296,238.044373 468.789642,249.976379 
	C468.696442,252.310059 465.707947,254.528091 463.666901,256.849640 
z"/>
<path fill="#F7F7F7" opacity="1.000000" stroke="none" 
	d="
M375.774475,229.962585 
	C374.049072,229.962677 372.768951,229.962677 371.274231,229.962677 
	C371.274231,222.535950 371.274231,215.508438 371.274231,208.508087 
	C380.522980,207.377777 383.285767,209.017731 383.944855,215.870361 
	C384.886658,225.662750 382.884979,229.314270 375.774475,229.962585 
z"/>
<path fill="#F7F7F7" opacity="1.000000" stroke="none" 
	d="
M207.983673,199.053528 
	C208.700851,200.782700 209.329834,202.164856 209.484879,203.598267 
	C210.227844,210.467300 208.244843,212.318771 200.954193,211.527908 
	C200.954193,207.185638 200.954193,202.817764 200.954193,197.758057 
	C203.336761,198.102554 205.506912,198.416336 207.983673,199.053528 
z"/>
<path fill="#EFEFEF" opacity="1.000000" stroke="none" 
	d="
M151.412903,204.207321 
	C150.616653,212.032303 150.093796,212.455750 142.635818,211.550568 
	C142.635818,207.137329 142.635818,202.699768 142.635818,198.286133 
	C149.935959,197.530624 150.290359,197.761841 151.412903,204.207321 
z"/>
<path fill="#F7F7F7" opacity="1.000000" stroke="none" 
	d="
M236.103363,158.011368 
	C233.828613,159.794266 231.641373,161.196106 228.346008,163.308167 
	C228.346008,157.005905 228.346008,152.655991 228.346008,148.306702 
	C235.855026,147.681580 237.058624,149.131149 236.103363,158.011368 
z"/>
<path fill="#E6E6E6" opacity="1.000000" stroke="none" 
	d="
M231.029907,221.492188 
	C231.739182,215.518326 232.772369,209.771194 233.805573,204.024063 
	C234.099258,204.065674 234.392960,204.107269 234.686646,204.148865 
	C235.832443,209.851929 236.978226,215.554977 238.216614,221.718918 
	C235.565384,221.718918 233.459610,221.718918 231.029907,221.492188 
z"/>
<path fill="#E6E6E6" opacity="1.000000" stroke="none" 
	d="
M202.222076,170.897278 
	C202.365234,165.209244 202.949417,159.544189 203.533600,153.879135 
	C203.938660,153.904846 204.343719,153.930542 204.748779,153.956253 
	C205.871048,159.372894 206.993301,164.789520 208.263504,170.920242 
	C206.130203,170.920242 204.396652,170.920242 202.222076,170.897278 
z"/>
<path fill="#EFEFEF" opacity="1.000000" stroke="none" 
	d="
M156.210846,256.681335 
	C155.548386,253.732147 154.887543,250.984039 155.152435,248.328247 
	C155.231567,247.534943 157.901031,247.000000 159.383682,246.346680 
	C159.815765,248.864899 160.730667,251.435318 160.466553,253.878281 
	C160.343277,255.018646 157.937943,255.912308 156.210846,256.681335 
z"/>
<path fill="#101010" opacity="1.000000" stroke="none" 
	d="
M265.374329,298.866608 
	C265.317352,298.154266 265.260345,297.441956 265.820801,296.341492 
	C267.467499,295.940460 268.496765,295.927521 269.526031,295.914581 
	C269.526031,295.914581 269.773651,295.936920 269.896606,296.404541 
	C270.073608,298.254333 270.127625,299.636505 270.181671,301.018707 
	C269.359344,300.449524 268.537018,299.880341 266.974243,299.129486 
	C265.947296,298.920715 265.660797,298.893646 265.374329,298.866608 
z"/>
<path fill="#FDFDFD" opacity="1.000000" stroke="none" 
	d="
M270.384888,300.789307 
	C270.127625,299.636505 270.073608,298.254333 270.020691,296.411957 
	C270.210541,297.487823 270.399323,299.023834 270.384888,300.789307 
z"/>
<path fill="#161616" opacity="1.000000" stroke="none" 
	d="
M265.274292,299.116394 
	C265.660797,298.893646 265.947296,298.920715 266.663147,298.992126 
	C266.641144,299.669434 266.189728,300.302460 265.400269,300.958221 
	C265.099548,300.442688 265.136902,299.904419 265.274292,299.116394 
z"/>
<path fill="#010101" opacity="1.000000" stroke="none" 
	d="
M269.283630,295.604370 
	C268.496765,295.927521 267.467499,295.940460 265.924377,295.996887 
	C265.404358,295.810028 265.398254,295.579620 265.678589,295.155762 
	C266.990448,295.072906 268.015839,295.183533 269.283630,295.604370 
z"/>
</svg>