<svg width="30" height="21" viewBox="0 0 30 21" fill="none" xmlns="http://www.w3.org/2000/svg">
<path d="M29.6538 2.44C28.5338 2.76 27.5204 3.26666 26.6138 3.96C25.7071 4.65333 24.9338 5.45333 24.2938 6.36C23.6538 7.21333 23.1738 8.14666 22.8538 9.16C22.5338 10.1733 22.4271 11.16 22.5338 12.12H27.1738C27.6004 12.7067 27.9471 13.3733 28.2138 14.12C28.4804 14.8667 28.6138 15.5333 28.6138 16.12C28.6138 17.0267 28.4804 17.9067 28.2138 18.76C27.9471 19.56 27.6004 20.28 27.1738 20.92H18.2138C17.3604 18.9467 16.8804 17.0533 16.7738 15.24C16.7738 12.2 17.3338 9.66666 18.4538 7.64C19.6271 5.56 21.0404 3.90667 22.6938 2.68C24.4004 1.4 26.2404 0.546662 28.2138 0.119998L29.6538 2.44ZM13.1738 2.44C12.0538 2.76 11.0404 3.26666 10.1338 3.96C9.22708 4.65333 8.45375 5.45333 7.81375 6.36C7.17375 7.21333 6.69375 8.14666 6.37375 9.16C6.05375 10.1733 5.94708 11.16 6.05375 12.12H10.6938C11.1204 12.7067 11.4671 13.3733 11.7338 14.12C12.0004 14.8667 12.1338 15.5333 12.1338 16.12C12.1338 17.0267 12.0004 17.9067 11.7338 18.76C11.4671 19.56 11.1204 20.28 10.6938 20.92H1.73375C0.880417 18.9467 0.400417 17.0533 0.29375 15.24C0.29375 12.2 0.85375 9.66666 1.97375 7.64C3.14708 5.56 4.56042 3.90667 6.21375 2.68C7.92042 1.4 9.76042 0.546662 11.7338 0.119998L13.1738 2.44Z" fill="#08AAA2"/>
</svg>
