<svg width="206" height="28" viewBox="0 0 206 28" fill="none" xmlns="http://www.w3.org/2000/svg">
<path d="M18.008 9.72C17.552 8.88 16.892 8.244 16.028 7.812C15.188 7.356 14.192 7.128 13.04 7.128C11.048 7.128 9.452 7.788 8.252 9.108C7.052 10.404 6.452 12.144 6.452 14.328C6.452 16.656 7.076 18.48 8.324 19.8C9.596 21.096 11.336 21.744 13.544 21.744C15.056 21.744 16.328 21.36 17.36 20.592C18.416 19.824 19.184 18.72 19.664 17.28H11.852V12.744H25.244V18.468C24.788 20.004 24.008 21.432 22.904 22.752C21.824 24.072 20.444 25.14 18.764 25.956C17.084 26.772 15.188 27.18 13.076 27.18C10.58 27.18 8.348 26.64 6.38 25.56C4.436 24.456 2.912 22.932 1.808 20.988C0.728 19.044 0.188 16.824 0.188 14.328C0.188 11.832 0.728 9.612 1.808 7.668C2.912 5.7 4.436 4.176 6.38 3.096C8.324 1.992 10.544 1.44 13.04 1.44C16.064 1.44 18.608 2.172 20.672 3.636C22.76 5.1 24.14 7.128 24.812 9.72H18.008ZM47.5899 16.632C47.5899 17.208 47.5539 17.808 47.4819 18.432H33.5499C33.6459 19.68 34.0419 20.64 34.7379 21.312C35.4579 21.96 36.3339 22.284 37.3659 22.284C38.9019 22.284 39.9699 21.636 40.5699 20.34H47.1219C46.7859 21.66 46.1739 22.848 45.2859 23.904C44.4219 24.96 43.3299 25.788 42.0099 26.388C40.6899 26.988 39.2139 27.288 37.5819 27.288C35.6139 27.288 33.8619 26.868 32.3259 26.028C30.7899 25.188 29.5899 23.988 28.7259 22.428C27.8619 20.868 27.4299 19.044 27.4299 16.956C27.4299 14.868 27.8499 13.044 28.6899 11.484C29.5539 9.924 30.7539 8.724 32.2899 7.884C33.8259 7.044 35.5899 6.624 37.5819 6.624C39.5259 6.624 41.2539 7.032 42.7659 7.848C44.2779 8.664 45.4539 9.828 46.2939 11.34C47.1579 12.852 47.5899 14.616 47.5899 16.632ZM41.2899 15.012C41.2899 13.956 40.9299 13.116 40.2099 12.492C39.4899 11.868 38.5899 11.556 37.5099 11.556C36.4779 11.556 35.6019 11.856 34.8819 12.456C34.1859 13.056 33.7539 13.908 33.5859 15.012H41.2899ZM69.7735 16.632C69.7735 17.208 69.7375 17.808 69.6655 18.432H55.7335C55.8295 19.68 56.2255 20.64 56.9215 21.312C57.6415 21.96 58.5175 22.284 59.5495 22.284C61.0855 22.284 62.1535 21.636 62.7535 20.34H69.3055C68.9695 21.66 68.3575 22.848 67.4695 23.904C66.6055 24.96 65.5135 25.788 64.1935 26.388C62.8735 26.988 61.3975 27.288 59.7655 27.288C57.7975 27.288 56.0455 26.868 54.5095 26.028C52.9735 25.188 51.7735 23.988 50.9095 22.428C50.0455 20.868 49.6135 19.044 49.6135 16.956C49.6135 14.868 50.0335 13.044 50.8735 11.484C51.7375 9.924 52.9375 8.724 54.4735 7.884C56.0095 7.044 57.7735 6.624 59.7655 6.624C61.7095 6.624 63.4375 7.032 64.9495 7.848C66.4615 8.664 67.6375 9.828 68.4775 11.34C69.3415 12.852 69.7735 14.616 69.7735 16.632ZM63.4735 15.012C63.4735 13.956 63.1135 13.116 62.3935 12.492C61.6735 11.868 60.7735 11.556 59.6935 11.556C58.6615 11.556 57.7855 11.856 57.0655 12.456C56.3695 13.056 55.9375 13.908 55.7695 15.012H63.4735ZM85.2971 27L79.1771 18.576V27H73.0211V0.36H79.1771V15.084L85.2611 6.912H92.8571L84.5051 16.992L92.9291 27H85.2971ZM101.86 14.328C101.86 11.832 102.4 9.612 103.48 7.668C104.56 5.7 106.06 4.176 107.98 3.096C109.924 1.992 112.12 1.44 114.568 1.44C117.568 1.44 120.136 2.232 122.272 3.816C124.408 5.4 125.836 7.56 126.556 10.296H119.788C119.284 9.24 118.564 8.436 117.628 7.884C116.716 7.332 115.672 7.056 114.496 7.056C112.6 7.056 111.064 7.716 109.888 9.036C108.712 10.356 108.124 12.12 108.124 14.328C108.124 16.536 108.712 18.3 109.888 19.62C111.064 20.94 112.6 21.6 114.496 21.6C115.672 21.6 116.716 21.324 117.628 20.772C118.564 20.22 119.284 19.416 119.788 18.36H126.556C125.836 21.096 124.408 23.256 122.272 24.84C120.136 26.4 117.568 27.18 114.568 27.18C112.12 27.18 109.924 26.64 107.98 25.56C106.06 24.456 104.56 22.932 103.48 20.988C102.4 19.044 101.86 16.824 101.86 14.328ZM136.482 0.36V27H130.326V0.36H136.482ZM139.719 16.92C139.719 14.856 140.103 13.044 140.871 11.484C141.663 9.924 142.731 8.724 144.075 7.884C145.419 7.044 146.919 6.624 148.575 6.624C149.991 6.624 151.227 6.912 152.283 7.488C153.363 8.064 154.191 8.82 154.767 9.756V6.912H160.923V27H154.767V24.156C154.167 25.092 153.327 25.848 152.247 26.424C151.191 27 149.955 27.288 148.539 27.288C146.907 27.288 145.419 26.868 144.075 26.028C142.731 25.164 141.663 23.952 140.871 22.392C140.103 20.808 139.719 18.984 139.719 16.92ZM154.767 16.956C154.767 15.42 154.335 14.208 153.471 13.32C152.631 12.432 151.599 11.988 150.375 11.988C149.151 11.988 148.107 12.432 147.243 13.32C146.403 14.184 145.983 15.384 145.983 16.92C145.983 18.456 146.403 19.68 147.243 20.592C148.107 21.48 149.151 21.924 150.375 21.924C151.599 21.924 152.631 21.48 153.471 20.592C154.335 19.704 154.767 18.492 154.767 16.956ZM173.549 27.288C171.797 27.288 170.237 26.988 168.869 26.388C167.501 25.788 166.421 24.972 165.629 23.94C164.837 22.884 164.393 21.708 164.297 20.412H170.381C170.453 21.108 170.777 21.672 171.353 22.104C171.929 22.536 172.637 22.752 173.477 22.752C174.245 22.752 174.833 22.608 175.241 22.32C175.673 22.008 175.889 21.612 175.889 21.132C175.889 20.556 175.589 20.136 174.989 19.872C174.389 19.584 173.417 19.272 172.073 18.936C170.633 18.6 169.433 18.252 168.473 17.892C167.513 17.508 166.685 16.92 165.989 16.128C165.293 15.312 164.945 14.22 164.945 12.852C164.945 11.7 165.257 10.656 165.881 9.72C166.529 8.76 167.465 8.004 168.689 7.452C169.937 6.9 171.413 6.624 173.117 6.624C175.637 6.624 177.617 7.248 179.057 8.496C180.521 9.744 181.361 11.4 181.577 13.464H175.889C175.793 12.768 175.481 12.216 174.953 11.808C174.449 11.4 173.777 11.196 172.937 11.196C172.217 11.196 171.665 11.34 171.281 11.628C170.897 11.892 170.705 12.264 170.705 12.744C170.705 13.32 171.005 13.752 171.605 14.04C172.229 14.328 173.189 14.616 174.485 14.904C175.973 15.288 177.185 15.672 178.121 16.056C179.057 16.416 179.873 17.016 180.569 17.856C181.289 18.672 181.661 19.776 181.685 21.168C181.685 22.344 181.349 23.4 180.677 24.336C180.029 25.248 179.081 25.968 177.833 26.496C176.609 27.024 175.181 27.288 173.549 27.288ZM197.799 6.696C200.103 6.696 201.951 7.464 203.343 9C204.735 10.512 205.431 12.6 205.431 15.264V27H199.311V16.092C199.311 14.748 198.963 13.704 198.267 12.96C197.571 12.216 196.635 11.844 195.459 11.844C194.283 11.844 193.347 12.216 192.651 12.96C191.955 13.704 191.607 14.748 191.607 16.092V27H185.451V0.36H191.607V9.612C192.231 8.724 193.083 8.016 194.163 7.488C195.243 6.96 196.455 6.696 197.799 6.696Z" fill="#26B2B4"/>
</svg>
