<svg width="294" height="148" viewBox="0 0 294 148" fill="none" xmlns="http://www.w3.org/2000/svg">
<g opacity="0.3" filter="url(#filter0_di_2468_1495)">
<rect x="4" width="286" height="140" rx="27.2993" fill="#009381"/>
</g>
<path d="M18.1793 32.3445V28.1186H26.0743V52H21.357V32.3445H18.1793ZM30.605 39.7481C30.605 35.9699 31.282 33.0106 32.6361 30.8704C34.012 28.7301 36.2833 27.66 39.45 27.66C42.6167 27.66 44.8771 28.7301 46.2311 30.8704C47.607 33.0106 48.2949 35.9699 48.2949 39.7481C48.2949 43.5481 47.607 46.5292 46.2311 48.6913C44.8771 50.8534 42.6167 51.9345 39.45 51.9345C36.2833 51.9345 34.012 50.8534 32.6361 48.6913C31.282 46.5292 30.605 43.5481 30.605 39.7481ZM43.7742 39.7481C43.7742 38.132 43.665 36.7779 43.4466 35.686C43.25 34.5721 42.8351 33.6658 42.2017 32.9669C41.5902 32.2681 40.673 31.9187 39.45 31.9187C38.227 31.9187 37.2988 32.2681 36.6655 32.9669C36.054 33.6658 35.639 34.5721 35.4206 35.686C35.2241 36.7779 35.1258 38.132 35.1258 39.7481C35.1258 41.4079 35.2241 42.8056 35.4206 43.9413C35.6172 45.0551 36.0321 45.9614 36.6655 46.6603C37.2988 47.3373 38.227 47.6758 39.45 47.6758C40.673 47.6758 41.6012 47.3373 42.2345 46.6603C42.8679 45.9614 43.2828 45.0551 43.4794 43.9413C43.6759 42.8056 43.7742 41.4079 43.7742 39.7481ZM51.7833 39.7481C51.7833 35.9699 52.4603 33.0106 53.8143 30.8704C55.1902 28.7301 57.4615 27.66 60.6282 27.66C63.795 27.66 66.0553 28.7301 67.4094 30.8704C68.7853 33.0106 69.4732 35.9699 69.4732 39.7481C69.4732 43.5481 68.7853 46.5292 67.4094 48.6913C66.0553 50.8534 63.795 51.9345 60.6282 51.9345C57.4615 51.9345 55.1902 50.8534 53.8143 48.6913C52.4603 46.5292 51.7833 43.5481 51.7833 39.7481ZM64.9524 39.7481C64.9524 38.132 64.8433 36.7779 64.6249 35.686C64.4283 34.5721 64.0134 33.6658 63.38 32.9669C62.7685 32.2681 61.8513 31.9187 60.6282 31.9187C59.4052 31.9187 58.4771 32.2681 57.8437 32.9669C57.2322 33.6658 56.8173 34.5721 56.5989 35.686C56.4023 36.7779 56.304 38.132 56.304 39.7481C56.304 41.4079 56.4023 42.8056 56.5989 43.9413C56.7954 45.0551 57.2104 45.9614 57.8437 46.6603C58.4771 47.3373 59.4052 47.6758 60.6282 47.6758C61.8513 47.6758 62.7794 47.3373 63.4128 46.6603C64.0461 45.9614 64.4611 45.0551 64.6576 43.9413C64.8542 42.8056 64.9524 41.4079 64.9524 39.7481ZM89.2848 29.1341C91.6871 29.1341 93.7946 29.6037 95.6073 30.5428C97.4418 31.4819 98.8505 32.825 99.8332 34.5721C100.838 36.2975 101.34 38.3067 101.34 40.5998C101.34 42.893 100.838 44.9022 99.8332 46.6275C98.8505 48.331 97.4418 49.6523 95.6073 50.5914C93.7946 51.5305 91.6871 52 89.2848 52H81.2916V29.1341H89.2848ZM89.121 48.1017C91.5233 48.1017 93.3797 47.4465 94.6901 46.1361C96.0004 44.8258 96.6556 42.9803 96.6556 40.5998C96.6556 38.2193 96.0004 36.363 94.6901 35.0308C93.3797 33.6767 91.5233 32.9997 89.121 32.9997H85.8779V48.1017H89.121ZM103.594 42.8602C103.594 41.0257 103.954 39.3987 104.675 37.9791C105.417 36.5595 106.411 35.4676 107.656 34.7032C108.923 33.9388 110.331 33.5566 111.882 33.5566C113.236 33.5566 114.415 33.8296 115.42 34.3756C116.446 34.9216 117.265 35.6095 117.877 36.4394V33.8514H122.496V52H117.877V49.3465C117.287 50.1982 116.468 50.908 115.42 51.4759C114.393 52.0218 113.203 52.2948 111.849 52.2948C110.32 52.2948 108.923 51.9017 107.656 51.1155C106.411 50.3293 105.417 49.2264 104.675 47.8068C103.954 46.3654 103.594 44.7166 103.594 42.8602ZM117.877 42.9257C117.877 41.8119 117.658 40.8619 117.222 40.0757C116.785 39.2676 116.195 38.6561 115.453 38.2412C114.71 37.8044 113.913 37.586 113.061 37.586C112.21 37.586 111.423 37.7935 110.703 38.2084C109.982 38.6234 109.392 39.2349 108.934 40.0429C108.497 40.8291 108.278 41.7682 108.278 42.8602C108.278 43.9522 108.497 44.9131 108.934 45.743C109.392 46.5511 109.982 47.1735 110.703 47.6103C111.445 48.0471 112.231 48.2655 113.061 48.2655C113.913 48.2655 114.71 48.058 115.453 47.643C116.195 47.2062 116.785 46.5947 117.222 45.8085C117.658 45.0005 117.877 44.0395 117.877 42.9257ZM144.338 33.8514L133.101 60.5829H128.22L132.151 51.5414L124.879 33.8514H130.022L134.706 46.5292L139.456 33.8514H144.338ZM153.755 52.2948C152.27 52.2948 150.937 52.0328 149.758 51.5086C148.579 50.9626 147.64 50.231 146.941 49.3138C146.264 48.3965 145.893 47.381 145.827 46.2672H150.446C150.533 46.966 150.872 47.5448 151.462 48.0034C152.073 48.462 152.827 48.6913 153.722 48.6913C154.596 48.6913 155.273 48.5166 155.753 48.1672C156.255 47.8178 156.507 47.37 156.507 46.8241C156.507 46.2344 156.201 45.7976 155.589 45.5137C155 45.2079 154.05 44.8803 152.739 44.5309C151.385 44.2033 150.271 43.8648 149.398 43.5154C148.546 43.166 147.804 42.6309 147.17 41.9102C146.559 41.1895 146.253 40.2176 146.253 38.9946C146.253 37.99 146.537 37.0728 147.105 36.2429C147.694 35.413 148.524 34.7578 149.594 34.2773C150.686 33.7968 151.964 33.5566 153.427 33.5566C155.589 33.5566 157.315 34.1026 158.603 35.1946C159.892 36.2647 160.601 37.717 160.732 39.5515H156.343C156.277 38.8308 155.971 38.263 155.425 37.8481C154.901 37.4113 154.192 37.1929 153.296 37.1929C152.466 37.1929 151.822 37.3458 151.363 37.6515C150.927 37.9573 150.708 38.3831 150.708 38.9291C150.708 39.5406 151.014 40.0102 151.625 40.3378C152.237 40.6435 153.187 40.9602 154.475 41.2878C155.786 41.6154 156.867 41.9539 157.719 42.3033C158.57 42.6527 159.302 43.1987 159.913 43.9413C160.547 44.662 160.874 45.6229 160.896 46.8241C160.896 47.8724 160.601 48.8114 160.012 49.6413C159.444 50.4712 158.614 51.1264 157.522 51.6069C156.452 52.0655 155.196 52.2948 153.755 52.2948Z" fill="#6E6E73"/>
<path d="M36.2 72.832C31.24 72.832 28.76 77.616 28.76 87.184V90.976C28.76 95.52 29.416 99.088 30.728 101.68C32.04 104.24 33.976 105.52 36.536 105.52C40.056 105.52 43.288 102.096 46.232 95.248H47.096L46.76 105.952H46.232C46.04 105.6 45.864 105.36 45.704 105.232C45.544 105.072 45.304 104.992 44.984 104.992C44.696 104.992 43.544 105.248 41.528 105.76C39.512 106.24 37.464 106.48 35.384 106.48C30.168 106.48 26.12 105.072 23.24 102.256C20.392 99.44 18.968 95.216 18.968 89.584C18.968 83.92 20.456 79.552 23.432 76.48C26.44 73.408 30.472 71.872 35.528 71.872C37.48 71.872 39.384 72.128 41.24 72.64C43.128 73.12 44.232 73.36 44.552 73.36C44.872 73.36 45.112 73.296 45.272 73.168C45.432 73.008 45.608 72.752 45.8 72.4H46.328L46.712 82.816H45.848C44.408 79.584 42.92 77.12 41.384 75.424C39.88 73.696 38.152 72.832 36.2 72.832ZM50.6206 70H62.1886V87.568C62.7006 86.096 63.4846 84.912 64.5406 84.016C65.5966 83.12 67.1966 82.672 69.3406 82.672C74.3006 82.672 76.7806 85.344 76.7806 90.688V105.136H79.4686V106H65.8846V105.136H67.8526V89.536C67.8526 87.616 67.7246 86.384 67.4686 85.84C67.2126 85.264 66.7486 84.976 66.0766 84.976C65.0526 84.976 64.1406 85.648 63.3406 86.992C62.5726 88.336 62.1886 89.968 62.1886 91.888V105.136H64.2526V106H50.6206V105.136H53.2606V70.864H50.6206V70ZM91.7188 94.72H93.1108V91.024C93.1108 87.984 92.9348 85.952 92.5828 84.928C92.2628 83.872 91.6228 83.344 90.6628 83.344C90.0868 83.344 89.5588 83.504 89.0788 83.824C88.6308 84.112 88.4068 84.528 88.4068 85.072C88.4068 85.584 88.5028 86.112 88.6948 86.656H89.8948C90.1508 87.328 90.2788 88.144 90.2788 89.104C90.2788 90.032 89.8788 90.848 89.0788 91.552C88.2788 92.224 87.2708 92.56 86.0547 92.56C83.3028 92.56 81.9268 91.232 81.9268 88.576C81.9268 84.64 85.2708 82.672 91.9588 82.672C95.7668 82.672 98.3908 83.328 99.8308 84.64C101.303 85.92 102.039 88.288 102.039 91.744V101.488C102.039 103.152 102.503 103.984 103.431 103.984C104.519 103.984 105.159 102.336 105.351 99.04L106.071 99.088C105.943 101.904 105.415 103.84 104.487 104.896C103.559 105.952 102.039 106.48 99.9268 106.48C96.0868 106.48 93.8788 105.296 93.3028 102.928C92.8868 104.144 92.2628 105.04 91.4308 105.616C90.5988 106.192 89.3828 106.48 87.7828 106.48C83.0468 106.48 80.6788 104.544 80.6788 100.672C80.6788 98.4 81.5748 96.848 83.3668 96.016C85.1908 95.152 87.9748 94.72 91.7188 94.72ZM89.7988 100.624C89.7988 102.288 89.8788 103.36 90.0388 103.84C90.2308 104.32 90.5668 104.56 91.0468 104.56C91.5588 104.56 92.0228 104.16 92.4388 103.36C92.8868 102.528 93.1108 101.392 93.1108 99.952V95.488H92.7748C90.7908 95.488 89.7988 96.944 89.7988 99.856V100.624ZM106.351 70H118.111V105.136H120.799V106H106.543V105.136H109.183V70.864H106.351V70ZM121.538 70H133.298V105.136H135.986V106H121.73V105.136H124.37V70.864H121.538V70ZM149.542 106.48C145.414 106.48 142.31 105.424 140.23 103.312C138.182 101.168 137.158 98.208 137.158 94.432C137.158 90.624 138.31 87.712 140.614 85.696C142.95 83.68 145.91 82.672 149.494 82.672C156.758 82.672 160.246 86.32 159.958 93.616H146.422V95.488C146.422 98.624 146.822 100.992 147.622 102.592C148.422 104.192 149.814 104.992 151.798 104.992C155.51 104.992 157.942 103.008 159.094 99.04L159.958 99.184C159.35 101.488 158.246 103.28 156.646 104.56C155.078 105.84 152.71 106.48 149.542 106.48ZM146.47 92.656H151.414V90.304C151.414 87.712 151.254 85.952 150.934 85.024C150.646 84.064 150.038 83.584 149.109 83.584C148.214 83.584 147.542 84.096 147.094 85.12C146.678 86.112 146.47 87.84 146.47 90.304V92.656ZM161.764 83.152H173.332V87.568C173.844 86.096 174.628 84.912 175.684 84.016C176.74 83.12 178.34 82.672 180.484 82.672C185.444 82.672 187.924 85.344 187.924 90.688V105.136H190.612V106H177.028V105.136H178.996V89.536C178.996 87.616 178.868 86.384 178.612 85.84C178.356 85.264 177.892 84.976 177.22 84.976C176.196 84.976 175.284 85.648 174.484 86.992C173.716 88.336 173.332 89.968 173.332 91.888V105.136H175.396V106H161.764V105.136H164.404V84.016H161.764V83.152ZM210.494 80.656L211.838 79.84C212.03 78.848 211.646 78.352 210.686 78.352C209.31 78.352 208.622 79.408 208.622 81.52C208.622 82.352 208.734 83.312 208.958 84.4C211.39 86.032 212.606 88.128 212.606 90.688C212.606 93.216 211.726 95.184 209.966 96.592C208.206 98 205.822 98.704 202.814 98.704C201.566 98.704 200.27 98.576 198.926 98.32C197.518 99.216 196.814 99.888 196.814 100.336C196.814 100.784 197.838 101.008 199.886 101.008H204.782C212.046 101.008 215.678 103.616 215.678 108.832C215.678 111.648 214.574 113.872 212.366 115.504C210.19 117.168 206.782 118 202.142 118C194.238 118 190.286 116.288 190.286 112.864C190.286 111.008 191.518 109.728 193.982 109.024L196.862 110.32C196.606 111.248 196.478 112.128 196.478 112.96C196.478 115.712 198.526 117.088 202.622 117.088C205.118 117.088 207.038 116.624 208.382 115.696C209.726 114.768 210.398 113.616 210.398 112.24C210.398 110.864 209.982 109.936 209.15 109.456C208.35 109.008 206.734 108.784 204.302 108.784H199.646C197.054 108.784 195.198 108.352 194.078 107.488C192.958 106.624 192.398 105.568 192.398 104.32C192.398 103.04 192.798 101.984 193.598 101.152C194.398 100.288 195.822 99.232 197.87 97.984C194.158 96.928 192.302 94.496 192.302 90.688C192.302 88.288 193.166 86.352 194.894 84.88C196.622 83.408 199.214 82.672 202.67 82.672C204.75 82.672 206.526 83.072 207.998 83.872C207.806 83.008 207.71 82.224 207.71 81.52C207.71 79.728 208.19 78.432 209.15 77.632C210.11 76.832 211.182 76.432 212.366 76.432C213.55 76.432 214.494 76.752 215.198 77.392C215.934 78 216.302 78.848 216.302 79.936C216.302 81.024 216.014 81.84 215.438 82.384C214.862 82.896 214.158 83.152 213.326 83.152C212.526 83.152 211.854 82.944 211.31 82.528C210.798 82.08 210.526 81.456 210.494 80.656ZM200.318 89.632V92.224C200.318 94.368 200.494 95.824 200.846 96.592C201.23 97.36 201.79 97.744 202.526 97.744C203.294 97.744 203.838 97.376 204.158 96.64C204.51 95.872 204.686 94.32 204.686 91.984V89.632C204.686 87.136 204.526 85.504 204.206 84.736C203.886 83.936 203.342 83.536 202.574 83.536C201.838 83.536 201.278 83.952 200.894 84.784C200.51 85.584 200.318 87.2 200.318 89.632ZM227.495 106.48C223.367 106.48 220.263 105.424 218.183 103.312C216.135 101.168 215.111 98.208 215.111 94.432C215.111 90.624 216.263 87.712 218.567 85.696C220.903 83.68 223.863 82.672 227.447 82.672C234.711 82.672 238.199 86.32 237.911 93.616H224.375V95.488C224.375 98.624 224.775 100.992 225.575 102.592C226.375 104.192 227.767 104.992 229.751 104.992C233.463 104.992 235.895 103.008 237.047 99.04L237.911 99.184C237.303 101.488 236.199 103.28 234.599 104.56C233.031 105.84 230.663 106.48 227.495 106.48ZM224.423 92.656H229.367V90.304C229.367 87.712 229.207 85.952 228.887 85.024C228.599 84.064 227.991 83.584 227.063 83.584C226.167 83.584 225.495 84.096 225.047 85.12C224.631 86.112 224.423 87.84 224.423 90.304V92.656Z" fill="white"/>
<defs>
<filter id="filter0_di_2468_1495" x="0.360097" y="0" width="293.28" height="147.28" filterUnits="userSpaceOnUse" color-interpolation-filters="sRGB">
<feFlood flood-opacity="0" result="BackgroundImageFix"/>
<feColorMatrix in="SourceAlpha" type="matrix" values="0 0 0 0 0 0 0 0 0 0 0 0 0 0 0 0 0 0 127 0" result="hardAlpha"/>
<feOffset dy="3.6399"/>
<feGaussianBlur stdDeviation="1.81995"/>
<feComposite in2="hardAlpha" operator="out"/>
<feColorMatrix type="matrix" values="0 0 0 0 0 0 0 0 0 0 0 0 0 0 0 0 0 0 0.25 0"/>
<feBlend mode="normal" in2="BackgroundImageFix" result="effect1_dropShadow_2468_1495"/>
<feBlend mode="normal" in="SourceGraphic" in2="effect1_dropShadow_2468_1495" result="shape"/>
<feColorMatrix in="SourceAlpha" type="matrix" values="0 0 0 0 0 0 0 0 0 0 0 0 0 0 0 0 0 0 127 0" result="hardAlpha"/>
<feOffset dy="3.6399"/>
<feGaussianBlur stdDeviation="1.81995"/>
<feComposite in2="hardAlpha" operator="arithmetic" k2="-1" k3="1"/>
<feColorMatrix type="matrix" values="0 0 0 0 0 0 0 0 0 0 0 0 0 0 0 0 0 0 0.25 0"/>
<feBlend mode="normal" in2="shape" result="effect2_innerShadow_2468_1495"/>
</filter>
</defs>
</svg>
